<?xml version="1.0" encoding="UTF-8" standalone="no"?>
<!-- Created with Inkscape (http://www.inkscape.org/) -->

<svg
   width="30mm"
   height="10mm"
   viewBox="0 0 30 10"
   version="1.1"
   id="svg1"
   xml:space="preserve"
   inkscape:version="1.4 (86a8ad7, 2024-10-11)"
   sodipodi:docname="logo.svg"
   xmlns:inkscape="http://www.inkscape.org/namespaces/inkscape"
   xmlns:sodipodi="http://sodipodi.sourceforge.net/DTD/sodipodi-0.dtd"
   xmlns="http://www.w3.org/2000/svg"
   xmlns:svg="http://www.w3.org/2000/svg"><sodipodi:namedview
     id="namedview1"
     pagecolor="#ffffff"
     bordercolor="#000000"
     borderopacity="0.25"
     inkscape:showpageshadow="2"
     inkscape:pageopacity="0.0"
     inkscape:pagecheckerboard="0"
     inkscape:deskcolor="#d1d1d1"
     inkscape:document-units="mm"
     inkscape:zoom="8.1336326"
     inkscape:cx="65.530375"
     inkscape:cy="44.813925"
     inkscape:window-width="1920"
     inkscape:window-height="1009"
     inkscape:window-x="-8"
     inkscape:window-y="-8"
     inkscape:window-maximized="1"
     inkscape:current-layer="svg1" /><defs
     id="defs1" /><g
     style="fill:#000000"
     id="g2"
     transform="matrix(0,0.01983208,-0.01983208,0,24.523663,1.2105579)"><path
       d="M 209.80371,47.44043 A 91.37826,91.37826 0 0 0 144.60254,20.001 C 144.48438,20 144.36914,20 144.25098,20 A 91.40777,91.40777 0 0 0 79.1543,46.99805 l -66.10254,66.91113 a 20.04772,20.04772 0 0 0 0.08594,28.19922 l 28.6533,28.65332 a 20.00008,20.00008 0 0 0 28.44921,-0.165 l 65.5752,-67.12207 a 12.05381,12.05381 0 0 1 16.76074,-0.126 11.6133,11.6133 0 0 1 3.5,8.35254 12.85847,12.85847 0 0 1 -3.65918,9.11231 l -66.93945,64.917 a 20.00115,20.00115 0 0 0 -0.21875,28.499 l 28.6543,28.6543 a 20.06288,20.06288 0 0 0 28.1455,0.13672 l 66.46192,-65.17481 c 0.0273,-0.0273 0.0557,-0.0547 0.083,-0.082 35.9971,-35.99711 36.53518,-94.46 1.20022,-130.32328 z M 55.90039,150.93066 32.919,127.94824 54.0083,106.60107 76.87158,129.46442 Z M 128.082,223.1123 105.10153,200.13184 126.64548,179.23853 149.5083,202.101 Z m 63.58985,-62.35839 -25.02685,24.54235 -22.768,-22.76818 25.32618,-24.56128 c 0.0439,-0.043 0.0869,-0.0859 0.13085,-0.12891 a 36.99918,36.99918 0 0 0 10.74122,-26.36426 35.43576,35.43576 0 0 0 -10.85352,-25.415 36.18046,36.18046 0 0 0 -50.418,0.48536 c -0.0332,0.0332 -0.0654,0.0664 -0.0986,0.0996 L 93.64453,112.29578 70.876,89.52722 96.17676,63.917 A 67.52281,67.52281 0 0 1 144.25391,44 c 0.0859,0 0.17382,0 0.25976,10e-4 A 67.544,67.544 0 0 1 192.708,64.28418 c 26.10255,26.49414 25.6338,69.75782 -1.03612,96.46973 z"
       id="path1" /></g><path
     style="font-size:4.91896px;font-family:Bungee;-inkscape-font-specification:Bungee;stroke-width:0.512424;stroke-linecap:round;stroke-linejoin:round;paint-order:markers stroke fill"
     d="m 6.2688452,5.3935166 h -0.762439 q -0.177082,0 -0.177082,-0.1770826 V 2.0289479 q 0,-0.1770826 0.177082,-0.1770826 h 0.762439 q 0.177083,0 0.177083,0.1770826 v 1.0674143 h 0.821466 V 2.0289479 q 0,-0.1770826 0.177083,-0.1770826 h 0.762439 q 0.177082,0 0.177082,0.1770826 V 5.216434 q 0,0.1770826 -0.177082,0.1770826 h -0.762439 q -0.177083,0 -0.177083,-0.1770826 V 4.1244249 H 6.4459282 V 5.216434 q 0,0.1770826 -0.177083,0.1770826 z m 5.2534528,0 H 9.2399012 q -0.177083,0 -0.177083,-0.1770826 V 2.0289479 q 0,-0.1770826 0.177083,-0.1770826 h 2.2823968 q 0.177083,0 0.177083,0.1770826 v 0.5755183 q 0,0.1770826 -0.177083,0.1770826 h -1.357633 v 0.3787599 h 0.959198 q 0.177082,0 0.177082,0.1770826 V 3.86372 q 0,0.1770825 -0.177082,0.1770825 h -0.959198 v 0.4230306 h 1.357633 q 0.177083,0 0.177083,0.1770826 V 5.216434 q 0,0.1770826 -0.177083,0.1770826 z m 1.815093,-2.2036941 q 0.245948,-0.073784 0.624708,-0.073784 0.447626,0 0.698493,0.098379 0.250867,0.098379 0.354165,0.2951376 0.103298,0.1967584 0.103298,0.491896 V 4.4736712 Q 15.118055,4.7737278 15,5 q -0.118055,0.2213532 -0.42795,0.3443272 -0.304975,0.122974 -0.870656,0.122974 -0.452544,0 -0.742763,-0.073784 Q 12.668413,5.3246512 12.506087,5.1967582 12.34868,5.0639462 12.284734,4.8819447 12.225704,4.6999432 12.225704,4.473671 V 2.8602521 q 0,-0.3000565 0.108217,-0.5263287 0.108218,-0.2262722 0.373841,-0.3541651 0.265624,-0.127893 0.728006,-0.127893 h 1.131361 q 0.177083,0 0.177083,0.1770826 v 0.5804373 q 0,0.1770825 -0.177083,0.1770825 h -0.919845 q -0.182002,0 -0.245948,0.059028 -0.06395,0.054109 -0.06395,0.2361101 z m 0,0.9149265 v 0.2902187 q 0,0.078703 0.05903,0.1328119 0.05903,0.04919 0.270543,0.04919 0.221353,0 0.28038,-0.04919 0.05903,-0.054109 0.05903,-0.1328119 V 4.104749 q 0,-0.073784 -0.05903,-0.122974 -0.05903,-0.054108 -0.28038,-0.054108 -0.211516,0 -0.270543,0.054108 -0.05903,0.04919 -0.05903,0.122974 z m 5.302644,0.3590841 q 0,0.2262722 -0.06887,0.4131927 -0.06395,0.1820015 -0.231191,0.3148134 -0.162325,0.1328119 -0.457463,0.2016774 -0.290219,0.073784 -0.742763,0.073784 -0.452544,0 -0.747682,-0.073784 Q 16.096933,5.3246511 15.929688,5.1918392 15.767362,5.0590273 15.698497,4.8770258 15.63455,4.6901053 15.63455,4.4638331 V 2.7864677 q 0,-0.2262721 0.06395,-0.4082737 0.06886,-0.1869204 0.231191,-0.3197324 0.167245,-0.1328119 0.462382,-0.2065963 0.295138,-0.073784 0.747682,-0.073784 0.452544,0 0.742763,0.073784 0.295138,0.073784 0.457463,0.2065963 0.167245,0.132812 0.231191,0.3197324 0.06887,0.1820016 0.06887,0.4082737 z m -1.8938,-0.1770825 q 0,0.098379 0.06887,0.1672446 0.07378,0.063947 0.324651,0.063947 0.255786,0 0.324651,-0.063947 0.06887,-0.068865 0.06887,-0.1672446 V 2.9635503 q 0,-0.098379 -0.06887,-0.1623257 -0.06886,-0.063947 -0.324651,-0.063947 -0.250867,0 -0.324651,0.063947 -0.06887,0.063946 -0.06887,0.1623257 z"
     id="text2"
     aria-label="HE60" /><path
     style="font-size:2.11667px;font-family:Bungee;-inkscape-font-specification:Bungee;stroke-width:5.292;stroke-linecap:round;stroke-linejoin:round;paint-order:markers stroke fill"
     d="M 5.733608,8.1313882 H 5.4055242 q -0.0762,0 -0.0762,-0.0762 V 6.683586 q 0,-0.0762 0.0762,-0.0762 h 0.647701 q 0.1926169,0 0.3005671,0.052917 0.1100668,0.0508 0.1545169,0.1439335 0.04445,0.093134 0.04445,0.2159004 v 0.2709337 q 0,0.1227669 -0.04445,0.2159003 -0.04445,0.093134 -0.1545169,0.1460503 -0.1079502,0.0508 -0.3005671,0.0508 H 5.8098081 v 0.3513672 q 0,0.0762 -0.0762,0.0762 z m 0.071967,-1.128185 v 0.3196171 h 0.1905003 q 0.061383,0 0.080433,-0.03175 0.01905,-0.03175 0.01905,-0.071967 V 7.10692 q 0,-0.042333 -0.01905,-0.071967 -0.01905,-0.03175 -0.080433,-0.03175 z m 2.0256514,1.128185 H 6.8490913 q -0.0762,0 -0.0762,-0.0762 V 6.683586 q 0,-0.0762 0.0762,-0.0762 h 0.9821349 q 0.0762,0 0.0762,0.0762 v 0.2476504 q 0,0.0762 -0.0762,0.0762 H 7.2470253 V 7.17042 h 0.4127506 q 0.0762,0 0.0762,0.0762 v 0.2264839 q 0,0.0762 -0.0762,0.0762 H 7.2470253 v 0.1820336 h 0.5842009 q 0.0762,0 0.0762,0.0762 v 0.2476503 q 0,0.0762 -0.0762,0.0762 z m 0.7302498,0 h -0.328084 q -0.0762,0 -0.0762,-0.0762 V 6.683586 q 0,-0.0762 0.0762,-0.0762 h 0.6477009 q 0.192617,0 0.3005672,0.052917 0.1100668,0.0508 0.1545169,0.1439335 0.04445,0.093134 0.04445,0.2159004 v 0.2709337 q 0,0.1227669 -0.04445,0.2159003 -0.04445,0.093134 -0.1545169,0.1460503 -0.1079502,0.0508 -0.3005672,0.0508 h -0.243417 v 0.3513672 q 0,0.0762 -0.0762,0.0762 z m 0.071967,-1.128185 v 0.3196171 h 0.1905003 q 0.061383,0 0.080433,-0.03175 0.01905,-0.03175 0.01905,-0.071967 V 7.10692 q 0,-0.042333 -0.01905,-0.071967 -0.01905,-0.03175 -0.080433,-0.03175 z m 1.3715998,1.128185 H 9.676959 q -0.0762,0 -0.0762,-0.0762 V 6.683586 q 0,-0.0762 0.0762,-0.0762 h 0.6477 q 0.192617,0 0.300568,0.052917 0.110066,0.0508 0.154516,0.1439335 0.04445,0.093134 0.04445,0.2159004 v 0.2709337 q 0,0.1227669 -0.04445,0.2159003 -0.04445,0.093134 -0.154516,0.1460503 -0.107951,0.0508 -0.300568,0.0508 h -0.243417 v 0.3513672 q 0,0.0762 -0.0762,0.0762 z m 0.07197,-1.128185 v 0.3196171 h 0.1905 q 0.06138,0 0.08043,-0.03175 0.01905,-0.03175 0.01905,-0.071967 V 7.10692 q 0,-0.042333 -0.01905,-0.071967 -0.01905,-0.03175 -0.08043,-0.03175 z m 1.37795,1.0519849 q 0,0.0762 -0.0762,0.0762 h -0.31115 q -0.0762,0 -0.0762,-0.0762 V 7.4963873 q 0,-0.0635 0.01905,-0.1460502 0.02117,-0.08255 0.0635,-0.192617 l 0.18415,-0.4804841 q 0.02328,-0.06985 0.10795,-0.06985 h 0.569385 q 0.08255,0 0.105833,0.06985 l 0.18415,0.4804841 q 0.04233,0.1100668 0.06138,0.192617 0.02117,0.08255 0.02117,0.1460502 v 0.5588008 q 0,0.0762 -0.0762,0.0762 h -0.319617 q -0.08255,0 -0.08255,-0.0762 V 7.7588543 h -0.374651 z m 0.120651,-1.0033015 -0.09948,0.3217338 h 0.332317 l -0.09948,-0.3217338 q -0.01482,-0.035983 -0.04022,-0.035983 h -0.05292 q -0.0254,0 -0.04022,0.035983 z m 1.397001,1.0795016 h -0.328084 q -0.0762,0 -0.0762,-0.0762 V 6.683586 q 0,-0.0762 0.0762,-0.0762 h 0.647701 q 0.192617,0 0.300567,0.052917 0.110067,0.0508 0.154517,0.1439335 0.04445,0.093134 0.04445,0.2159004 v 0.2709337 q 0,0.1227669 -0.04445,0.2159003 -0.04445,0.093134 -0.154517,0.1460503 -0.10795,0.0508 -0.300567,0.0508 h -0.243417 v 0.3513672 q 0,0.0762 -0.0762,0.0762 z m 0.07197,-1.128185 v 0.3196171 h 0.190501 q 0.06138,0 0.08043,-0.03175 0.01905,-0.03175 0.01905,-0.071967 V 7.10692 q 0,-0.042333 -0.01905,-0.071967 -0.01905,-0.03175 -0.08043,-0.03175 z m 1.00965,1.128185 q -0.0762,0 -0.0762,-0.0762 V 7.8033044 q 0,-0.0762 0.0762,-0.0762 h 0.209543 V 7.0159032 h -0.209551 q -0.0762,0 -0.0762,-0.0762 V 6.683586 q 0,-0.0762 0.0762,-0.0762 h 0.901702 q 0.0762,0 0.0762,0.0762 v 0.2561171 q 0,0.0762 -0.0762,0.0762 h -0.205317 v 0.7112011 h 0.205317 q 0.0762,0 0.0762,0.0762 v 0.2518837 q 0,0.0762 -0.0762,0.0762 z m 2.40242,0 h -0.666751 q -0.266701,0 -0.393701,-0.1058334 -0.127,-0.1058335 -0.127,-0.3259672 v -0.660401 q 0,-0.2201337 0.127,-0.3259672 0.127,-0.1058335 0.393701,-0.1058335 h 0.529167 q 0.0762,0 0.0762,0.0762 V 6.939703 q 0,0.0762 -0.0762,0.0762 h -0.440267 q -0.129117,0 -0.129117,0.1058335 v 0.5058841 q 0,0.1037168 0.09737,0.1037168 h 0.205317 V 7.4011371 q 0,-0.0762 0.0762,-0.0762 h 0.328084 q 0.0762,0 0.0762,0.0762 v 0.654051 q 0,0.0762 -0.0762,0.0762 z m 0.738718,0 h -0.328084 q -0.0762,0 -0.0762,-0.0762 V 6.683586 q 0,-0.0762 0.0762,-0.0762 h 0.328084 q 0.0762,0 0.0762,0.0762 v 0.4593174 h 0.353484 V 6.683586 q 0,-0.0762 0.0762,-0.0762 h 0.328084 q 0.0762,0 0.0762,0.0762 v 1.3716021 q 0,0.0762 -0.0762,0.0762 h -0.328084 q -0.0762,0 -0.0762,-0.0762 V 7.5852874 h -0.353484 v 0.4699007 q 0,0.0762 -0.0762,0.0762 z m 1.909238,0 h -0.668868 q -0.0762,0 -0.0762,-0.0762 V 7.8075378 q 0,-0.0762 0.0762,-0.0762 h 0.569385 q 0.02752,0 0.04022,-0.016933 0.01482,-0.01905 0.01482,-0.04445 0,-0.035983 -0.01482,-0.052917 -0.0127,-0.016933 -0.04022,-0.01905 l -0.317501,-0.04445 q -0.148167,-0.023283 -0.239184,-0.097367 -0.0889,-0.0762 -0.0889,-0.2540003 V 6.9799198 q 0,-0.1820336 0.116417,-0.2772837 0.116417,-0.09525 0.321734,-0.09525 h 0.592667 q 0.0762,0 0.0762,0.0762 v 0.2518838 q 0,0.0762 -0.0762,0.0762 h -0.493184 q -0.05715,0 -0.05715,0.0635 0,0.061383 0.05715,0.067733 l 0.315384,0.042333 q 0.09948,0.014817 0.173567,0.052917 0.07408,0.035983 0.1143,0.1079501 0.04233,0.071967 0.04233,0.1905003 v 0.2222503 q 0,0.179917 -0.116417,0.2772838 -0.116417,0.09525 -0.321734,0.09525 z m 1.549402,0 h -0.328084 q -0.0762,0 -0.0762,-0.0762 V 6.683586 q 0,-0.0762 0.0762,-0.0762 h 0.647701 q 0.192617,0 0.300568,0.052917 0.110066,0.0508 0.154516,0.1439335 0.04445,0.093134 0.04445,0.2159004 v 0.2709337 q 0,0.1227669 -0.04445,0.2159003 -0.04445,0.093134 -0.154516,0.1460503 -0.107951,0.0508 -0.300568,0.0508 h -0.243417 v 0.3513672 q 0,0.0762 -0.0762,0.0762 z m 0.07197,-1.128185 v 0.3196171 h 0.1905 q 0.06138,0 0.08043,-0.03175 0.01905,-0.03175 0.01905,-0.071967 V 7.10692 q 0,-0.042333 -0.01905,-0.071967 -0.01905,-0.03175 -0.08043,-0.03175 z m 1.981201,1.128185 h -0.516468 q -0.2667,0 -0.393701,-0.1058334 -0.127,-0.1058335 -0.127,-0.3259672 V 7.0413033 q 0,-0.2222504 0.127,-0.3280839 0.127001,-0.1058335 0.393701,-0.1058335 h 0.516468 q 0.0762,0 0.0762,0.0762 V 6.939703 q 0,0.0762 -0.0762,0.0762 h -0.425451 q -0.129117,0 -0.129117,0.1058335 v 0.5037674 q 0,0.1016002 0.129117,0.1016002 h 0.425451 q 0.0762,0 0.0762,0.0762 v 0.2518837 q 0,0.0762 -0.0762,0.0762 z m 1.204385,0 h -0.812801 q -0.0762,0 -0.0762,-0.0762 V 6.683586 q 0,-0.0762 0.0762,-0.0762 h 0.675218 q 0.207434,0 0.306917,0.078317 0.09948,0.078317 0.09948,0.2455337 v 0.1016002 q 0,0.1756836 -0.124883,0.2286003 0.137583,0.0127 0.201084,0.093133 0.06562,0.078317 0.06562,0.2349504 v 0.1947336 q 0,0.1778003 -0.09948,0.2624671 -0.09948,0.084667 -0.311151,0.084667 z M 23.498808,7.5217873 v 0.2497671 h 0.275167 q 0.08043,0 0.08043,-0.084667 v -0.08255 q 0,-0.08255 -0.08043,-0.08255 z m 0,-0.5545675 v 0.2286004 h 0.179917 q 0.08043,0 0.08043,-0.084667 v -0.059267 q 0,-0.084667 -0.08043,-0.084667 z"
     id="text3"
     aria-label="peppapighs PCB" /></svg>
