<?xml version="1.0" encoding="UTF-8" standalone="no"?>
<!-- Created with Inkscape (http://www.inkscape.org/) -->

<svg
   width="16mm"
   height="16mm"
   viewBox="0 0 16 16"
   version="1.1"
   id="svg1"
   xml:space="preserve"
   inkscape:version="1.4 (86a8ad7, 2024-10-11)"
   sodipodi:docname="logo.svg"
   inkscape:export-filename="profile.png"
   inkscape:export-xdpi="96"
   inkscape:export-ydpi="96"
   xmlns:inkscape="http://www.inkscape.org/namespaces/inkscape"
   xmlns:sodipodi="http://sodipodi.sourceforge.net/DTD/sodipodi-0.dtd"
   xmlns="http://www.w3.org/2000/svg"
   xmlns:svg="http://www.w3.org/2000/svg"><sodipodi:namedview
     id="namedview1"
     pagecolor="#ffffff"
     bordercolor="#000000"
     borderopacity="0.25"
     inkscape:showpageshadow="2"
     inkscape:pageopacity="0.0"
     inkscape:pagecheckerboard="0"
     inkscape:deskcolor="#d1d1d1"
     inkscape:document-units="px"
     inkscape:zoom="11.313708"
     inkscape:cx="38.758291"
     inkscape:cy="36.195028"
     inkscape:window-width="1920"
     inkscape:window-height="1009"
     inkscape:window-x="-8"
     inkscape:window-y="-8"
     inkscape:window-maximized="1"
     inkscape:current-layer="svg1"
     showguides="true"
     showgrid="true" /><defs
     id="defs1" /><path
     id="path1"
     style="fill:#000000;fill-opacity:1;stroke:#000000;stroke-width:0.0223327;stroke-linecap:round;paint-order:markers stroke fill"
     d="M 7.9999996,0.01121758 A 7.9887847,7.9887859 0 0 0 0.01121758,7.9999996 7.9887847,7.9887859 0 0 0 7.9999996,15.988782 7.9887847,7.9887859 0 0 0 15.988782,7.9999996 7.9887847,7.9887859 0 0 0 7.9999996,0.01121758 Z m 0,2.67631442 c 0.4136633,0 0.7408833,0.1203732 0.9816531,0.3611428 0.2407699,0.2407696 0.3611429,0.5391961 0.3611429,0.8952278 0,0.4046978 -0.1671102,0.7824766 -0.5013702,1.1333855 h 0.547482 V 5.551803 H 8.0998831 V 5.0984366 C 8.3163199,5.0177532 8.4796093,4.8871095 8.5897488,4.7065322 8.7011686,4.5259551 8.7568921,4.3178543 8.7568921,4.0822074 8.7568921,3.8401571 8.6928543,3.6282049 8.5647852,3.446347 8.437997,3.2644891 8.2497345,3.173552 7.9999996,3.173552 c -0.2484528,0 -0.4367159,0.090295 -0.564785,0.2708724 -0.1280691,0.1805773 -0.1921069,0.3931713 -0.1921069,0.637783 0,0.2369275 0.055082,0.4456702 0.1652211,0.6262474 0.1114204,0.1792966 0.2753511,0.3092984 0.4917879,0.3899818 V 5.551803 H 6.6110924 V 5.0772881 H 7.1566515 C 6.8223921,4.7263792 6.6552813,4.3486004 6.6552813,3.9439026 c 0,-0.3534704 0.1197318,-0.6512549 0.3592201,-0.8933052 C 7.2539909,2.8085471 7.5824954,2.687532 7.9999996,2.687532 Z M 5.5781395,6.2812604 A 0.74218295,0.74218295 0 0 1 6.3203227,7.0234435 0.74218295,0.74218295 0 0 1 5.5781395,7.7656266 0.74218295,0.74218295 0 0 1 4.8359565,7.0234435 0.74218295,0.74218295 0 0 1 5.5781395,6.2812604 Z m 4.8437205,0 A 0.74218295,0.74218295 0 0 1 11.164043,7.0234435 0.74218295,0.74218295 0 0 1 10.42186,7.7656266 0.74218295,0.74218295 0 0 1 9.6796771,7.0234435 0.74218295,0.74218295 0 0 1 10.42186,6.2812604 Z M 6.7500075,7.9999996 h 0.1562489 c -0.3462475,0 -0.624996,0.2787485 -0.624996,0.6249966 v 1.0937432 c 0,0.3462486 0.2787485,0.6249956 0.624996,0.6249956 h 2.187487 c 0.3462475,0 0.624996,-0.278747 0.624996,-0.6249956 V 8.6249962 c 0,-0.3462481 -0.2787485,-0.6249966 -0.624996,-0.6249966 h 0.1562489 c 0.3895287,0 0.7031207,0.313592 0.7031207,0.7031208 v 1.1718679 c 0,0.3895297 -0.313592,0.7031207 -0.7031207,0.7031207 H 6.7500075 c -0.3895287,0 -0.7031207,-0.313591 -0.7031207,-0.7031207 V 8.7031204 c 0,-0.3895288 0.313592,-0.7031208 0.7031207,-0.7031208 z m -2.5468597,0.078125 h 0.8749947 c 0.2769983,0 0.499997,0.2090616 0.499997,0.4687472 0,0.2596862 -0.2229987,0.4687472 -0.499997,0.4687472 H 4.2031478 c -0.2769983,0 -0.499997,-0.209061 -0.499997,-0.4687472 0,-0.2596856 0.2229987,-0.4687472 0.499997,-0.4687472 z m 6.7187092,0 h 0.874995 c 0.276998,0 0.499997,0.2090616 0.499997,0.4687472 0,0.2596862 -0.222999,0.4687472 -0.499997,0.4687472 h -0.874995 c -0.276998,0 -0.499997,-0.209061 -0.499997,-0.4687472 0,-0.2596856 0.222999,-0.4687472 0.499997,-0.4687472 z M 7.1875047,8.5468715 h 0.0625 c 0.069249,0 0.1249989,0.055749 0.1249989,0.1249995 v 0.9999937 c 0,0.069249 -0.05575,0.1249995 -0.1249989,0.1249995 h -0.0625 c -0.069249,0 -0.1249989,-0.05575 -0.1249989,-0.1249995 V 8.671871 c 0,-0.06925 0.05575,-0.1249995 0.1249989,-0.1249995 z m 1.5624904,0 h 0.0625 c 0.069249,0 0.1249989,0.055749 0.1249989,0.1249995 v 0.9999937 c 0,0.069249 -0.055749,0.1249995 -0.1249989,0.1249995 h -0.0625 c -0.069249,0 -0.1249989,-0.05575 -0.1249989,-0.1249995 V 8.671871 c 0,-0.06925 0.055749,-0.1249995 0.1249989,-0.1249995 z" /></svg>
