  0
SECTION
  2
HEADER
  9
$ANGBASE
  50
0.0
  9
$ANGDIR
  70
1
  9
$MEASUREMENT
  70
1
  0
ENDSEC
  0
SECTION
  2
TABLES
  0
TABLE
  2
LTYPE
  70
4
  0
LTYPE
  5
40F
  2
CONTINUOUS
  70
0
  3
Solid line
  72
65
  73
0
  40
0.0
  0
LTYPE
  5
410
  2
DASHDOT
 70
0
  3
Dash Dot ____ _ ____ _
 72
65
 73
4
 40
2.0
 49
1.25
 49
-0.25
 49
0.25
 49
-0.25
  0
LTYPE
  5
411
  2
DASHED
 70
0
  3
Dashed __ __ __ __ __
 72
65
 73
2
 40
0.75
 49
0.5
 49
-0.25
  0
LTYPE
  5
43B
  2
DOTTED
 70
0
  3
Dotted .  .  .  .
 72
65
 73
2
 40
0.2
 49
0.0
 49
-0.2
  0
ENDTAB
  0
TABLE
  2
STYLE
  70
4
  0
STYLE
  2
KICAD
  70
0
  40
0
  41
1
  42
1
  50
0
  71
0
  3
isocp.shx
  0
STYLE
  2
KICADB
  70
0
  40
0
  41
1
  42
1
  50
0
  71
0
  3
isocp.shx
  0
STYLE
  2
KICADI
  70
0
  40
0
  41
1
  42
1
  50
15
  71
0
  3
isocp.shx
  0
STYLE
  2
KICADBI
  70
0
  40
0
  41
1
  42
1
  50
15
  71
0
  3
isocp.shx
  0
ENDTAB
  0
TABLE
  2
LAYER
  70
1
  0
LAYER
  2
BLACK
  70
0
  62
7
  6
CONTINUOUS
  0
ENDTAB
  0
ENDSEC
  0
SECTION
  2
ENTITIES
0
LINE
8
BLACK
6
CONTINUOUS
10
9.1437499999999989
20
-40.5931280000000001
11
9.1437499999999989
21
-53.6431279999999973
0
LINE
8
BLACK
6
CONTINUOUS
10
22.6937499999999979
20
-40.0931280000000001
11
9.6437499999999989
21
-40.0931280000000001
0
LINE
8
BLACK
6
CONTINUOUS
10
23.1937499999999979
20
-53.6431279999999973
11
23.1937499999999979
21
-40.5931280000000001
0
LINE
8
BLACK
6
CONTINUOUS
10
9.6437499999999989
20
-54.1431279999999973
11
22.6937499999999979
21
-54.1431279999999973
0
ARC
8
BLACK
10
22.6937499999999979
20
-40.5931280000000001
40
0.5
50
0.00000000
51
90.00000000
0
ARC
8
BLACK
10
22.6937499999999979
20
-53.6431279999999973
40
0.5
50
-90.00000000
51
-0.00000000
0
ARC
8
BLACK
10
9.6437499999999989
20
-40.5931280000000001
40
0.5
50
90.00000000
51
180.00000000
0
ARC
8
BLACK
10
9.6437499999999989
20
-53.6431279999999973
40
0.5
50
-180.00000000
51
-90.00000000
0
LINE
8
BLACK
6
CONTINUOUS
10
29.8692499999999974
20
-59.1749999999999972
11
29.8692499999999974
21
-59.1750499999999988
0
LINE
8
BLACK
6
CONTINUOUS
10
35.869250000000001
20
-74.1749999999999972
11
35.869250000000001
21
-74.1749499999999955
0
LINE
8
BLACK
6
CONTINUOUS
10
256.0562499999999773
20
-73.2000000000000028
11
256.0562499999999773
21
-73.1999500000000012
0
LINE
8
BLACK
6
CONTINUOUS
10
243.0062499999999943
20
-59.1499999999999986
11
243.0062499999999943
21
-59.1500500000000002
0
LINE
8
BLACK
6
CONTINUOUS
10
272.7567500000000109
20
-40.1250500000000017
11
272.7567500000000109
21
-40.125
0
LINE
8
BLACK
6
CONTINUOUS
10
278.7567500000000109
20
-55.1249499999999983
11
278.7567500000000109
21
-55.125
0
LINE
8
BLACK
6
CONTINUOUS
10
254.8807499999999777
20
-55.125
11
254.8807499999999777
21
-55.1249499999999983
0
LINE
8
BLACK
6
CONTINUOUS
10
248.8807499999999777
20
-40.125
11
248.8807499999999777
21
-40.1250500000000017
0
LINE
8
BLACK
6
CONTINUOUS
10
270.34375
20
-54.1499499999999969
11
270.34375
21
-54.1499999999999986
0
LINE
8
BLACK
6
CONTINUOUS
10
257.2937499999999886
20
-40.100049999999996
11
257.2937499999999886
21
-40.1000000000000014
0
LINE
8
BLACK
6
CONTINUOUS
10
27.4562499999999972
20
-73.2000000000000028
11
27.4562499999999972
21
-73.1999500000000012
0
LINE
8
BLACK
6
CONTINUOUS
10
14.40625
20
-59.1499999999999986
11
14.40625
21
-59.1500500000000002
0
LINE
8
BLACK
6
CONTINUOUS
10
109.65625
20
-78.2000499999999903
11
109.65625
21
-78.2000000000000028
0
LINE
8
BLACK
6
CONTINUOUS
10
122.7062499999999972
20
-92.2499499999999983
11
122.7062499999999972
21
-92.25
0
LINE
8
BLACK
6
CONTINUOUS
10
101.2432499999999891
20
-77.225049999999996
11
101.2432499999999891
21
-77.2249999999999943
0
LINE
8
BLACK
6
CONTINUOUS
10
107.2432499999999891
20
-92.2249499999999927
11
107.2432499999999891
21
-92.2249999999999943
0
LINE
8
BLACK
6
CONTINUOUS
10
125.1192499999999939
20
-77.2249999999999943
11
125.1192499999999939
21
-77.225049999999996
0
LINE
8
BLACK
6
CONTINUOUS
10
131.1192499999999939
20
-92.2249999999999943
11
131.1192499999999939
21
-92.2249499999999927
0
LINE
8
BLACK
6
CONTINUOUS
10
148.8682499999999891
20
-77.225049999999996
11
148.8682499999999891
21
-77.2249999999999943
0
LINE
8
BLACK
6
CONTINUOUS
10
154.8682499999999891
20
-92.2499499999999983
11
154.8682499999999891
21
-92.25
0
LINE
8
BLACK
6
CONTINUOUS
10
178.7442499999999939
20
-92.2249999999999943
11
178.7442499999999939
21
-92.2249499999999927
0
LINE
8
BLACK
6
CONTINUOUS
10
172.7442499999999939
20
-77.2249999999999943
11
172.7442499999999939
21
-77.225049999999996
0
LINE
8
BLACK
6
CONTINUOUS
10
157.28125
20
-78.2000499999999903
11
157.28125
21
-78.2000000000000028
0
LINE
8
BLACK
6
CONTINUOUS
10
170.3312499999999829
20
-92.2499499999999983
11
170.3312499999999829
21
-92.25
0
LINE
8
BLACK
6
CONTINUOUS
10
279.4499999999999886
20
-59.1499999999999986
11
269.1999999999999886
21
-59.1499999999999986
0
LINE
8
BLACK
6
CONTINUOUS
10
255.1499999999999773
20
0.
11
29.5499999999999972
21
0.
0
LINE
8
BLACK
6
CONTINUOUS
10
258.1499999999999773
20
-1.25
11
256.1499999999999773
21
-1.25
0
ARC
8
BLACK
10
26.5499999999999972
20
-0.75
40
0.5
50
-180.00000000
51
-90.00000000
0
LINE
8
BLACK
6
CONTINUOUS
10
255.6499999999999773
20
-0.75
11
255.6499999999999773
21
-0.5
0
ARC
8
BLACK
10
2.
20
-2.
40
2.
50
90.00000000
51
180.00000000
0
LINE
8
BLACK
6
CONTINUOUS
10
26.5499999999999972
20
-1.25
11
28.5499999999999972
21
-1.25
0
ARC
8
BLACK
10
275.1499999999999773
20
-0.75
40
0.5
50
-90.00000000
51
-0.00000000
0
ARC
8
BLACK
10
272.1499999999999773
20
-0.75
40
0.5
50
0.00000000
51
90.00000000
0
LINE
8
BLACK
6
CONTINUOUS
10
282.6999999999999886
20
0.
11
276.1499999999999773
21
0.
0
ARC
8
BLACK
10
259.1499999999999773
20
-0.75
40
0.5
50
90.00000000
51
180.00000000
0
LINE
8
BLACK
6
CONTINUOUS
10
2.
20
-94.2000000000000028
11
282.6999999999999886
21
-94.2000000000000028
0
LINE
8
BLACK
6
CONTINUOUS
10
275.6499999999999773
20
-0.5
11
275.6499999999999773
21
-0.75
0
ARC
8
BLACK
10
255.1499999999999773
20
-0.5
40
0.5
50
0.00000000
51
90.00000000
0
ARC
8
BLACK
10
12.5499999999999989
20
-0.75
40
0.5
50
90.00000000
51
180.00000000
0
ARC
8
BLACK
10
25.5499999999999972
20
-0.75
40
0.5
50
0.00000000
51
90.00000000
0
LINE
8
BLACK
6
CONTINUOUS
10
9.5499999999999989
20
-1.25
11
11.5499999999999989
21
-1.25
0
ARC
8
BLACK
10
11.5499999999999989
20
-0.75
40
0.5
50
-90.00000000
51
-0.00000000
0
LINE
8
BLACK
6
CONTINUOUS
10
284.6999999999999886
20
-2.
11
284.6999999999999886
21
-54.125
0
LINE
8
BLACK
6
CONTINUOUS
10
275.1499999999999773
20
-1.25
11
273.1499999999999773
21
-1.25
0
LINE
8
BLACK
6
CONTINUOUS
10
9.0499999999999989
20
-0.5
11
9.0499999999999989
21
-0.75
0
ARC
8
BLACK
10
2.
20
-92.2000000000000028
40
2.
50
-180.00000000
51
-90.00000000
0
LINE
8
BLACK
6
CONTINUOUS
10
2.
20
0.
11
8.5499999999999989
21
0.
0
ARC
8
BLACK
10
9.5499999999999989
20
-0.75
40
0.5
50
-180.00000000
51
-90.00000000
0
ARC
8
BLACK
10
28.5499999999999972
20
-0.75
40
0.5
50
-90.00000000
51
-0.00000000
0
LINE
8
BLACK
6
CONTINUOUS
10
12.5499999999999989
20
-0.25
11
25.5499999999999972
21
-0.25
0
ARC
8
BLACK
10
273.1499999999999773
20
-0.75
40
0.5
50
-180.00000000
51
-90.00000000
0
ARC
8
BLACK
10
2.75
20
-56.625
40
2.5
50
-90.00000000
51
90.00000000
0
ARC
8
BLACK
10
8.5499999999999989
20
-0.5
40
0.5
50
0.00000000
51
90.00000000
0
ARC
8
BLACK
10
29.5499999999999972
20
-0.5
40
0.5
50
90.00000000
51
180.00000000
0
LINE
8
BLACK
6
CONTINUOUS
10
272.1499999999999773
20
-0.25
11
259.1499999999999773
21
-0.25
0
LINE
8
BLACK
6
CONTINUOUS
10
0.
20
-92.2000000000000028
11
0.
21
-59.125
0
LINE
8
BLACK
6
CONTINUOUS
10
0.
20
-2.
11
0.
21
-54.125
0
LINE
8
BLACK
6
CONTINUOUS
10
0.
20
-59.125
11
2.75
21
-59.125
0
ARC
8
BLACK
10
276.1499999999999773
20
-0.5
40
0.5
50
90.00000000
51
180.00000000
0
ARC
8
BLACK
10
256.1499999999999773
20
-0.75
40
0.5
50
-180.00000000
51
-90.00000000
0
LINE
8
BLACK
6
CONTINUOUS
10
29.0499999999999972
20
-0.75
11
29.0499999999999972
21
-0.5
0
ARC
8
BLACK
10
258.1499999999999773
20
-0.75
40
0.5
50
-90.00000000
51
-0.00000000
0
ARC
8
BLACK
10
282.6999999999999886
20
-92.2000000000000028
40
2.
50
-90.00000000
51
-0.00000000
0
ARC
8
BLACK
10
282.6999999999999886
20
-2.
40
2.
50
0.00000000
51
90.00000000
0
LINE
8
BLACK
6
CONTINUOUS
10
2.75
20
-54.125
11
0.
21
-54.125
0
ARC
8
BLACK
10
2.5
20
-15.5499999999999989
40
0.5
50
-180.00000000
51
-90.00000000
0
ARC
8
BLACK
10
15.5499999999999989
20
-15.5499999999999989
40
0.5
50
-90.00000000
51
-0.00000000
0
ARC
8
BLACK
10
15.5499999999999989
20
-2.5
40
0.5
50
0.00000000
51
90.00000000
0
ARC
8
BLACK
10
2.5
20
-2.5
40
0.5
50
90.00000000
51
180.00000000
0
LINE
8
BLACK
6
CONTINUOUS
10
2.5
20
-16.0500000000000007
11
15.5499999999999989
21
-16.0500000000000007
0
LINE
8
BLACK
6
CONTINUOUS
10
15.5499999999999989
20
-2.
11
2.5
21
-2.
0
LINE
8
BLACK
6
CONTINUOUS
10
16.0500000000000007
20
-15.5499999999999989
11
16.0500000000000007
21
-2.5
0
LINE
8
BLACK
6
CONTINUOUS
10
2.
20
-2.5
11
2.
21
-15.5499999999999989
0
ARC
8
BLACK
10
21.5500000000000007
20
-15.5499999999999989
40
0.5
50
-180.00000000
51
-90.00000000
0
ARC
8
BLACK
10
34.6000000000000014
20
-15.5499999999999989
40
0.5
50
-90.00000000
51
-0.00000000
0
ARC
8
BLACK
10
34.6000000000000014
20
-2.5
40
0.5
50
0.00000000
51
90.00000000
0
ARC
8
BLACK
10
21.5500000000000007
20
-2.5
40
0.5
50
90.00000000
51
180.00000000
0
LINE
8
BLACK
6
CONTINUOUS
10
21.5500000000000007
20
-16.0500000000000007
11
34.6000000000000014
21
-16.0500000000000007
0
LINE
8
BLACK
6
CONTINUOUS
10
34.6000000000000014
20
-2.
11
21.5500000000000007
21
-2.
0
LINE
8
BLACK
6
CONTINUOUS
10
35.1000000000000014
20
-15.5499999999999989
11
35.1000000000000014
21
-2.5
0
LINE
8
BLACK
6
CONTINUOUS
10
21.0500000000000007
20
-2.5
11
21.0500000000000007
21
-15.5499999999999989
0
ARC
8
BLACK
10
40.6000000000000014
20
-15.5499999999999989
40
0.5
50
-180.00000000
51
-90.00000000
0
ARC
8
BLACK
10
53.6499999999999986
20
-15.5499999999999989
40
0.5
50
-90.00000000
51
-0.00000000
0
ARC
8
BLACK
10
53.6499999999999986
20
-2.5
40
0.5
50
0.00000000
51
90.00000000
0
ARC
8
BLACK
10
40.6000000000000014
20
-2.5
40
0.5
50
90.00000000
51
180.00000000
0
LINE
8
BLACK
6
CONTINUOUS
10
40.6000000000000014
20
-16.0500000000000007
11
53.6499999999999986
21
-16.0500000000000007
0
LINE
8
BLACK
6
CONTINUOUS
10
53.6499999999999986
20
-2.
11
40.6000000000000014
21
-2.
0
LINE
8
BLACK
6
CONTINUOUS
10
54.1499999999999986
20
-15.5499999999999989
11
54.1499999999999986
21
-2.5
0
LINE
8
BLACK
6
CONTINUOUS
10
40.1000000000000014
20
-2.5
11
40.1000000000000014
21
-15.5499999999999989
0
ARC
8
BLACK
10
59.6499999999999986
20
-15.5499999999999989
40
0.5
50
-180.00000000
51
-90.00000000
0
ARC
8
BLACK
10
72.7000000000000028
20
-15.5499999999999989
40
0.5
50
-90.00000000
51
-0.00000000
0
ARC
8
BLACK
10
72.7000000000000028
20
-2.5
40
0.5
50
0.00000000
51
90.00000000
0
ARC
8
BLACK
10
59.6499999999999986
20
-2.5
40
0.5
50
90.00000000
51
180.00000000
0
LINE
8
BLACK
6
CONTINUOUS
10
59.6499999999999986
20
-16.0500000000000007
11
72.7000000000000028
21
-16.0500000000000007
0
LINE
8
BLACK
6
CONTINUOUS
10
72.7000000000000028
20
-2.
11
59.6499999999999986
21
-2.
0
LINE
8
BLACK
6
CONTINUOUS
10
73.2000000000000028
20
-15.5499999999999989
11
73.2000000000000028
21
-2.5
0
LINE
8
BLACK
6
CONTINUOUS
10
59.1499999999999986
20
-2.5
11
59.1499999999999986
21
-15.5499999999999989
0
ARC
8
BLACK
10
78.7000000000000028
20
-15.5499999999999989
40
0.5
50
-180.00000000
51
-90.00000000
0
ARC
8
BLACK
10
91.75
20
-15.5499999999999989
40
0.5
50
-90.00000000
51
-0.00000000
0
ARC
8
BLACK
10
91.75
20
-2.5
40
0.5
50
0.00000000
51
90.00000000
0
ARC
8
BLACK
10
78.7000000000000028
20
-2.5
40
0.5
50
90.00000000
51
180.00000000
0
LINE
8
BLACK
6
CONTINUOUS
10
78.7000000000000028
20
-16.0500000000000007
11
91.75
21
-16.0500000000000007
0
LINE
8
BLACK
6
CONTINUOUS
10
91.75
20
-2.
11
78.7000000000000028
21
-2.
0
LINE
8
BLACK
6
CONTINUOUS
10
92.25
20
-15.5499999999999989
11
92.25
21
-2.5
0
LINE
8
BLACK
6
CONTINUOUS
10
78.2000000000000028
20
-2.5
11
78.2000000000000028
21
-15.5499999999999989
0
ARC
8
BLACK
10
97.75
20
-15.5499999999999989
40
0.5
50
-180.00000000
51
-90.00000000
0
ARC
8
BLACK
10
110.7999999999999972
20
-15.5499999999999989
40
0.5
50
-90.00000000
51
-0.00000000
0
ARC
8
BLACK
10
110.7999999999999972
20
-2.5
40
0.5
50
0.00000000
51
90.00000000
0
ARC
8
BLACK
10
97.75
20
-2.5
40
0.5
50
90.00000000
51
180.00000000
0
LINE
8
BLACK
6
CONTINUOUS
10
97.75
20
-16.0500000000000007
11
110.7999999999999972
21
-16.0500000000000007
0
LINE
8
BLACK
6
CONTINUOUS
10
110.7999999999999972
20
-2.
11
97.75
21
-2.
0
LINE
8
BLACK
6
CONTINUOUS
10
111.2999999999999972
20
-15.5499999999999989
11
111.2999999999999972
21
-2.5
0
LINE
8
BLACK
6
CONTINUOUS
10
97.25
20
-2.5
11
97.25
21
-15.5499999999999989
0
ARC
8
BLACK
10
116.7999999999999972
20
-15.5499999999999989
40
0.5
50
-180.00000000
51
-90.00000000
0
ARC
8
BLACK
10
129.8499999999999943
20
-15.5499999999999989
40
0.5
50
-90.00000000
51
-0.00000000
0
ARC
8
BLACK
10
129.8499999999999943
20
-2.5
40
0.5
50
0.00000000
51
90.00000000
0
ARC
8
BLACK
10
116.7999999999999972
20
-2.5
40
0.5
50
90.00000000
51
180.00000000
0
LINE
8
BLACK
6
CONTINUOUS
10
116.7999999999999972
20
-16.0500000000000007
11
129.8499999999999943
21
-16.0500000000000007
0
LINE
8
BLACK
6
CONTINUOUS
10
129.8499999999999943
20
-2.
11
116.7999999999999972
21
-2.
0
LINE
8
BLACK
6
CONTINUOUS
10
130.3499999999999943
20
-15.5499999999999989
11
130.3499999999999943
21
-2.5
0
LINE
8
BLACK
6
CONTINUOUS
10
116.2999999999999972
20
-2.5
11
116.2999999999999972
21
-15.5499999999999989
0
ARC
8
BLACK
10
135.8499999999999943
20
-15.5499999999999989
40
0.5
50
-180.00000000
51
-90.00000000
0
ARC
8
BLACK
10
148.9000000000000057
20
-15.5499999999999989
40
0.5
50
-90.00000000
51
-0.00000000
0
ARC
8
BLACK
10
148.9000000000000057
20
-2.5
40
0.5
50
0.00000000
51
90.00000000
0
ARC
8
BLACK
10
135.8499999999999943
20
-2.5
40
0.5
50
90.00000000
51
180.00000000
0
LINE
8
BLACK
6
CONTINUOUS
10
135.8499999999999943
20
-16.0500000000000007
11
148.9000000000000057
21
-16.0500000000000007
0
LINE
8
BLACK
6
CONTINUOUS
10
148.9000000000000057
20
-2.
11
135.8499999999999943
21
-2.
0
LINE
8
BLACK
6
CONTINUOUS
10
149.4000000000000057
20
-15.5499999999999989
11
149.4000000000000057
21
-2.5
0
LINE
8
BLACK
6
CONTINUOUS
10
135.3499999999999943
20
-2.5
11
135.3499999999999943
21
-15.5499999999999989
0
ARC
8
BLACK
10
154.9000000000000057
20
-15.5499999999999989
40
0.5
50
-180.00000000
51
-90.00000000
0
ARC
8
BLACK
10
167.9499999999999886
20
-15.5499999999999989
40
0.5
50
-90.00000000
51
-0.00000000
0
ARC
8
BLACK
10
167.9499999999999886
20
-2.5
40
0.5
50
0.00000000
51
90.00000000
0
ARC
8
BLACK
10
154.9000000000000057
20
-2.5
40
0.5
50
90.00000000
51
180.00000000
0
LINE
8
BLACK
6
CONTINUOUS
10
154.9000000000000057
20
-16.0500000000000007
11
167.9499999999999886
21
-16.0500000000000007
0
LINE
8
BLACK
6
CONTINUOUS
10
167.9499999999999886
20
-2.
11
154.9000000000000057
21
-2.
0
LINE
8
BLACK
6
CONTINUOUS
10
168.4499999999999886
20
-15.5499999999999989
11
168.4499999999999886
21
-2.5
0
LINE
8
BLACK
6
CONTINUOUS
10
154.4000000000000057
20
-2.5
11
154.4000000000000057
21
-15.5499999999999989
0
ARC
8
BLACK
10
173.9499999999999886
20
-15.5499999999999989
40
0.5
50
-180.00000000
51
-90.00000000
0
ARC
8
BLACK
10
187.
20
-15.5499999999999989
40
0.5
50
-90.00000000
51
-0.00000000
0
ARC
8
BLACK
10
187.
20
-2.5
40
0.5
50
0.00000000
51
90.00000000
0
ARC
8
BLACK
10
173.9499999999999886
20
-2.5
40
0.5
50
90.00000000
51
180.00000000
0
LINE
8
BLACK
6
CONTINUOUS
10
173.9499999999999886
20
-16.0500000000000007
11
187.
21
-16.0500000000000007
0
LINE
8
BLACK
6
CONTINUOUS
10
187.
20
-2.
11
173.9499999999999886
21
-2.
0
LINE
8
BLACK
6
CONTINUOUS
10
187.5
20
-15.5499999999999989
11
187.5
21
-2.5
0
LINE
8
BLACK
6
CONTINUOUS
10
173.4499999999999886
20
-2.5
11
173.4499999999999886
21
-15.5499999999999989
0
ARC
8
BLACK
10
193.
20
-15.5499999999999989
40
0.5
50
-180.00000000
51
-90.00000000
0
ARC
8
BLACK
10
206.0499999999999829
20
-15.5499999999999989
40
0.5
50
-90.00000000
51
-0.00000000
0
ARC
8
BLACK
10
206.0499999999999829
20
-2.5
40
0.5
50
0.00000000
51
90.00000000
0
ARC
8
BLACK
10
193.
20
-2.5
40
0.5
50
90.00000000
51
180.00000000
0
LINE
8
BLACK
6
CONTINUOUS
10
193.
20
-16.0500000000000007
11
206.0499999999999829
21
-16.0500000000000007
0
LINE
8
BLACK
6
CONTINUOUS
10
206.0499999999999829
20
-2.
11
193.
21
-2.
0
LINE
8
BLACK
6
CONTINUOUS
10
206.5499999999999829
20
-15.5499999999999989
11
206.5499999999999829
21
-2.5
0
LINE
8
BLACK
6
CONTINUOUS
10
192.5
20
-2.5
11
192.5
21
-15.5499999999999989
0
ARC
8
BLACK
10
212.0499999999999829
20
-15.5499999999999989
40
0.5
50
-180.00000000
51
-90.00000000
0
ARC
8
BLACK
10
225.0999999999999943
20
-15.5499999999999989
40
0.5
50
-90.00000000
51
-0.00000000
0
ARC
8
BLACK
10
225.0999999999999943
20
-2.5
40
0.5
50
0.00000000
51
90.00000000
0
ARC
8
BLACK
10
212.0499999999999829
20
-2.5
40
0.5
50
90.00000000
51
180.00000000
0
LINE
8
BLACK
6
CONTINUOUS
10
212.0499999999999829
20
-16.0500000000000007
11
225.0999999999999943
21
-16.0500000000000007
0
LINE
8
BLACK
6
CONTINUOUS
10
225.0999999999999943
20
-2.
11
212.0499999999999829
21
-2.
0
LINE
8
BLACK
6
CONTINUOUS
10
225.5999999999999943
20
-15.5499999999999989
11
225.5999999999999943
21
-2.5
0
LINE
8
BLACK
6
CONTINUOUS
10
211.5499999999999829
20
-2.5
11
211.5499999999999829
21
-15.5499999999999989
0
ARC
8
BLACK
10
231.0999999999999943
20
-15.5499999999999989
40
0.5
50
-180.00000000
51
-90.00000000
0
ARC
8
BLACK
10
244.1499999999999773
20
-15.5499999999999989
40
0.5
50
-90.00000000
51
-0.00000000
0
ARC
8
BLACK
10
244.1499999999999773
20
-2.5
40
0.5
50
0.00000000
51
90.00000000
0
ARC
8
BLACK
10
231.0999999999999943
20
-2.5
40
0.5
50
90.00000000
51
180.00000000
0
LINE
8
BLACK
6
CONTINUOUS
10
231.0999999999999943
20
-16.0500000000000007
11
244.1499999999999773
21
-16.0500000000000007
0
LINE
8
BLACK
6
CONTINUOUS
10
244.1499999999999773
20
-2.
11
231.0999999999999943
21
-2.
0
LINE
8
BLACK
6
CONTINUOUS
10
244.6499999999999773
20
-15.5499999999999989
11
244.6499999999999773
21
-2.5
0
LINE
8
BLACK
6
CONTINUOUS
10
230.5999999999999943
20
-2.5
11
230.5999999999999943
21
-15.5499999999999989
0
LINE
8
BLACK
6
CONTINUOUS
10
259.6750000000000114
20
-16.0500000000000007
11
263.1999999999999886
21
-16.0500000000000007
0
LINE
8
BLACK
6
CONTINUOUS
10
263.1999999999999886
20
-16.0500000000000007
11
269.1999999999999886
21
-16.0500000000000007
0
LINE
8
BLACK
6
CONTINUOUS
10
269.1999999999999886
20
-16.0500000000000007
11
272.7249999999999659
21
-16.0500000000000007
0
LINE
8
BLACK
6
CONTINUOUS
10
272.7249999999999659
20
-2.
11
269.1999999999999886
21
-2.
0
LINE
8
BLACK
6
CONTINUOUS
10
269.1999999999999886
20
-2.
11
263.1999999999999886
21
-2.
0
LINE
8
BLACK
6
CONTINUOUS
10
263.1999999999999886
20
-2.
11
259.6750000000000114
21
-2.
0
ARC
8
BLACK
10
251.2620000000000005
20
-16.5249999999999986
40
0.5
50
-180.00000000
51
-90.00000000
0
ARC
8
BLACK
10
257.2620000000000005
20
-16.5249999999999986
40
0.5
50
-90.00000000
51
-0.00000000
0
LINE
8
BLACK
6
CONTINUOUS
10
251.2620000000000005
20
-17.0249999999999986
11
257.2620000000000005
21
-17.0249999999999986
0
LINE
8
BLACK
6
CONTINUOUS
10
257.7620000000000005
20
-16.5249999999999986
11
257.7620000000000005
21
-16.0500000000000007
0
LINE
8
BLACK
6
CONTINUOUS
10
250.7620000000000005
20
-16.0500000000000007
11
250.7620000000000005
21
-16.5249999999999986
0
ARC
8
BLACK
10
275.1379999999999768
20
-16.5249999999999986
40
0.5
50
-180.00000000
51
-90.00000000
0
ARC
8
BLACK
10
281.1379999999999768
20
-16.5249999999999986
40
0.5
50
-90.00000000
51
-0.00000000
0
LINE
8
BLACK
6
CONTINUOUS
10
275.1379999999999768
20
-17.0249999999999986
11
281.1379999999999768
21
-17.0249999999999986
0
LINE
8
BLACK
6
CONTINUOUS
10
281.6379999999999768
20
-16.5249999999999986
11
281.6379999999999768
21
-16.0500000000000007
0
LINE
8
BLACK
6
CONTINUOUS
10
274.6379999999999768
20
-16.0500000000000007
11
274.6379999999999768
21
-16.5249999999999986
0
ARC
8
BLACK
10
250.1499999999999773
20
-15.5499999999999989
40
0.5
50
-180.00000000
51
-90.00000000
0
ARC
8
BLACK
10
250.1499999999999773
20
-2.5
40
0.5
50
90.00000000
51
180.00000000
0
LINE
8
BLACK
6
CONTINUOUS
10
250.1499999999999773
20
-16.0500000000000007
11
250.7620000000000005
21
-16.0500000000000007
0
LINE
8
BLACK
6
CONTINUOUS
10
257.7620000000000005
20
-16.0500000000000007
11
259.6750000000000114
21
-16.0500000000000007
0
LINE
8
BLACK
6
CONTINUOUS
10
259.6750000000000114
20
-2.
11
250.1499999999999773
21
-2.
0
LINE
8
BLACK
6
CONTINUOUS
10
249.6499999999999773
20
-2.5
11
249.6499999999999773
21
-15.5499999999999989
0
ARC
8
BLACK
10
282.25
20
-15.5499999999999989
40
0.5
50
-90.00000000
51
-0.00000000
0
ARC
8
BLACK
10
282.25
20
-2.5
40
0.5
50
0.00000000
51
90.00000000
0
LINE
8
BLACK
6
CONTINUOUS
10
272.7249999999999659
20
-16.0500000000000007
11
274.6379999999999768
21
-16.0500000000000007
0
LINE
8
BLACK
6
CONTINUOUS
10
281.6379999999999768
20
-16.0500000000000007
11
282.25
21
-16.0500000000000007
0
LINE
8
BLACK
6
CONTINUOUS
10
282.25
20
-2.
11
272.7249999999999659
21
-2.
0
LINE
8
BLACK
6
CONTINUOUS
10
282.75
20
-15.5499999999999989
11
282.75
21
-2.5
0
ARC
8
BLACK
10
50.125
20
-34.6000000000000014
40
0.5
50
-180.00000000
51
-90.00000000
0
ARC
8
BLACK
10
63.1749999999999972
20
-34.6000000000000014
40
0.5
50
-90.00000000
51
-0.00000000
0
ARC
8
BLACK
10
63.1749999999999972
20
-21.5500000000000007
40
0.5
50
0.00000000
51
90.00000000
0
ARC
8
BLACK
10
50.125
20
-21.5500000000000007
40
0.5
50
90.00000000
51
180.00000000
0
LINE
8
BLACK
6
CONTINUOUS
10
50.125
20
-35.1000000000000014
11
63.1749999999999972
21
-35.1000000000000014
0
LINE
8
BLACK
6
CONTINUOUS
10
63.1749999999999972
20
-21.0500000000000007
11
50.125
21
-21.0500000000000007
0
LINE
8
BLACK
6
CONTINUOUS
10
63.6749999999999972
20
-34.6000000000000014
11
63.6749999999999972
21
-21.5500000000000007
0
LINE
8
BLACK
6
CONTINUOUS
10
49.625
20
-21.5500000000000007
11
49.625
21
-34.6000000000000014
0
ARC
8
BLACK
10
69.1749999999999972
20
-34.6000000000000014
40
0.5
50
-180.00000000
51
-90.00000000
0
ARC
8
BLACK
10
82.2249999999999943
20
-34.6000000000000014
40
0.5
50
-90.00000000
51
-0.00000000
0
ARC
8
BLACK
10
82.2249999999999943
20
-21.5500000000000007
40
0.5
50
0.00000000
51
90.00000000
0
ARC
8
BLACK
10
69.1749999999999972
20
-21.5500000000000007
40
0.5
50
90.00000000
51
180.00000000
0
LINE
8
BLACK
6
CONTINUOUS
10
69.1749999999999972
20
-35.1000000000000014
11
82.2249999999999943
21
-35.1000000000000014
0
LINE
8
BLACK
6
CONTINUOUS
10
82.2249999999999943
20
-21.0500000000000007
11
69.1749999999999972
21
-21.0500000000000007
0
LINE
8
BLACK
6
CONTINUOUS
10
82.7249999999999943
20
-34.6000000000000014
11
82.7249999999999943
21
-21.5500000000000007
0
LINE
8
BLACK
6
CONTINUOUS
10
68.6749999999999972
20
-21.5500000000000007
11
68.6749999999999972
21
-34.6000000000000014
0
ARC
8
BLACK
10
88.2249999999999943
20
-34.6000000000000014
40
0.5
50
-180.00000000
51
-90.00000000
0
ARC
8
BLACK
10
101.2749999999999915
20
-34.6000000000000014
40
0.5
50
-90.00000000
51
-0.00000000
0
ARC
8
BLACK
10
101.2749999999999915
20
-21.5500000000000007
40
0.5
50
0.00000000
51
90.00000000
0
ARC
8
BLACK
10
88.2249999999999943
20
-21.5500000000000007
40
0.5
50
90.00000000
51
180.00000000
0
LINE
8
BLACK
6
CONTINUOUS
10
88.2249999999999943
20
-35.1000000000000014
11
101.2749999999999915
21
-35.1000000000000014
0
LINE
8
BLACK
6
CONTINUOUS
10
101.2749999999999915
20
-21.0500000000000007
11
88.2249999999999943
21
-21.0500000000000007
0
LINE
8
BLACK
6
CONTINUOUS
10
101.7749999999999915
20
-34.6000000000000014
11
101.7749999999999915
21
-21.5500000000000007
0
LINE
8
BLACK
6
CONTINUOUS
10
87.7249999999999943
20
-21.5500000000000007
11
87.7249999999999943
21
-34.6000000000000014
0
ARC
8
BLACK
10
107.2749999999999915
20
-34.6000000000000014
40
0.5
50
-180.00000000
51
-90.00000000
0
ARC
8
BLACK
10
120.3249999999999886
20
-34.6000000000000014
40
0.5
50
-90.00000000
51
-0.00000000
0
ARC
8
BLACK
10
120.3249999999999886
20
-21.5500000000000007
40
0.5
50
0.00000000
51
90.00000000
0
ARC
8
BLACK
10
107.2749999999999915
20
-21.5500000000000007
40
0.5
50
90.00000000
51
180.00000000
0
LINE
8
BLACK
6
CONTINUOUS
10
107.2749999999999915
20
-35.1000000000000014
11
120.3249999999999886
21
-35.1000000000000014
0
LINE
8
BLACK
6
CONTINUOUS
10
120.3249999999999886
20
-21.0500000000000007
11
107.2749999999999915
21
-21.0500000000000007
0
LINE
8
BLACK
6
CONTINUOUS
10
120.8249999999999886
20
-34.6000000000000014
11
120.8249999999999886
21
-21.5500000000000007
0
LINE
8
BLACK
6
CONTINUOUS
10
106.7749999999999915
20
-21.5500000000000007
11
106.7749999999999915
21
-34.6000000000000014
0
ARC
8
BLACK
10
126.3249999999999886
20
-34.6000000000000014
40
0.5
50
-180.00000000
51
-90.00000000
0
ARC
8
BLACK
10
139.375
20
-34.6000000000000014
40
0.5
50
-90.00000000
51
-0.00000000
0
ARC
8
BLACK
10
139.375
20
-21.5500000000000007
40
0.5
50
0.00000000
51
90.00000000
0
ARC
8
BLACK
10
126.3249999999999886
20
-21.5500000000000007
40
0.5
50
90.00000000
51
180.00000000
0
LINE
8
BLACK
6
CONTINUOUS
10
126.3249999999999886
20
-35.1000000000000014
11
139.375
21
-35.1000000000000014
0
LINE
8
BLACK
6
CONTINUOUS
10
139.375
20
-21.0500000000000007
11
126.3249999999999886
21
-21.0500000000000007
0
LINE
8
BLACK
6
CONTINUOUS
10
139.875
20
-34.6000000000000014
11
139.875
21
-21.5500000000000007
0
LINE
8
BLACK
6
CONTINUOUS
10
125.8249999999999886
20
-21.5500000000000007
11
125.8249999999999886
21
-34.6000000000000014
0
ARC
8
BLACK
10
145.375
20
-34.6000000000000014
40
0.5
50
-180.00000000
51
-90.00000000
0
ARC
8
BLACK
10
158.4249999999999829
20
-34.6000000000000014
40
0.5
50
-90.00000000
51
-0.00000000
0
ARC
8
BLACK
10
158.4249999999999829
20
-21.5500000000000007
40
0.5
50
0.00000000
51
90.00000000
0
ARC
8
BLACK
10
145.375
20
-21.5500000000000007
40
0.5
50
90.00000000
51
180.00000000
0
LINE
8
BLACK
6
CONTINUOUS
10
145.375
20
-35.1000000000000014
11
158.4249999999999829
21
-35.1000000000000014
0
LINE
8
BLACK
6
CONTINUOUS
10
158.4249999999999829
20
-21.0500000000000007
11
145.375
21
-21.0500000000000007
0
LINE
8
BLACK
6
CONTINUOUS
10
158.9249999999999829
20
-34.6000000000000014
11
158.9249999999999829
21
-21.5500000000000007
0
LINE
8
BLACK
6
CONTINUOUS
10
144.875
20
-21.5500000000000007
11
144.875
21
-34.6000000000000014
0
ARC
8
BLACK
10
164.4249999999999829
20
-34.6000000000000014
40
0.5
50
-180.00000000
51
-90.00000000
0
ARC
8
BLACK
10
177.4749999999999943
20
-34.6000000000000014
40
0.5
50
-90.00000000
51
-0.00000000
0
ARC
8
BLACK
10
177.4749999999999943
20
-21.5500000000000007
40
0.5
50
0.00000000
51
90.00000000
0
ARC
8
BLACK
10
164.4249999999999829
20
-21.5500000000000007
40
0.5
50
90.00000000
51
180.00000000
0
LINE
8
BLACK
6
CONTINUOUS
10
164.4249999999999829
20
-35.1000000000000014
11
177.4749999999999943
21
-35.1000000000000014
0
LINE
8
BLACK
6
CONTINUOUS
10
177.4749999999999943
20
-21.0500000000000007
11
164.4249999999999829
21
-21.0500000000000007
0
LINE
8
BLACK
6
CONTINUOUS
10
177.9749999999999943
20
-34.6000000000000014
11
177.9749999999999943
21
-21.5500000000000007
0
LINE
8
BLACK
6
CONTINUOUS
10
163.9249999999999829
20
-21.5500000000000007
11
163.9249999999999829
21
-34.6000000000000014
0
ARC
8
BLACK
10
183.4749999999999943
20
-34.6000000000000014
40
0.5
50
-180.00000000
51
-90.00000000
0
ARC
8
BLACK
10
196.5249999999999773
20
-34.6000000000000014
40
0.5
50
-90.00000000
51
-0.00000000
0
ARC
8
BLACK
10
196.5249999999999773
20
-21.5500000000000007
40
0.5
50
0.00000000
51
90.00000000
0
ARC
8
BLACK
10
183.4749999999999943
20
-21.5500000000000007
40
0.5
50
90.00000000
51
180.00000000
0
LINE
8
BLACK
6
CONTINUOUS
10
183.4749999999999943
20
-35.1000000000000014
11
196.5249999999999773
21
-35.1000000000000014
0
LINE
8
BLACK
6
CONTINUOUS
10
196.5249999999999773
20
-21.0500000000000007
11
183.4749999999999943
21
-21.0500000000000007
0
LINE
8
BLACK
6
CONTINUOUS
10
197.0249999999999773
20
-34.6000000000000014
11
197.0249999999999773
21
-21.5500000000000007
0
LINE
8
BLACK
6
CONTINUOUS
10
182.9749999999999943
20
-21.5500000000000007
11
182.9749999999999943
21
-34.6000000000000014
0
ARC
8
BLACK
10
202.5249999999999773
20
-34.6000000000000014
40
0.5
50
-180.00000000
51
-90.00000000
0
ARC
8
BLACK
10
215.5749999999999886
20
-34.6000000000000014
40
0.5
50
-90.00000000
51
-0.00000000
0
ARC
8
BLACK
10
215.5749999999999886
20
-21.5500000000000007
40
0.5
50
0.00000000
51
90.00000000
0
ARC
8
BLACK
10
202.5249999999999773
20
-21.5500000000000007
40
0.5
50
90.00000000
51
180.00000000
0
LINE
8
BLACK
6
CONTINUOUS
10
202.5249999999999773
20
-35.1000000000000014
11
215.5749999999999886
21
-35.1000000000000014
0
LINE
8
BLACK
6
CONTINUOUS
10
215.5749999999999886
20
-21.0500000000000007
11
202.5249999999999773
21
-21.0500000000000007
0
LINE
8
BLACK
6
CONTINUOUS
10
216.0749999999999886
20
-34.6000000000000014
11
216.0749999999999886
21
-21.5500000000000007
0
LINE
8
BLACK
6
CONTINUOUS
10
202.0249999999999773
20
-21.5500000000000007
11
202.0249999999999773
21
-34.6000000000000014
0
ARC
8
BLACK
10
221.5749999999999886
20
-34.6000000000000014
40
0.5
50
-180.00000000
51
-90.00000000
0
ARC
8
BLACK
10
234.625
20
-34.6000000000000014
40
0.5
50
-90.00000000
51
-0.00000000
0
ARC
8
BLACK
10
234.625
20
-21.5500000000000007
40
0.5
50
0.00000000
51
90.00000000
0
ARC
8
BLACK
10
221.5749999999999886
20
-21.5500000000000007
40
0.5
50
90.00000000
51
180.00000000
0
LINE
8
BLACK
6
CONTINUOUS
10
221.5749999999999886
20
-35.1000000000000014
11
234.625
21
-35.1000000000000014
0
LINE
8
BLACK
6
CONTINUOUS
10
234.625
20
-21.0500000000000007
11
221.5749999999999886
21
-21.0500000000000007
0
LINE
8
BLACK
6
CONTINUOUS
10
235.125
20
-34.6000000000000014
11
235.125
21
-21.5500000000000007
0
LINE
8
BLACK
6
CONTINUOUS
10
221.0749999999999886
20
-21.5500000000000007
11
221.0749999999999886
21
-34.6000000000000014
0
ARC
8
BLACK
10
35.8374999999999986
20
-53.6499999999999986
40
0.5
50
-180.00000000
51
-90.00000000
0
ARC
8
BLACK
10
48.8874999999999957
20
-53.6499999999999986
40
0.5
50
-90.00000000
51
-0.00000000
0
ARC
8
BLACK
10
48.8874999999999957
20
-40.6000000000000014
40
0.5
50
0.00000000
51
90.00000000
0
ARC
8
BLACK
10
35.8374999999999986
20
-40.6000000000000014
40
0.5
50
90.00000000
51
180.00000000
0
LINE
8
BLACK
6
CONTINUOUS
10
35.8374999999999986
20
-54.1499999999999986
11
48.8874999999999957
21
-54.1499999999999986
0
LINE
8
BLACK
6
CONTINUOUS
10
48.8874999999999957
20
-40.1000000000000014
11
35.8374999999999986
21
-40.1000000000000014
0
LINE
8
BLACK
6
CONTINUOUS
10
49.3874999999999957
20
-53.6499999999999986
11
49.3874999999999957
21
-40.6000000000000014
0
LINE
8
BLACK
6
CONTINUOUS
10
35.3374999999999986
20
-40.6000000000000014
11
35.3374999999999986
21
-53.6499999999999986
0
ARC
8
BLACK
10
54.8874999999999957
20
-53.6499999999999986
40
0.5
50
-180.00000000
51
-90.00000000
0
ARC
8
BLACK
10
67.9375
20
-53.6499999999999986
40
0.5
50
-90.00000000
51
-0.00000000
0
ARC
8
BLACK
10
67.9375
20
-40.6000000000000014
40
0.5
50
0.00000000
51
90.00000000
0
ARC
8
BLACK
10
54.8874999999999957
20
-40.6000000000000014
40
0.5
50
90.00000000
51
180.00000000
0
LINE
8
BLACK
6
CONTINUOUS
10
54.8874999999999957
20
-54.1499999999999986
11
67.9375
21
-54.1499999999999986
0
LINE
8
BLACK
6
CONTINUOUS
10
67.9375
20
-40.1000000000000014
11
54.8874999999999957
21
-40.1000000000000014
0
LINE
8
BLACK
6
CONTINUOUS
10
68.4375
20
-53.6499999999999986
11
68.4375
21
-40.6000000000000014
0
LINE
8
BLACK
6
CONTINUOUS
10
54.3874999999999957
20
-40.6000000000000014
11
54.3874999999999957
21
-53.6499999999999986
0
ARC
8
BLACK
10
73.9375
20
-53.6499999999999986
40
0.5
50
-180.00000000
51
-90.00000000
0
ARC
8
BLACK
10
86.9874999999999972
20
-53.6499999999999986
40
0.5
50
-90.00000000
51
-0.00000000
0
ARC
8
BLACK
10
86.9874999999999972
20
-40.6000000000000014
40
0.5
50
0.00000000
51
90.00000000
0
ARC
8
BLACK
10
73.9375
20
-40.6000000000000014
40
0.5
50
90.00000000
51
180.00000000
0
LINE
8
BLACK
6
CONTINUOUS
10
73.9375
20
-54.1499999999999986
11
86.9874999999999972
21
-54.1499999999999986
0
LINE
8
BLACK
6
CONTINUOUS
10
86.9874999999999972
20
-40.1000000000000014
11
73.9375
21
-40.1000000000000014
0
LINE
8
BLACK
6
CONTINUOUS
10
87.4874999999999972
20
-53.6499999999999986
11
87.4874999999999972
21
-40.6000000000000014
0
LINE
8
BLACK
6
CONTINUOUS
10
73.4375
20
-40.6000000000000014
11
73.4375
21
-53.6499999999999986
0
ARC
8
BLACK
10
92.9874999999999972
20
-53.6499999999999986
40
0.5
50
-180.00000000
51
-90.00000000
0
ARC
8
BLACK
10
106.0374999999999943
20
-53.6499999999999986
40
0.5
50
-90.00000000
51
-0.00000000
0
ARC
8
BLACK
10
106.0374999999999943
20
-40.6000000000000014
40
0.5
50
0.00000000
51
90.00000000
0
ARC
8
BLACK
10
92.9874999999999972
20
-40.6000000000000014
40
0.5
50
90.00000000
51
180.00000000
0
LINE
8
BLACK
6
CONTINUOUS
10
92.9874999999999972
20
-54.1499999999999986
11
106.0374999999999943
21
-54.1499999999999986
0
LINE
8
BLACK
6
CONTINUOUS
10
106.0374999999999943
20
-40.1000000000000014
11
92.9874999999999972
21
-40.1000000000000014
0
LINE
8
BLACK
6
CONTINUOUS
10
106.5374999999999943
20
-53.6499999999999986
11
106.5374999999999943
21
-40.6000000000000014
0
LINE
8
BLACK
6
CONTINUOUS
10
92.4874999999999972
20
-40.6000000000000014
11
92.4874999999999972
21
-53.6499999999999986
0
ARC
8
BLACK
10
112.0374999999999943
20
-53.6499999999999986
40
0.5
50
-180.00000000
51
-90.00000000
0
ARC
8
BLACK
10
125.0874999999999915
20
-53.6499999999999986
40
0.5
50
-90.00000000
51
-0.00000000
0
ARC
8
BLACK
10
125.0874999999999915
20
-40.6000000000000014
40
0.5
50
0.00000000
51
90.00000000
0
ARC
8
BLACK
10
112.0374999999999943
20
-40.6000000000000014
40
0.5
50
90.00000000
51
180.00000000
0
LINE
8
BLACK
6
CONTINUOUS
10
112.0374999999999943
20
-54.1499999999999986
11
125.0874999999999915
21
-54.1499999999999986
0
LINE
8
BLACK
6
CONTINUOUS
10
125.0874999999999915
20
-40.1000000000000014
11
112.0374999999999943
21
-40.1000000000000014
0
LINE
8
BLACK
6
CONTINUOUS
10
125.5874999999999915
20
-53.6499999999999986
11
125.5874999999999915
21
-40.6000000000000014
0
LINE
8
BLACK
6
CONTINUOUS
10
111.5374999999999943
20
-40.6000000000000014
11
111.5374999999999943
21
-53.6499999999999986
0
ARC
8
BLACK
10
131.0875000000000057
20
-53.6499999999999986
40
0.5
50
-180.00000000
51
-90.00000000
0
ARC
8
BLACK
10
144.1374999999999886
20
-53.6499999999999986
40
0.5
50
-90.00000000
51
-0.00000000
0
ARC
8
BLACK
10
144.1374999999999886
20
-40.6000000000000014
40
0.5
50
0.00000000
51
90.00000000
0
ARC
8
BLACK
10
131.0875000000000057
20
-40.6000000000000014
40
0.5
50
90.00000000
51
180.00000000
0
LINE
8
BLACK
6
CONTINUOUS
10
131.0875000000000057
20
-54.1499999999999986
11
144.1374999999999886
21
-54.1499999999999986
0
LINE
8
BLACK
6
CONTINUOUS
10
144.1374999999999886
20
-40.1000000000000014
11
131.0875000000000057
21
-40.1000000000000014
0
LINE
8
BLACK
6
CONTINUOUS
10
144.6374999999999886
20
-53.6499999999999986
11
144.6374999999999886
21
-40.6000000000000014
0
LINE
8
BLACK
6
CONTINUOUS
10
130.5875000000000057
20
-40.6000000000000014
11
130.5875000000000057
21
-53.6499999999999986
0
ARC
8
BLACK
10
150.1374999999999886
20
-53.6499999999999986
40
0.5
50
-180.00000000
51
-90.00000000
0
ARC
8
BLACK
10
163.1875
20
-53.6499999999999986
40
0.5
50
-90.00000000
51
-0.00000000
0
ARC
8
BLACK
10
163.1875
20
-40.6000000000000014
40
0.5
50
0.00000000
51
90.00000000
0
ARC
8
BLACK
10
150.1374999999999886
20
-40.6000000000000014
40
0.5
50
90.00000000
51
180.00000000
0
LINE
8
BLACK
6
CONTINUOUS
10
150.1374999999999886
20
-54.1499999999999986
11
163.1875
21
-54.1499999999999986
0
LINE
8
BLACK
6
CONTINUOUS
10
163.1875
20
-40.1000000000000014
11
150.1374999999999886
21
-40.1000000000000014
0
LINE
8
BLACK
6
CONTINUOUS
10
163.6875
20
-53.6499999999999986
11
163.6875
21
-40.6000000000000014
0
LINE
8
BLACK
6
CONTINUOUS
10
149.6374999999999886
20
-40.6000000000000014
11
149.6374999999999886
21
-53.6499999999999986
0
ARC
8
BLACK
10
169.1875
20
-53.6499999999999986
40
0.5
50
-180.00000000
51
-90.00000000
0
ARC
8
BLACK
10
182.2374999999999829
20
-53.6499999999999986
40
0.5
50
-90.00000000
51
-0.00000000
0
ARC
8
BLACK
10
182.2374999999999829
20
-40.6000000000000014
40
0.5
50
0.00000000
51
90.00000000
0
ARC
8
BLACK
10
169.1875
20
-40.6000000000000014
40
0.5
50
90.00000000
51
180.00000000
0
LINE
8
BLACK
6
CONTINUOUS
10
169.1875
20
-54.1499999999999986
11
182.2374999999999829
21
-54.1499999999999986
0
LINE
8
BLACK
6
CONTINUOUS
10
182.2374999999999829
20
-40.1000000000000014
11
169.1875
21
-40.1000000000000014
0
LINE
8
BLACK
6
CONTINUOUS
10
182.7374999999999829
20
-53.6499999999999986
11
182.7374999999999829
21
-40.6000000000000014
0
LINE
8
BLACK
6
CONTINUOUS
10
168.6875
20
-40.6000000000000014
11
168.6875
21
-53.6499999999999986
0
ARC
8
BLACK
10
188.2374999999999829
20
-53.6499999999999986
40
0.5
50
-180.00000000
51
-90.00000000
0
ARC
8
BLACK
10
201.2874999999999943
20
-53.6499999999999986
40
0.5
50
-90.00000000
51
-0.00000000
0
ARC
8
BLACK
10
201.2874999999999943
20
-40.6000000000000014
40
0.5
50
0.00000000
51
90.00000000
0
ARC
8
BLACK
10
188.2374999999999829
20
-40.6000000000000014
40
0.5
50
90.00000000
51
180.00000000
0
LINE
8
BLACK
6
CONTINUOUS
10
188.2374999999999829
20
-54.1499999999999986
11
201.2874999999999943
21
-54.1499999999999986
0
LINE
8
BLACK
6
CONTINUOUS
10
201.2874999999999943
20
-40.1000000000000014
11
188.2374999999999829
21
-40.1000000000000014
0
LINE
8
BLACK
6
CONTINUOUS
10
201.7874999999999943
20
-53.6499999999999986
11
201.7874999999999943
21
-40.6000000000000014
0
LINE
8
BLACK
6
CONTINUOUS
10
187.7374999999999829
20
-40.6000000000000014
11
187.7374999999999829
21
-53.6499999999999986
0
ARC
8
BLACK
10
207.2874999999999943
20
-53.6499999999999986
40
0.5
50
-180.00000000
51
-90.00000000
0
ARC
8
BLACK
10
220.3374999999999773
20
-53.6499999999999986
40
0.5
50
-90.00000000
51
-0.00000000
0
ARC
8
BLACK
10
220.3374999999999773
20
-40.6000000000000014
40
0.5
50
0.00000000
51
90.00000000
0
ARC
8
BLACK
10
207.2874999999999943
20
-40.6000000000000014
40
0.5
50
90.00000000
51
180.00000000
0
LINE
8
BLACK
6
CONTINUOUS
10
207.2874999999999943
20
-54.1499999999999986
11
220.3374999999999773
21
-54.1499999999999986
0
LINE
8
BLACK
6
CONTINUOUS
10
220.3374999999999773
20
-40.1000000000000014
11
207.2874999999999943
21
-40.1000000000000014
0
LINE
8
BLACK
6
CONTINUOUS
10
220.8374999999999773
20
-53.6499999999999986
11
220.8374999999999773
21
-40.6000000000000014
0
LINE
8
BLACK
6
CONTINUOUS
10
206.7874999999999943
20
-40.6000000000000014
11
206.7874999999999943
21
-53.6499999999999986
0
ARC
8
BLACK
10
226.3374999999999773
20
-53.6499999999999986
40
0.5
50
-180.00000000
51
-90.00000000
0
ARC
8
BLACK
10
239.3874999999999886
20
-53.6499999999999986
40
0.5
50
-90.00000000
51
-0.00000000
0
ARC
8
BLACK
10
239.3874999999999886
20
-40.6000000000000014
40
0.5
50
0.00000000
51
90.00000000
0
ARC
8
BLACK
10
226.3374999999999773
20
-40.6000000000000014
40
0.5
50
90.00000000
51
180.00000000
0
LINE
8
BLACK
6
CONTINUOUS
10
226.3374999999999773
20
-54.1499999999999986
11
239.3874999999999886
21
-54.1499999999999986
0
LINE
8
BLACK
6
CONTINUOUS
10
239.3874999999999886
20
-40.1000000000000014
11
226.3374999999999773
21
-40.1000000000000014
0
LINE
8
BLACK
6
CONTINUOUS
10
239.8874999999999886
20
-53.6499999999999986
11
239.8874999999999886
21
-40.6000000000000014
0
LINE
8
BLACK
6
CONTINUOUS
10
225.8374999999999773
20
-40.6000000000000014
11
225.8374999999999773
21
-53.6499999999999986
0
ARC
8
BLACK
10
257.2939000000000078
20
-53.649799999999999
40
0.5002
50
-179.19803748
51
-90.00000000
0
ARC
8
BLACK
10
270.3437999999999874
20
-53.6499999999999986
40
0.4999499999999999
50
-90.00573015
51
-0.00000000
0
ARC
8
BLACK
10
270.3435999999999808
20
-40.600200000000001
40
0.5002
50
0.81009448
51
90.00000000
0
ARC
8
BLACK
10
257.2937000000000012
20
-40.6000000000000014
40
0.4999499999999999
50
89.99426985
51
180.00000000
0
LINE
8
BLACK
6
CONTINUOUS
10
257.2939000000000078
20
-54.1499999999999986
11
270.34375
21
-54.1499999999999986
0
LINE
8
BLACK
6
CONTINUOUS
10
270.3435999999999808
20
-40.1000000000000014
11
257.2937499999999886
21
-40.1000000000000014
0
LINE
8
BLACK
6
CONTINUOUS
10
270.84375
20
-53.6499999999999986
11
270.84375
21
-40.5931280000000001
0
LINE
8
BLACK
6
CONTINUOUS
10
256.7937499999999886
20
-40.6000000000000014
11
256.7937499999999886
21
-53.6568009999999944
0
ARC
8
BLACK
10
248.8808999999999969
20
-54.6248000000000005
40
0.5002
50
-179.19803748
51
-90.00000000
0
ARC
8
BLACK
10
254.8807999999999936
20
-54.625
40
0.4999499999999999
50
-90.00573015
51
-0.00000000
0
ARC
8
BLACK
10
254.8805999999999869
20
-40.6251999999999995
40
0.5002
50
0.81009448
51
90.00000000
0
ARC
8
BLACK
10
248.8806999999999903
20
-40.625
40
0.4999499999999999
50
89.99426985
51
180.00000000
0
LINE
8
BLACK
6
CONTINUOUS
10
248.8808999999999969
20
-55.125
11
254.8807499999999777
21
-55.125
0
LINE
8
BLACK
6
CONTINUOUS
10
254.8805999999999869
20
-40.125
11
248.8807499999999777
21
-40.125
0
LINE
8
BLACK
6
CONTINUOUS
10
255.3807499999999777
20
-54.625
11
255.3807499999999777
21
-40.6181279999999987
0
LINE
8
BLACK
6
CONTINUOUS
10
248.3807499999999777
20
-40.625
11
248.3807499999999777
21
-54.6318009999999958
0
ARC
8
BLACK
10
272.7568999999999733
20
-54.6248000000000005
40
0.5002
50
-179.19803748
51
-90.00000000
0
ARC
8
BLACK
10
278.7567999999999984
20
-54.625
40
0.4999499999999999
50
-90.00573015
51
-0.00000000
0
ARC
8
BLACK
10
278.7565999999999917
20
-40.6251999999999995
40
0.5002
50
0.81009448
51
90.00000000
0
ARC
8
BLACK
10
272.7566999999999666
20
-40.625
40
0.4999499999999999
50
89.99426985
51
180.00000000
0
LINE
8
BLACK
6
CONTINUOUS
10
272.7568999999999733
20
-55.125
11
278.7567500000000109
21
-55.125
0
LINE
8
BLACK
6
CONTINUOUS
10
278.7565999999999917
20
-40.125
11
272.7567500000000109
21
-40.125
0
LINE
8
BLACK
6
CONTINUOUS
10
279.2567500000000109
20
-54.625
11
279.2567500000000109
21
-40.6181279999999987
0
LINE
8
BLACK
6
CONTINUOUS
10
272.2567500000000109
20
-40.625
11
272.2567500000000109
21
-54.6318009999999958
0
ARC
8
BLACK
10
14.4063999999999997
20
-72.6997999999999962
40
0.5002
50
-179.19803748
51
-90.00000000
0
ARC
8
BLACK
10
27.4562999999999988
20
-72.7000000000000028
40
0.4999499999999999
50
-90.00573015
51
-0.00000000
0
ARC
8
BLACK
10
27.4560999999999993
20
-59.6501999999999981
40
0.5002
50
0.81009448
51
90.00000000
0
ARC
8
BLACK
10
14.4062000000000001
20
-59.6499999999999986
40
0.4999499999999999
50
89.99426985
51
180.00000000
0
LINE
8
BLACK
6
CONTINUOUS
10
14.4063999999999997
20
-73.2000000000000028
11
27.4562499999999972
21
-73.2000000000000028
0
LINE
8
BLACK
6
CONTINUOUS
10
27.4560999999999993
20
-59.1499999999999986
11
14.40625
21
-59.1499999999999986
0
LINE
8
BLACK
6
CONTINUOUS
10
27.9562499999999972
20
-72.7000000000000028
11
27.9562499999999972
21
-59.6431279999999973
0
LINE
8
BLACK
6
CONTINUOUS
10
13.90625
20
-59.6499999999999986
11
13.90625
21
-72.7068009999999987
0
ARC
8
BLACK
10
5.9932499999999997
20
-73.6749999999999972
40
0.5
50
-180.00000000
51
-90.00000000
0
ARC
8
BLACK
10
11.9932099999999995
20
-73.6749599999999987
40
0.5000399999999999
50
-90.00000000
51
-0.00000000
0
ARC
8
BLACK
10
11.9931000000000001
20
-59.6751999999999967
40
0.5002
50
0.81009448
51
90.00000000
0
ARC
8
BLACK
10
5.9932499999999997
20
-59.6749999999999972
40
0.5
50
90.00000000
51
180.00000000
0
LINE
8
BLACK
6
CONTINUOUS
10
5.9932499999999997
20
-74.1749999999999972
11
11.9932099999999995
21
-74.1749999999999972
0
LINE
8
BLACK
6
CONTINUOUS
10
11.9931000000000001
20
-59.1749999999999972
11
5.9932499999999997
21
-59.1749999999999972
0
LINE
8
BLACK
6
CONTINUOUS
10
12.4932499999999997
20
-73.6749599999999987
11
12.4932499999999997
21
-59.6681279999999958
0
LINE
8
BLACK
6
CONTINUOUS
10
5.4932499999999997
20
-59.6749999999999972
11
5.4932499999999997
21
-73.6749999999999972
0
ARC
8
BLACK
10
29.8693999999999988
20
-73.6747999999999905
40
0.5002
50
-179.19803748
51
-90.00000000
0
ARC
8
BLACK
10
35.8692999999999955
20
-73.6749999999999972
40
0.4999499999999999
50
-90.00573015
51
-0.00000000
0
ARC
8
BLACK
10
35.869099999999996
20
-59.6751999999999967
40
0.5002
50
0.81009448
51
90.00000000
0
ARC
8
BLACK
10
29.8691999999999993
20
-59.6749999999999972
40
0.4999499999999999
50
89.99426985
51
180.00000000
0
LINE
8
BLACK
6
CONTINUOUS
10
29.8693999999999988
20
-74.1749999999999972
11
35.869250000000001
21
-74.1749999999999972
0
LINE
8
BLACK
6
CONTINUOUS
10
35.869099999999996
20
-59.1749999999999972
11
29.8692499999999974
21
-59.1749999999999972
0
LINE
8
BLACK
6
CONTINUOUS
10
36.369250000000001
20
-73.6749999999999972
11
36.369250000000001
21
-59.6681279999999958
0
LINE
8
BLACK
6
CONTINUOUS
10
29.3692499999999974
20
-59.6749999999999972
11
29.3692499999999974
21
-73.681800999999993
0
ARC
8
BLACK
10
45.3624999999999972
20
-72.7000000000000028
40
0.5
50
-180.00000000
51
-90.00000000
0
ARC
8
BLACK
10
58.4124999999999943
20
-72.7000000000000028
40
0.5
50
-90.00000000
51
-0.00000000
0
ARC
8
BLACK
10
58.4124999999999943
20
-59.6499999999999986
40
0.5
50
0.00000000
51
90.00000000
0
ARC
8
BLACK
10
45.3624999999999972
20
-59.6499999999999986
40
0.5
50
90.00000000
51
180.00000000
0
LINE
8
BLACK
6
CONTINUOUS
10
45.3624999999999972
20
-73.2000000000000028
11
58.4124999999999943
21
-73.2000000000000028
0
LINE
8
BLACK
6
CONTINUOUS
10
58.4124999999999943
20
-59.1499999999999986
11
45.3624999999999972
21
-59.1499999999999986
0
LINE
8
BLACK
6
CONTINUOUS
10
58.9124999999999943
20
-72.7000000000000028
11
58.9124999999999943
21
-59.6499999999999986
0
LINE
8
BLACK
6
CONTINUOUS
10
44.8624999999999972
20
-59.6499999999999986
11
44.8624999999999972
21
-72.7000000000000028
0
ARC
8
BLACK
10
64.4124999999999943
20
-72.7000000000000028
40
0.5
50
-180.00000000
51
-90.00000000
0
ARC
8
BLACK
10
77.4624999999999915
20
-72.7000000000000028
40
0.5
50
-90.00000000
51
-0.00000000
0
ARC
8
BLACK
10
77.4624999999999915
20
-59.6499999999999986
40
0.5
50
0.00000000
51
90.00000000
0
ARC
8
BLACK
10
64.4124999999999943
20
-59.6499999999999986
40
0.5
50
90.00000000
51
180.00000000
0
LINE
8
BLACK
6
CONTINUOUS
10
64.4124999999999943
20
-73.2000000000000028
11
77.4624999999999915
21
-73.2000000000000028
0
LINE
8
BLACK
6
CONTINUOUS
10
77.4624999999999915
20
-59.1499999999999986
11
64.4124999999999943
21
-59.1499999999999986
0
LINE
8
BLACK
6
CONTINUOUS
10
77.9624999999999915
20
-72.7000000000000028
11
77.9624999999999915
21
-59.6499999999999986
0
LINE
8
BLACK
6
CONTINUOUS
10
63.9124999999999943
20
-59.6499999999999986
11
63.9124999999999943
21
-72.7000000000000028
0
ARC
8
BLACK
10
83.4624999999999915
20
-72.7000000000000028
40
0.5
50
-180.00000000
51
-90.00000000
0
ARC
8
BLACK
10
96.5124999999999886
20
-72.7000000000000028
40
0.5
50
-90.00000000
51
-0.00000000
0
ARC
8
BLACK
10
96.5124999999999886
20
-59.6499999999999986
40
0.5
50
0.00000000
51
90.00000000
0
ARC
8
BLACK
10
83.4624999999999915
20
-59.6499999999999986
40
0.5
50
90.00000000
51
180.00000000
0
LINE
8
BLACK
6
CONTINUOUS
10
83.4624999999999915
20
-73.2000000000000028
11
96.5124999999999886
21
-73.2000000000000028
0
LINE
8
BLACK
6
CONTINUOUS
10
96.5124999999999886
20
-59.1499999999999986
11
83.4624999999999915
21
-59.1499999999999986
0
LINE
8
BLACK
6
CONTINUOUS
10
97.0124999999999886
20
-72.7000000000000028
11
97.0124999999999886
21
-59.6499999999999986
0
LINE
8
BLACK
6
CONTINUOUS
10
82.9624999999999915
20
-59.6499999999999986
11
82.9624999999999915
21
-72.7000000000000028
0
ARC
8
BLACK
10
102.5124999999999886
20
-72.7000000000000028
40
0.5
50
-180.00000000
51
-90.00000000
0
ARC
8
BLACK
10
115.5625
20
-72.7000000000000028
40
0.5
50
-90.00000000
51
-0.00000000
0
ARC
8
BLACK
10
115.5625
20
-59.6499999999999986
40
0.5
50
0.00000000
51
90.00000000
0
ARC
8
BLACK
10
102.5124999999999886
20
-59.6499999999999986
40
0.5
50
90.00000000
51
180.00000000
0
LINE
8
BLACK
6
CONTINUOUS
10
102.5124999999999886
20
-73.2000000000000028
11
115.5625
21
-73.2000000000000028
0
LINE
8
BLACK
6
CONTINUOUS
10
115.5625
20
-59.1499999999999986
11
102.5124999999999886
21
-59.1499999999999986
0
LINE
8
BLACK
6
CONTINUOUS
10
116.0625
20
-72.7000000000000028
11
116.0625
21
-59.6499999999999986
0
LINE
8
BLACK
6
CONTINUOUS
10
102.0124999999999886
20
-59.6499999999999986
11
102.0124999999999886
21
-72.7000000000000028
0
ARC
8
BLACK
10
121.5625
20
-72.7000000000000028
40
0.5
50
-180.00000000
51
-90.00000000
0
ARC
8
BLACK
10
134.6124999999999829
20
-72.7000000000000028
40
0.5
50
-90.00000000
51
-0.00000000
0
ARC
8
BLACK
10
134.6124999999999829
20
-59.6499999999999986
40
0.5
50
0.00000000
51
90.00000000
0
ARC
8
BLACK
10
121.5625
20
-59.6499999999999986
40
0.5
50
90.00000000
51
180.00000000
0
LINE
8
BLACK
6
CONTINUOUS
10
121.5625
20
-73.2000000000000028
11
134.6124999999999829
21
-73.2000000000000028
0
LINE
8
BLACK
6
CONTINUOUS
10
134.6124999999999829
20
-59.1499999999999986
11
121.5625
21
-59.1499999999999986
0
LINE
8
BLACK
6
CONTINUOUS
10
135.1124999999999829
20
-72.7000000000000028
11
135.1124999999999829
21
-59.6499999999999986
0
LINE
8
BLACK
6
CONTINUOUS
10
121.0625
20
-59.6499999999999986
11
121.0625
21
-72.7000000000000028
0
ARC
8
BLACK
10
140.6124999999999829
20
-72.7000000000000028
40
0.5
50
-180.00000000
51
-90.00000000
0
ARC
8
BLACK
10
153.6624999999999943
20
-72.7000000000000028
40
0.5
50
-90.00000000
51
-0.00000000
0
ARC
8
BLACK
10
153.6624999999999943
20
-59.6499999999999986
40
0.5
50
0.00000000
51
90.00000000
0
ARC
8
BLACK
10
140.6124999999999829
20
-59.6499999999999986
40
0.5
50
90.00000000
51
180.00000000
0
LINE
8
BLACK
6
CONTINUOUS
10
140.6124999999999829
20
-73.2000000000000028
11
153.6624999999999943
21
-73.2000000000000028
0
LINE
8
BLACK
6
CONTINUOUS
10
153.6624999999999943
20
-59.1499999999999986
11
140.6124999999999829
21
-59.1499999999999986
0
LINE
8
BLACK
6
CONTINUOUS
10
154.1624999999999943
20
-72.7000000000000028
11
154.1624999999999943
21
-59.6499999999999986
0
LINE
8
BLACK
6
CONTINUOUS
10
140.1124999999999829
20
-59.6499999999999986
11
140.1124999999999829
21
-72.7000000000000028
0
ARC
8
BLACK
10
159.6624999999999943
20
-72.7000000000000028
40
0.5
50
-180.00000000
51
-90.00000000
0
ARC
8
BLACK
10
172.7125000000000057
20
-72.7000000000000028
40
0.5
50
-90.00000000
51
-0.00000000
0
ARC
8
BLACK
10
172.7125000000000057
20
-59.6499999999999986
40
0.5
50
0.00000000
51
90.00000000
0
ARC
8
BLACK
10
159.6624999999999943
20
-59.6499999999999986
40
0.5
50
90.00000000
51
180.00000000
0
LINE
8
BLACK
6
CONTINUOUS
10
159.6624999999999943
20
-73.2000000000000028
11
172.7125000000000057
21
-73.2000000000000028
0
LINE
8
BLACK
6
CONTINUOUS
10
172.7125000000000057
20
-59.1499999999999986
11
159.6624999999999943
21
-59.1499999999999986
0
LINE
8
BLACK
6
CONTINUOUS
10
173.2125000000000057
20
-72.7000000000000028
11
173.2125000000000057
21
-59.6499999999999986
0
LINE
8
BLACK
6
CONTINUOUS
10
159.1624999999999943
20
-59.6499999999999986
11
159.1624999999999943
21
-72.7000000000000028
0
ARC
8
BLACK
10
178.7125000000000057
20
-72.7000000000000028
40
0.5
50
-180.00000000
51
-90.00000000
0
ARC
8
BLACK
10
191.7624999999999886
20
-72.7000000000000028
40
0.5
50
-90.00000000
51
-0.00000000
0
ARC
8
BLACK
10
191.7624999999999886
20
-59.6499999999999986
40
0.5
50
0.00000000
51
90.00000000
0
ARC
8
BLACK
10
178.7125000000000057
20
-59.6499999999999986
40
0.5
50
90.00000000
51
180.00000000
0
LINE
8
BLACK
6
CONTINUOUS
10
178.7125000000000057
20
-73.2000000000000028
11
191.7624999999999886
21
-73.2000000000000028
0
LINE
8
BLACK
6
CONTINUOUS
10
191.7624999999999886
20
-59.1499999999999986
11
178.7125000000000057
21
-59.1499999999999986
0
LINE
8
BLACK
6
CONTINUOUS
10
192.2624999999999886
20
-72.7000000000000028
11
192.2624999999999886
21
-59.6499999999999986
0
LINE
8
BLACK
6
CONTINUOUS
10
178.2125000000000057
20
-59.6499999999999986
11
178.2125000000000057
21
-72.7000000000000028
0
ARC
8
BLACK
10
197.7624999999999886
20
-72.7000000000000028
40
0.5
50
-180.00000000
51
-90.00000000
0
ARC
8
BLACK
10
210.8125
20
-72.7000000000000028
40
0.5
50
-90.00000000
51
-0.00000000
0
ARC
8
BLACK
10
210.8125
20
-59.6499999999999986
40
0.5
50
0.00000000
51
90.00000000
0
ARC
8
BLACK
10
197.7624999999999886
20
-59.6499999999999986
40
0.5
50
90.00000000
51
180.00000000
0
LINE
8
BLACK
6
CONTINUOUS
10
197.7624999999999886
20
-73.2000000000000028
11
210.8125
21
-73.2000000000000028
0
LINE
8
BLACK
6
CONTINUOUS
10
210.8125
20
-59.1499999999999986
11
197.7624999999999886
21
-59.1499999999999986
0
LINE
8
BLACK
6
CONTINUOUS
10
211.3125
20
-72.7000000000000028
11
211.3125
21
-59.6499999999999986
0
LINE
8
BLACK
6
CONTINUOUS
10
197.2624999999999886
20
-59.6499999999999986
11
197.2624999999999886
21
-72.7000000000000028
0
ARC
8
BLACK
10
216.8125
20
-72.7000000000000028
40
0.5
50
-180.00000000
51
-90.00000000
0
ARC
8
BLACK
10
229.8624999999999829
20
-72.7000000000000028
40
0.5
50
-90.00000000
51
-0.00000000
0
ARC
8
BLACK
10
229.8624999999999829
20
-59.6499999999999986
40
0.5
50
0.00000000
51
90.00000000
0
ARC
8
BLACK
10
216.8125
20
-59.6499999999999986
40
0.5
50
90.00000000
51
180.00000000
0
LINE
8
BLACK
6
CONTINUOUS
10
216.8125
20
-73.2000000000000028
11
229.8624999999999829
21
-73.2000000000000028
0
LINE
8
BLACK
6
CONTINUOUS
10
229.8624999999999829
20
-59.1499999999999986
11
216.8125
21
-59.1499999999999986
0
LINE
8
BLACK
6
CONTINUOUS
10
230.3624999999999829
20
-72.7000000000000028
11
230.3624999999999829
21
-59.6499999999999986
0
LINE
8
BLACK
6
CONTINUOUS
10
216.3125
20
-59.6499999999999986
11
216.3125
21
-72.7000000000000028
0
ARC
8
BLACK
10
243.0063999999999851
20
-72.6997999999999962
40
0.5002
50
-179.19803748
51
-90.00000000
0
ARC
8
BLACK
10
256.0562999999999647
20
-72.7000000000000028
40
0.4999499999999999
50
-90.00573015
51
-0.00000000
0
ARC
8
BLACK
10
256.0561000000000149
20
-59.6501999999999981
40
0.5002
50
0.81009448
51
90.00000000
0
ARC
8
BLACK
10
243.0061999999999784
20
-59.6499999999999986
40
0.4999499999999999
50
89.99426985
51
180.00000000
0
LINE
8
BLACK
6
CONTINUOUS
10
243.0063999999999851
20
-73.2000000000000028
11
256.0562499999999773
21
-73.2000000000000028
0
LINE
8
BLACK
6
CONTINUOUS
10
256.0561000000000149
20
-59.1499999999999986
11
243.0062499999999943
21
-59.1499999999999986
0
LINE
8
BLACK
6
CONTINUOUS
10
256.5562499999999773
20
-72.7000000000000028
11
256.5562499999999773
21
-59.6431279999999973
0
LINE
8
BLACK
6
CONTINUOUS
10
242.5062499999999943
20
-59.6499999999999986
11
242.5062499999999943
21
-72.7068009999999987
0
ARC
8
BLACK
10
269.1999999999999886
20
-72.7000000000000028
40
0.5
50
-180.00000000
51
-90.00000000
0
ARC
8
BLACK
10
282.25
20
-72.7000000000000028
40
0.5
50
-90.00000000
51
-0.00000000
0
ARC
8
BLACK
10
269.1999999999999886
20
-59.6499999999999986
40
0.5
50
90.00000000
51
180.00000000
0
LINE
8
BLACK
6
CONTINUOUS
10
269.1999999999999886
20
-73.2000000000000028
11
282.25
21
-73.2000000000000028
0
LINE
8
BLACK
6
CONTINUOUS
10
268.6999999999999886
20
-59.6499999999999986
11
268.6999999999999886
21
-72.7000000000000028
0
ARC
8
BLACK
10
7.2624999999999993
20
-91.75
40
0.5
50
-180.00000000
51
-90.00000000
0
ARC
8
BLACK
10
20.3125
20
-91.75
40
0.5
50
-90.00000000
51
-0.00000000
0
ARC
8
BLACK
10
20.3125
20
-78.7000000000000028
40
0.5
50
0.00000000
51
90.00000000
0
ARC
8
BLACK
10
7.2624999999999993
20
-78.7000000000000028
40
0.5
50
90.00000000
51
180.00000000
0
LINE
8
BLACK
6
CONTINUOUS
10
7.2624999999999993
20
-92.25
11
20.3125
21
-92.25
0
LINE
8
BLACK
6
CONTINUOUS
10
20.3125
20
-78.2000000000000028
11
7.2624999999999993
21
-78.2000000000000028
0
LINE
8
BLACK
6
CONTINUOUS
10
20.8125
20
-91.75
11
20.8125
21
-78.7000000000000028
0
LINE
8
BLACK
6
CONTINUOUS
10
6.7624999999999993
20
-78.7000000000000028
11
6.7624999999999993
21
-91.75
0
ARC
8
BLACK
10
31.0749999999999993
20
-91.75
40
0.5
50
-180.00000000
51
-90.00000000
0
ARC
8
BLACK
10
44.125
20
-91.75
40
0.5
50
-90.00000000
51
-0.00000000
0
ARC
8
BLACK
10
44.125
20
-78.7000000000000028
40
0.5
50
0.00000000
51
90.00000000
0
ARC
8
BLACK
10
31.0749999999999993
20
-78.7000000000000028
40
0.5
50
90.00000000
51
180.00000000
0
LINE
8
BLACK
6
CONTINUOUS
10
31.0749999999999993
20
-92.25
11
44.125
21
-92.25
0
LINE
8
BLACK
6
CONTINUOUS
10
44.125
20
-78.2000000000000028
11
31.0749999999999993
21
-78.2000000000000028
0
LINE
8
BLACK
6
CONTINUOUS
10
44.625
20
-91.75
11
44.625
21
-78.7000000000000028
0
LINE
8
BLACK
6
CONTINUOUS
10
30.5749999999999993
20
-78.7000000000000028
11
30.5749999999999993
21
-91.75
0
ARC
8
BLACK
10
54.8874999999999957
20
-91.75
40
0.5
50
-180.00000000
51
-90.00000000
0
ARC
8
BLACK
10
67.9375
20
-91.75
40
0.5
50
-90.00000000
51
-0.00000000
0
ARC
8
BLACK
10
67.9375
20
-78.7000000000000028
40
0.5
50
0.00000000
51
90.00000000
0
ARC
8
BLACK
10
54.8874999999999957
20
-78.7000000000000028
40
0.5
50
90.00000000
51
180.00000000
0
LINE
8
BLACK
6
CONTINUOUS
10
54.8874999999999957
20
-92.25
11
67.9375
21
-92.25
0
LINE
8
BLACK
6
CONTINUOUS
10
67.9375
20
-78.2000000000000028
11
54.8874999999999957
21
-78.2000000000000028
0
LINE
8
BLACK
6
CONTINUOUS
10
68.4375
20
-91.75
11
68.4375
21
-78.7000000000000028
0
LINE
8
BLACK
6
CONTINUOUS
10
54.3874999999999957
20
-78.7000000000000028
11
54.3874999999999957
21
-91.75
0
ARC
8
BLACK
10
135.8499999999999943
20
-91.75
40
0.5
50
-180.00000000
51
-90.00000000
0
ARC
8
BLACK
10
135.8499999999999943
20
-78.7000000000000028
40
0.5
50
90.00000000
51
180.00000000
0
LINE
8
BLACK
6
CONTINUOUS
10
135.8499999999999943
20
-92.25
11
154.8682499999999891
21
-92.25
0
LINE
8
BLACK
6
CONTINUOUS
10
148.3682499999999891
20
-78.2000000000000028
11
135.8499999999999943
21
-78.2000000000000028
0
LINE
8
BLACK
6
CONTINUOUS
10
135.3499999999999943
20
-78.7000000000000028
11
135.3499999999999943
21
-91.75
0
ARC
8
BLACK
10
82.2249999999999943
20
-77.7249999999999943
40
0.5
50
90.00000000
51
180.00000000
0
ARC
8
BLACK
10
88.2249999999999943
20
-77.7249999999999943
40
0.5
50
0.00000000
51
90.00000000
0
LINE
8
BLACK
6
CONTINUOUS
10
82.2249999999999943
20
-77.2249999999999943
11
88.2249999999999943
21
-77.2249999999999943
0
LINE
8
BLACK
6
CONTINUOUS
10
88.7249999999999943
20
-77.7249999999999943
11
88.7249999999999943
21
-78.2000000000000028
0
LINE
8
BLACK
6
CONTINUOUS
10
81.7249999999999943
20
-78.2000000000000028
11
81.7249999999999943
21
-77.7249999999999943
0
ARC
8
BLACK
10
196.5249999999999773
20
-77.7249999999999943
40
0.5
50
90.00000000
51
180.00000000
0
ARC
8
BLACK
10
202.5249999999999773
20
-77.7249999999999943
40
0.5
50
0.00000000
51
90.00000000
0
LINE
8
BLACK
6
CONTINUOUS
10
196.5249999999999773
20
-77.2249999999999943
11
202.5249999999999773
21
-77.2249999999999943
0
LINE
8
BLACK
6
CONTINUOUS
10
203.0249999999999773
20
-77.7249999999999943
11
203.0249999999999773
21
-78.2000000000000028
0
LINE
8
BLACK
6
CONTINUOUS
10
196.0249999999999773
20
-78.2000000000000028
11
196.0249999999999773
21
-77.7249999999999943
0
ARC
8
BLACK
10
78.7000000000000028
20
-91.75
40
0.5
50
-180.00000000
51
-90.00000000
0
ARC
8
BLACK
10
91.75
20
-91.75
40
0.5
50
-90.00000000
51
-0.00000000
0
ARC
8
BLACK
10
91.75
20
-78.7000000000000028
40
0.5
50
0.00000000
51
90.00000000
0
ARC
8
BLACK
10
78.7000000000000028
20
-78.7000000000000028
40
0.5
50
90.00000000
51
180.00000000
0
LINE
8
BLACK
6
CONTINUOUS
10
78.7000000000000028
20
-92.25
11
91.75
21
-92.25
0
LINE
8
BLACK
6
CONTINUOUS
10
91.75
20
-78.2000000000000028
11
88.7249999999999943
21
-78.2000000000000028
0
LINE
8
BLACK
6
CONTINUOUS
10
81.7249999999999943
20
-78.2000000000000028
11
78.7000000000000028
21
-78.2000000000000028
0
LINE
8
BLACK
6
CONTINUOUS
10
92.25
20
-91.75
11
92.25
21
-78.7000000000000028
0
LINE
8
BLACK
6
CONTINUOUS
10
78.2000000000000028
20
-78.7000000000000028
11
78.2000000000000028
21
-91.75
0
ARC
8
BLACK
10
109.6563999999999908
20
-91.7497999999999934
40
0.5002
50
-179.19803748
51
-90.00000000
0
ARC
8
BLACK
10
122.7062999999999988
20
-91.75
40
0.4999499999999999
50
-90.00573015
51
-0.00000000
0
ARC
8
BLACK
10
122.7060999999999922
20
-78.7001999999999953
40
0.5002
50
0.81009448
51
90.00000000
0
ARC
8
BLACK
10
109.6561999999999983
20
-78.7000000000000028
40
0.4999499999999999
50
89.99426985
51
180.00000000
0
LINE
8
BLACK
6
CONTINUOUS
10
109.6563999999999908
20
-92.25
11
122.7062499999999972
21
-92.25
0
LINE
8
BLACK
6
CONTINUOUS
10
122.7060999999999922
20
-78.2000000000000028
11
109.65625
21
-78.2000000000000028
0
LINE
8
BLACK
6
CONTINUOUS
10
123.2062499999999972
20
-91.75
11
123.2062499999999972
21
-78.6931280000000015
0
LINE
8
BLACK
6
CONTINUOUS
10
109.15625
20
-78.7000000000000028
11
109.15625
21
-91.7568009999999958
0
ARC
8
BLACK
10
101.2432000000000016
20
-77.7249999999999943
40
0.4999499999999999
50
89.99426985
51
180.00000000
0
ARC
8
BLACK
10
107.2430999999999983
20
-77.725200000000001
40
0.5002
50
-0.81009448
51
90.00000000
0
ARC
8
BLACK
10
107.2432999999999907
20
-91.7249999999999943
40
0.4999499999999999
50
-90.00573015
51
-0.00000000
0
ARC
8
BLACK
10
101.2433999999999941
20
-91.7248000000000019
40
0.5002
50
-180.80196252
51
-90.00000000
0
LINE
8
BLACK
6
CONTINUOUS
10
101.2432499999999891
20
-77.2249999999999943
11
107.2430999999999983
21
-77.2249999999999943
0
LINE
8
BLACK
6
CONTINUOUS
10
107.2432499999999891
20
-92.2249999999999943
11
101.2433999999999941
21
-92.2249999999999943
0
LINE
8
BLACK
6
CONTINUOUS
10
107.7432499999999891
20
-77.7322719999999947
11
107.7432499999999891
21
-91.7249999999999943
0
LINE
8
BLACK
6
CONTINUOUS
10
100.7432499999999891
20
-91.7177989999999994
11
100.7432499999999891
21
-77.7249999999999943
0
ARC
8
BLACK
10
125.1191999999999922
20
-77.7249999999999943
40
0.4999499999999999
50
89.99426985
51
180.00000000
0
ARC
8
BLACK
10
131.1191000000000031
20
-77.725200000000001
40
0.5002
50
-0.81009448
51
90.00000000
0
ARC
8
BLACK
10
131.1192999999999813
20
-91.7249999999999943
40
0.4999499999999999
50
-90.00573015
51
-0.00000000
0
ARC
8
BLACK
10
125.1193999999999988
20
-91.7248000000000019
40
0.5002
50
-180.80196252
51
-90.00000000
0
LINE
8
BLACK
6
CONTINUOUS
10
125.1192499999999939
20
-77.2249999999999943
11
131.1191000000000031
21
-77.2249999999999943
0
LINE
8
BLACK
6
CONTINUOUS
10
131.1192499999999939
20
-92.2249999999999943
11
125.1193999999999988
21
-92.2249999999999943
0
LINE
8
BLACK
6
CONTINUOUS
10
131.6192499999999939
20
-77.7322719999999947
11
131.6192499999999939
21
-91.7249999999999943
0
LINE
8
BLACK
6
CONTINUOUS
10
124.6192499999999939
20
-91.7177989999999994
11
124.6192499999999939
21
-77.7249999999999943
0
ARC
8
BLACK
10
157.2813999999999908
20
-91.7497999999999934
40
0.5002
50
-179.19803748
51
-90.00000000
0
ARC
8
BLACK
10
170.3312999999999988
20
-91.75
40
0.4999499999999999
50
-90.00573015
51
-0.00000000
0
ARC
8
BLACK
10
170.3310999999999922
20
-78.7001999999999953
40
0.5002
50
0.81009448
51
90.00000000
0
ARC
8
BLACK
10
157.2811999999999841
20
-78.7000000000000028
40
0.4999499999999999
50
89.99426985
51
180.00000000
0
LINE
8
BLACK
6
CONTINUOUS
10
157.2813999999999908
20
-92.25
11
170.3312499999999829
21
-92.25
0
LINE
8
BLACK
6
CONTINUOUS
10
170.3310999999999922
20
-78.2000000000000028
11
157.28125
21
-78.2000000000000028
0
LINE
8
BLACK
6
CONTINUOUS
10
170.8312499999999829
20
-91.75
11
170.8312499999999829
21
-78.6931280000000015
0
LINE
8
BLACK
6
CONTINUOUS
10
156.78125
20
-78.7000000000000028
11
156.78125
21
-91.7568009999999958
0
ARC
8
BLACK
10
148.8682000000000016
20
-77.7249999999999943
40
0.4999499999999999
50
89.99426985
51
180.00000000
0
ARC
8
BLACK
10
154.8680999999999983
20
-77.725200000000001
40
0.5002
50
-0.81009448
51
90.00000000
0
ARC
8
BLACK
10
154.868300000000005
20
-91.75
40
0.4999499999999999
50
-90.00573015
51
-0.00000000
0
LINE
8
BLACK
6
CONTINUOUS
10
148.8682499999999891
20
-77.2249999999999943
11
154.8680999999999983
21
-77.2249999999999943
0
LINE
8
BLACK
6
CONTINUOUS
10
155.3682499999999891
20
-77.7322719999999947
11
155.3682499999999891
21
-91.75
0
LINE
8
BLACK
6
CONTINUOUS
10
148.3682499999999891
20
-78.2000000000000028
11
148.3682499999999891
21
-77.7249999999999943
0
ARC
8
BLACK
10
172.744199999999978
20
-77.7249999999999943
40
0.4999499999999999
50
89.99426985
51
180.00000000
0
ARC
8
BLACK
10
178.7441000000000031
20
-77.725200000000001
40
0.5002
50
-0.81009448
51
90.00000000
0
ARC
8
BLACK
10
178.7442999999999813
20
-91.7249999999999943
40
0.4999499999999999
50
-90.00573015
51
-0.00000000
0
ARC
8
BLACK
10
172.7443999999999846
20
-91.7248000000000019
40
0.5002
50
-180.80196252
51
-90.00000000
0
LINE
8
BLACK
6
CONTINUOUS
10
172.7442499999999939
20
-77.2249999999999943
11
178.7441000000000031
21
-77.2249999999999943
0
LINE
8
BLACK
6
CONTINUOUS
10
178.7442499999999939
20
-92.2249999999999943
11
172.7443999999999846
21
-92.2249999999999943
0
LINE
8
BLACK
6
CONTINUOUS
10
179.2442499999999939
20
-77.7322719999999947
11
179.2442499999999939
21
-91.7249999999999943
0
LINE
8
BLACK
6
CONTINUOUS
10
172.2442499999999939
20
-91.7177989999999994
11
172.2442499999999939
21
-77.7249999999999943
0
ARC
8
BLACK
10
187.0250000000000057
20
-91.75
40
0.5
50
-180.00000000
51
-90.00000000
0
ARC
8
BLACK
10
206.0499999999999829
20
-91.75
40
0.5
50
-90.00000000
51
-0.00000000
0
ARC
8
BLACK
10
206.0499999999999829
20
-78.7000000000000028
40
0.5
50
0.00000000
51
90.00000000
0
ARC
8
BLACK
10
187.0250000000000057
20
-78.7000000000000028
40
0.5
50
90.00000000
51
180.00000000
0
LINE
8
BLACK
6
CONTINUOUS
10
187.0250000000000057
20
-92.25
11
206.0499999999999829
21
-92.25
0
LINE
8
BLACK
6
CONTINUOUS
10
206.0499999999999829
20
-78.2000000000000028
11
203.0249999999999773
21
-78.2000000000000028
0
LINE
8
BLACK
6
CONTINUOUS
10
196.0249999999999773
20
-78.2000000000000028
11
187.0250000000000057
21
-78.2000000000000028
0
LINE
8
BLACK
6
CONTINUOUS
10
206.5499999999999829
20
-91.75
11
206.5499999999999829
21
-78.7000000000000028
0
LINE
8
BLACK
6
CONTINUOUS
10
186.5250000000000057
20
-78.7000000000000028
11
186.5250000000000057
21
-91.75
0
ARC
8
BLACK
10
216.8125
20
-91.75
40
0.5
50
-180.00000000
51
-90.00000000
0
ARC
8
BLACK
10
229.8624999999999829
20
-91.75
40
0.5
50
-90.00000000
51
-0.00000000
0
ARC
8
BLACK
10
229.8624999999999829
20
-78.7000000000000028
40
0.5
50
0.00000000
51
90.00000000
0
ARC
8
BLACK
10
216.8125
20
-78.7000000000000028
40
0.5
50
90.00000000
51
180.00000000
0
LINE
8
BLACK
6
CONTINUOUS
10
216.8125
20
-92.25
11
229.8624999999999829
21
-92.25
0
LINE
8
BLACK
6
CONTINUOUS
10
229.8624999999999829
20
-78.2000000000000028
11
216.8125
21
-78.2000000000000028
0
LINE
8
BLACK
6
CONTINUOUS
10
230.3624999999999829
20
-91.75
11
230.3624999999999829
21
-78.7000000000000028
0
LINE
8
BLACK
6
CONTINUOUS
10
216.3125
20
-78.7000000000000028
11
216.3125
21
-91.75
0
ARC
8
BLACK
10
240.625
20
-91.75
40
0.5
50
-180.00000000
51
-90.00000000
0
ARC
8
BLACK
10
253.6749999999999829
20
-91.75
40
0.5
50
-90.00000000
51
-0.00000000
0
ARC
8
BLACK
10
253.6749999999999829
20
-78.7000000000000028
40
0.5
50
0.00000000
51
90.00000000
0
ARC
8
BLACK
10
240.625
20
-78.7000000000000028
40
0.5
50
90.00000000
51
180.00000000
0
LINE
8
BLACK
6
CONTINUOUS
10
240.625
20
-92.25
11
253.6749999999999829
21
-92.25
0
LINE
8
BLACK
6
CONTINUOUS
10
253.6749999999999829
20
-78.2000000000000028
11
240.625
21
-78.2000000000000028
0
LINE
8
BLACK
6
CONTINUOUS
10
254.1749999999999829
20
-91.75
11
254.1749999999999829
21
-78.7000000000000028
0
LINE
8
BLACK
6
CONTINUOUS
10
240.125
20
-78.7000000000000028
11
240.125
21
-91.75
0
ARC
8
BLACK
10
264.4375
20
-91.75
40
0.5
50
-180.00000000
51
-90.00000000
0
ARC
8
BLACK
10
277.4875000000000114
20
-91.75
40
0.5
50
-90.00000000
51
-0.00000000
0
ARC
8
BLACK
10
277.4875000000000114
20
-78.7000000000000028
40
0.5
50
0.00000000
51
90.00000000
0
ARC
8
BLACK
10
264.4375
20
-78.7000000000000028
40
0.5
50
90.00000000
51
180.00000000
0
LINE
8
BLACK
6
CONTINUOUS
10
264.4375
20
-92.25
11
277.4875000000000114
21
-92.25
0
LINE
8
BLACK
6
CONTINUOUS
10
277.4875000000000114
20
-78.2000000000000028
11
264.4375
21
-78.2000000000000028
0
LINE
8
BLACK
6
CONTINUOUS
10
277.9875000000000114
20
-91.75
11
277.9875000000000114
21
-78.7000000000000028
0
LINE
8
BLACK
6
CONTINUOUS
10
263.9375
20
-78.7000000000000028
11
263.9375
21
-91.75
0
LINE
8
BLACK
6
CONTINUOUS
10
284.6999999999999886
20
-54.125
11
281.9499999999999886
21
-54.125
0
ARC
8
BLACK
10
281.9499999999999886
20
-56.625
40
2.5
50
90.00000000
51
180.00000000
0
LINE
8
BLACK
6
CONTINUOUS
10
283.2249999999999659
20
-59.125
11
284.6999999999999886
21
-59.125
0
LINE
8
BLACK
6
CONTINUOUS
10
284.6999999999999886
20
-92.2000000000000028
11
284.6999999999999886
21
-59.125
0
ARC
8
BLACK
10
283.2249999999999659
20
-59.5999999999999943
40
0.475
50
90.00000000
51
180.00000000
0
LINE
8
BLACK
6
CONTINUOUS
10
282.75
20
-72.7000000000000028
11
282.75
21
-59.5999999999999943
0
ARC
8
BLACK
10
30.0749999999999993
20
-31.0749999999999993
40
0.5
50
0.00000000
51
90.00000000
0
ARC
8
BLACK
10
20.3125
20
-21.5500000000000007
40
0.5
50
0.00000000
51
90.00000000
0
ARC
8
BLACK
10
30.0749999999999993
20
-25.0749999999999993
40
0.5
50
-90.00000000
51
-0.00000000
0
ARC
8
BLACK
10
31.0749999999999993
20
-21.5500000000000007
40
0.5
50
90.00000000
51
180.00000000
0
ARC
8
BLACK
10
7.2624999999999993
20
-21.5500000000000007
40
0.5
50
90.00000000
51
180.00000000
0
ARC
8
BLACK
10
44.125
20
-21.5500000000000007
40
0.5
50
0.00000000
51
90.00000000
0
ARC
8
BLACK
10
44.125
20
-34.6000000000000014
40
0.5
50
-90.00000000
51
-0.00000000
0
ARC
8
BLACK
10
7.2624999999999993
20
-34.6000000000000014
40
0.5
50
-180.00000000
51
-90.00000000
0
LINE
8
BLACK
6
CONTINUOUS
10
20.8125
20
-25.0749999999999993
11
20.8125
21
-21.5500000000000007
0
LINE
8
BLACK
6
CONTINUOUS
10
30.5749999999999993
20
-21.5500000000000007
11
30.5749999999999993
21
-25.0749999999999993
0
LINE
8
BLACK
6
CONTINUOUS
10
7.2624999999999993
20
-35.1000000000000014
11
20.3125
21
-35.1000000000000014
0
LINE
8
BLACK
6
CONTINUOUS
10
44.125
20
-21.0500000000000007
11
31.0749999999999993
21
-21.0500000000000007
0
ARC
8
BLACK
10
31.0749999999999993
20
-34.6000000000000014
40
0.5
50
-180.00000000
51
-90.00000000
0
LINE
8
BLACK
6
CONTINUOUS
10
44.625
20
-34.6000000000000014
11
44.625
21
-21.5500000000000007
0
LINE
8
BLACK
6
CONTINUOUS
10
21.3125
20
-30.5749999999999993
11
30.0749999999999993
21
-30.5749999999999993
0
LINE
8
BLACK
6
CONTINUOUS
10
20.3125
20
-21.0500000000000007
11
7.2624999999999993
21
-21.0500000000000007
0
LINE
8
BLACK
6
CONTINUOUS
10
30.0749999999999993
20
-25.5749999999999993
11
21.3125
21
-25.5749999999999993
0
ARC
8
BLACK
10
21.3125
20
-31.0749999999999993
40
0.5
50
90.00000000
51
180.00000000
0
ARC
8
BLACK
10
21.3125
20
-25.0749999999999993
40
0.5
50
-180.00000000
51
-90.00000000
0
LINE
8
BLACK
6
CONTINUOUS
10
30.5749999999999993
20
-34.6000000000000014
11
30.5749999999999993
21
-31.0749999999999993
0
LINE
8
BLACK
6
CONTINUOUS
10
31.0749999999999993
20
-35.1000000000000014
11
44.125
21
-35.1000000000000014
0
ARC
8
BLACK
10
20.3125
20
-34.6000000000000014
40
0.5
50
-90.00000000
51
-0.00000000
0
LINE
8
BLACK
6
CONTINUOUS
10
6.7624999999999993
20
-21.5500000000000007
11
6.7624999999999993
21
-34.6000000000000014
0
LINE
8
BLACK
6
CONTINUOUS
10
20.8125
20
-34.6000000000000014
11
20.8125
21
-31.0749999999999993
0
ARC
8
BLACK
10
263.4375
20
-31.0749999999999993
40
0.5
50
0.00000000
51
90.00000000
0
ARC
8
BLACK
10
253.6749999999999829
20
-21.5500000000000007
40
0.5
50
0.00000000
51
90.00000000
0
ARC
8
BLACK
10
263.4375
20
-25.0749999999999993
40
0.5
50
-90.00000000
51
-0.00000000
0
ARC
8
BLACK
10
264.4375
20
-21.5500000000000007
40
0.5
50
90.00000000
51
180.00000000
0
ARC
8
BLACK
10
240.625
20
-21.5500000000000007
40
0.5
50
90.00000000
51
180.00000000
0
ARC
8
BLACK
10
277.4875000000000114
20
-21.5500000000000007
40
0.5
50
0.00000000
51
90.00000000
0
ARC
8
BLACK
10
277.4875000000000114
20
-34.6000000000000014
40
0.5
50
-90.00000000
51
-0.00000000
0
ARC
8
BLACK
10
240.625
20
-34.6000000000000014
40
0.5
50
-180.00000000
51
-90.00000000
0
LINE
8
BLACK
6
CONTINUOUS
10
254.1749999999999829
20
-25.0749999999999993
11
254.1749999999999829
21
-21.5500000000000007
0
LINE
8
BLACK
6
CONTINUOUS
10
263.9375
20
-21.5500000000000007
11
263.9375
21
-25.0749999999999993
0
LINE
8
BLACK
6
CONTINUOUS
10
240.625
20
-35.1000000000000014
11
253.6749999999999829
21
-35.1000000000000014
0
LINE
8
BLACK
6
CONTINUOUS
10
277.4875000000000114
20
-21.0500000000000007
11
264.4375
21
-21.0500000000000007
0
ARC
8
BLACK
10
264.4375
20
-34.6000000000000014
40
0.5
50
-180.00000000
51
-90.00000000
0
LINE
8
BLACK
6
CONTINUOUS
10
277.9875000000000114
20
-34.6000000000000014
11
277.9875000000000114
21
-21.5500000000000007
0
LINE
8
BLACK
6
CONTINUOUS
10
254.6749999999999829
20
-30.5749999999999993
11
263.4375
21
-30.5749999999999993
0
LINE
8
BLACK
6
CONTINUOUS
10
253.6749999999999829
20
-21.0500000000000007
11
240.625
21
-21.0500000000000007
0
LINE
8
BLACK
6
CONTINUOUS
10
263.4375
20
-25.5749999999999993
11
254.6749999999999829
21
-25.5749999999999993
0
ARC
8
BLACK
10
254.6749999999999829
20
-31.0749999999999993
40
0.5
50
90.00000000
51
180.00000000
0
ARC
8
BLACK
10
254.6749999999999829
20
-25.0749999999999993
40
0.5
50
-180.00000000
51
-90.00000000
0
LINE
8
BLACK
6
CONTINUOUS
10
263.9375
20
-34.6000000000000014
11
263.9375
21
-31.0749999999999993
0
LINE
8
BLACK
6
CONTINUOUS
10
264.4375
20
-35.1000000000000014
11
277.4875000000000114
21
-35.1000000000000014
0
ARC
8
BLACK
10
253.6749999999999829
20
-34.6000000000000014
40
0.5
50
-90.00000000
51
-0.00000000
0
LINE
8
BLACK
6
CONTINUOUS
10
240.125
20
-21.5500000000000007
11
240.125
21
-34.6000000000000014
0
LINE
8
BLACK
6
CONTINUOUS
10
254.1749999999999829
20
-34.6000000000000014
11
254.1749999999999829
21
-31.0749999999999993
0
CIRCLE
8
BLACK
10
4.2625000000000002
20
-18.5500000000000007
40
1.0999999999999999
0
CIRCLE
8
BLACK
10
142.375
20
-18.5500000000000007
40
1.0999999999999999
0
CIRCLE
8
BLACK
10
66.1749999999999972
20
-37.6000000000000014
40
1.0999999999999999
0
CIRCLE
8
BLACK
10
218.5749999999999886
20
-37.6000000000000014
40
1.0999999999999999
0
CIRCLE
8
BLACK
10
28.0749999999999993
20
-85.2249999999999943
40
1.0999999999999999
0
CIRCLE
8
BLACK
10
256.6750000000000114
20
-85.2249999999999943
40
1.0999999999999999
0
CIRCLE
8
BLACK
10
142.375
20
-75.7000000000000028
40
1.0999999999999999
0
CIRCLE
8
BLACK
10
280.4875000000000114
20
-23.3125
40
1.0999999999999999
0
LINE
8
BLACK
6
CONTINUOUS
10
279.4499999999999886
20
-56.625
11
279.4499999999999886
21
-59.1499999999999986
  0
ENDSEC
  0
EOF
