  0
SECTION
  2
HEADER
  9
$ANGBASE
  50
0.0
  9
$ANGDIR
  70
1
  9
$MEASUREMENT
  70
1
  0
ENDSEC
  0
SECTION
  2
TABLES
  0
TABLE
  2
LTYPE
  70
4
  0
LTYPE
  5
40F
  2
CONTINUOUS
  70
0
  3
Solid line
  72
65
  73
0
  40
0.0
  0
LTYPE
  5
410
  2
DASHDOT
 70
0
  3
Dash Dot ____ _ ____ _
 72
65
 73
4
 40
2.0
 49
1.25
 49
-0.25
 49
0.25
 49
-0.25
  0
LTYPE
  5
411
  2
DASHED
 70
0
  3
Dashed __ __ __ __ __
 72
65
 73
2
 40
0.75
 49
0.5
 49
-0.25
  0
LTYPE
  5
43B
  2
DOTTED
 70
0
  3
Dotted .  .  .  .
 72
65
 73
2
 40
0.2
 49
0.0
 49
-0.2
  0
ENDTAB
  0
TABLE
  2
STYLE
  70
4
  0
STYLE
  2
KICAD
  70
0
  40
0
  41
1
  42
1
  50
0
  71
0
  3
isocp.shx
  0
STYLE
  2
KICADB
  70
0
  40
0
  41
1
  42
1
  50
0
  71
0
  3
isocp.shx
  0
STYLE
  2
KICADI
  70
0
  40
0
  41
1
  42
1
  50
15
  71
0
  3
isocp.shx
  0
STYLE
  2
KICADBI
  70
0
  40
0
  41
1
  42
1
  50
15
  71
0
  3
isocp.shx
  0
ENDTAB
  0
TABLE
  2
LAYER
  70
1
  0
LAYER
  2
BLACK
  70
0
  62
7
  6
CONTINUOUS
  0
ENDTAB
  0
ENDSEC
  0
SECTION
  2
ENTITIES
0
ARC
8
BLACK
10
183.4436000000000035
20
-77.7000000000000028
40
0.5
50
0.00000000
51
90.00000000
0
LINE
8
BLACK
6
CONTINUOUS
10
183.9437499999999943
20
-77.7000000000000028
11
183.9437499999999943
21
-82.1929299999999898
0
LINE
8
BLACK
6
CONTINUOUS
10
192.5
20
-88.2000000000000028
11
192.5
21
-91.7000000000000028
0
LINE
8
BLACK
6
CONTINUOUS
10
192.5
20
-78.7000000000000028
11
192.5
21
-82.2000000000000028
0
LINE
8
BLACK
6
CONTINUOUS
10
184.4437499999999943
20
-82.7000000000000028
11
192.
21
-82.7000000000000028
0
LINE
8
BLACK
6
CONTINUOUS
10
184.4437499999999943
20
-87.7000000000000028
11
192.
21
-87.7000000000000028
0
ARC
8
BLACK
10
192.
20
-88.2000000000000028
40
0.5
50
0.00000000
51
90.00000000
0
ARC
8
BLACK
10
192.
20
-82.2000000000000028
40
0.5
50
-90.00000000
51
-0.00000000
0
ARC
8
BLACK
10
184.4437499999999943
20
-88.2000000000000028
40
0.5
50
90.00000000
51
180.00000000
0
ARC
8
BLACK
10
184.4437499999999943
20
-82.2000000000000028
40
0.5
50
-180.00000000
51
-90.00000000
0
LINE
8
BLACK
6
CONTINUOUS
10
126.0374999999999943
20
-49.5999999999999943
11
130.0875000000000057
21
-49.5999999999999943
0
LINE
8
BLACK
6
CONTINUOUS
10
126.0374999999999943
20
-44.6000000000000014
11
130.0875000000000057
21
-44.6000000000000014
0
LINE
8
BLACK
6
CONTINUOUS
10
130.5875000000000057
20
-50.0999999999999943
11
130.5875000000000057
21
-53.5999999999999943
0
LINE
8
BLACK
6
CONTINUOUS
10
125.5374999999999943
20
-50.0999999999999943
11
125.5374999999999943
21
-53.5999999999999943
0
ARC
8
BLACK
10
130.0875000000000057
20
-50.0999999999999943
40
0.5
50
0.00000000
51
90.00000000
0
ARC
8
BLACK
10
130.0875000000000057
20
-44.1000000000000014
40
0.5
50
-90.00000000
51
-0.00000000
0
ARC
8
BLACK
10
126.0374999999999943
20
-50.0999999999999943
40
0.5
50
90.00000000
51
180.00000000
0
ARC
8
BLACK
10
126.0374999999999943
20
-44.1000000000000014
40
0.5
50
-180.00000000
51
-90.00000000
0
CIRCLE
8
BLACK
10
260.4124999999999659
20
-85.2000000000000028
40
1.0999999999999999
0
CIRCLE
8
BLACK
10
24.2874999999999979
20
-85.2000000000000028
40
1.0999999999999999
0
CIRCLE
8
BLACK
10
95.7249999999999943
20
-85.2000000000000028
40
1.0999999999999999
0
CIRCLE
8
BLACK
10
218.5499999999999829
20
-37.0749999999999957
40
1.0999999999999999
0
CIRCLE
8
BLACK
10
66.1499999999999915
20
-37.0749999999999957
40
1.0999999999999999
0
CIRCLE
8
BLACK
10
281.4624999999999773
20
-23.2874999999999979
40
1.0999999999999999
0
CIRCLE
8
BLACK
10
142.3499999999999943
20
-19.0249999999999986
40
1.0999999999999999
0
CIRCLE
8
BLACK
10
4.2374999999999998
20
-19.0249999999999986
40
1.0999999999999999
0
LINE
8
BLACK
6
CONTINUOUS
10
109.6563999999999908
20
-92.2000000000000028
11
125.0942499999999882
21
-92.2000000000000028
0
LINE
8
BLACK
6
CONTINUOUS
10
263.9375
20
-21.5500000000000007
11
263.9375
21
-25.0499999999999972
0
LINE
8
BLACK
6
CONTINUOUS
10
254.125
20
-31.0499999999999972
11
254.125
21
-34.5499999999999972
0
ARC
8
BLACK
10
263.4375
20
-31.0499999999999972
40
0.5
50
0.00000000
51
90.00000000
0
ARC
8
BLACK
10
263.4375
20
-25.0499999999999972
40
0.5
50
-90.00000000
51
-0.00000000
0
LINE
8
BLACK
6
CONTINUOUS
10
254.625
20
-25.5499999999999972
11
263.4375
21
-25.5499999999999972
0
LINE
8
BLACK
6
CONTINUOUS
10
254.625
20
-30.5499999999999972
11
263.4375
21
-30.5499999999999972
0
ARC
8
BLACK
10
254.625
20
-31.0499999999999972
40
0.5
50
90.00000000
51
180.00000000
0
ARC
8
BLACK
10
254.625
20
-25.0499999999999972
40
0.5
50
-180.00000000
51
-90.00000000
0
LINE
8
BLACK
6
CONTINUOUS
10
21.2624999999999993
20
-25.5499999999999972
11
30.0749999999999993
21
-25.5499999999999972
0
LINE
8
BLACK
6
CONTINUOUS
10
21.2624999999999993
20
-30.5499999999999972
11
30.0749999999999993
21
-30.5499999999999972
0
LINE
8
BLACK
6
CONTINUOUS
10
30.5749999999999993
20
-31.0499999999999972
11
30.5749999999999993
21
-34.5499999999999972
0
ARC
8
BLACK
10
30.0749999999999993
20
-31.0499999999999972
40
0.5
50
0.00000000
51
90.00000000
0
ARC
8
BLACK
10
30.0749999999999993
20
-25.0499999999999972
40
0.5
50
-90.00000000
51
-0.00000000
0
LINE
8
BLACK
6
CONTINUOUS
10
30.5749999999999993
20
-21.5500000000000007
11
30.5749999999999993
21
-25.0499999999999972
0
LINE
8
BLACK
6
CONTINUOUS
10
20.7624999999999993
20
-31.0499999999999972
11
20.7624999999999993
21
-34.5499999999999972
0
ARC
8
BLACK
10
21.2624999999999993
20
-31.0499999999999972
40
0.5
50
90.00000000
51
180.00000000
0
ARC
8
BLACK
10
21.2624999999999993
20
-25.0499999999999972
40
0.5
50
-180.00000000
51
-90.00000000
0
LINE
8
BLACK
6
CONTINUOUS
10
282.6999999999999886
20
-72.6499999999999915
11
282.6999999999999886
21
-59.625
0
LINE
8
BLACK
6
CONTINUOUS
10
283.1999999999999886
20
-59.125
11
284.6999999999999886
21
-59.125
0
LINE
8
BLACK
6
CONTINUOUS
10
279.4499999999999886
20
-56.625
11
279.4499999999999886
21
-59.1499999999999986
0
LINE
8
BLACK
6
CONTINUOUS
10
279.4499999999999886
20
-59.1499999999999986
11
273.9692499999999882
21
-59.1499999999999986
0
ARC
8
BLACK
10
283.1999999999999886
20
-59.625
40
0.5
50
90.00000000
51
180.00000000
0
ARC
8
BLACK
10
281.9499999999999886
20
-56.625
40
2.5
50
90.00000000
51
180.00000000
0
LINE
8
BLACK
6
CONTINUOUS
10
280.3187499999999659
20
-91.7000000000000028
11
280.3187499999999659
21
-78.6930289999999957
0
LINE
8
BLACK
6
CONTINUOUS
10
279.8186000000000035
20
-78.2000000000000028
11
277.4375
21
-78.2000000000000028
0
LINE
8
BLACK
6
CONTINUOUS
10
277.4375
20
-92.2000000000000028
11
279.8187499999999659
21
-92.2000000000000028
0
ARC
8
BLACK
10
279.8186000000000035
20
-78.7001999999999953
40
0.5002
50
0.82143334
51
90.00000000
0
ARC
8
BLACK
10
279.8188000000000102
20
-91.7000000000000028
40
0.4999499999999999
50
-90.00572958
51
-0.00000000
0
LINE
8
BLACK
6
CONTINUOUS
10
263.9375
20
-78.7000000000000028
11
263.9375
21
-91.7000000000000028
0
LINE
8
BLACK
6
CONTINUOUS
10
266.8187499999999659
20
-78.2000000000000028
11
264.4375
21
-78.2000000000000028
0
LINE
8
BLACK
6
CONTINUOUS
10
277.4375
20
-78.2000000000000028
11
266.8187499999999659
21
-78.2000000000000028
0
LINE
8
BLACK
6
CONTINUOUS
10
266.8187499999999659
20
-92.2000000000000028
11
277.4375
21
-92.2000000000000028
0
LINE
8
BLACK
6
CONTINUOUS
10
264.4375
20
-92.2000000000000028
11
266.8187499999999659
21
-92.2000000000000028
0
ARC
8
BLACK
10
264.4375
20
-78.7000000000000028
40
0.5
50
90.00000000
51
180.00000000
0
ARC
8
BLACK
10
264.4375
20
-91.7000000000000028
40
0.5
50
-180.00000000
51
-90.00000000
0
LINE
8
BLACK
6
CONTINUOUS
10
256.5062499999999659
20
-91.7000000000000028
11
256.5062499999999659
21
-78.6930289999999957
0
LINE
8
BLACK
6
CONTINUOUS
10
256.0061999999999784
20
-78.2000000000000028
11
253.625
21
-78.2000000000000028
0
LINE
8
BLACK
6
CONTINUOUS
10
253.625
20
-92.2000000000000028
11
256.0062499999999659
21
-92.2000000000000028
0
ARC
8
BLACK
10
256.0061000000000035
20
-78.7001999999999953
40
0.5002000099960014
50
0.82143334
51
89.98854543
0
ARC
8
BLACK
10
256.0063000000000102
20
-91.7000000000000028
40
0.4999499999999999
50
-90.00572958
51
-0.00000000
0
LINE
8
BLACK
6
CONTINUOUS
10
240.125
20
-78.7000000000000028
11
240.125
21
-91.7000000000000028
0
LINE
8
BLACK
6
CONTINUOUS
10
243.0062499999999943
20
-78.2000000000000028
11
240.625
21
-78.2000000000000028
0
LINE
8
BLACK
6
CONTINUOUS
10
253.625
20
-78.2000000000000028
11
243.0062499999999943
21
-78.2000000000000028
0
LINE
8
BLACK
6
CONTINUOUS
10
243.0062499999999943
20
-92.2000000000000028
11
253.625
21
-92.2000000000000028
0
LINE
8
BLACK
6
CONTINUOUS
10
240.625
20
-92.2000000000000028
11
243.0062499999999943
21
-92.2000000000000028
0
ARC
8
BLACK
10
240.625
20
-78.7000000000000028
40
0.5
50
90.00000000
51
180.00000000
0
ARC
8
BLACK
10
240.625
20
-91.7000000000000028
40
0.5
50
-180.00000000
51
-90.00000000
0
LINE
8
BLACK
6
CONTINUOUS
10
232.6937499999999943
20
-91.7000000000000028
11
232.6937499999999943
21
-78.6930289999999957
0
LINE
8
BLACK
6
CONTINUOUS
10
232.1936000000000035
20
-78.2000000000000028
11
229.8125
21
-78.2000000000000028
0
LINE
8
BLACK
6
CONTINUOUS
10
229.8125
20
-92.2000000000000028
11
232.1937499999999943
21
-92.2000000000000028
0
ARC
8
BLACK
10
232.1936000000000035
20
-78.7001999999999953
40
0.5002
50
0.82143334
51
90.00000000
0
ARC
8
BLACK
10
232.1937999999999818
20
-91.7000000000000028
40
0.4999499999999999
50
-90.00572958
51
-0.00000000
0
LINE
8
BLACK
6
CONTINUOUS
10
216.3125
20
-78.7000000000000028
11
216.3125
21
-91.7000000000000028
0
LINE
8
BLACK
6
CONTINUOUS
10
219.1937499999999943
20
-78.2000000000000028
11
216.8125
21
-78.2000000000000028
0
LINE
8
BLACK
6
CONTINUOUS
10
229.8125
20
-78.2000000000000028
11
219.1937499999999943
21
-78.2000000000000028
0
LINE
8
BLACK
6
CONTINUOUS
10
219.1937499999999943
20
-92.2000000000000028
11
229.8125
21
-92.2000000000000028
0
LINE
8
BLACK
6
CONTINUOUS
10
216.8125
20
-92.2000000000000028
11
219.1937499999999943
21
-92.2000000000000028
0
ARC
8
BLACK
10
216.8125
20
-78.7000000000000028
40
0.5
50
90.00000000
51
180.00000000
0
ARC
8
BLACK
10
216.8125
20
-91.7000000000000028
40
0.5
50
-180.00000000
51
-90.00000000
0
LINE
8
BLACK
6
CONTINUOUS
10
208.8812499999999943
20
-91.7000000000000028
11
208.8812499999999943
21
-78.6930289999999957
0
LINE
8
BLACK
6
CONTINUOUS
10
208.3811000000000035
20
-78.2000000000000028
11
206.
21
-78.2000000000000028
0
LINE
8
BLACK
6
CONTINUOUS
10
206.
20
-92.2000000000000028
11
208.3812499999999943
21
-92.2000000000000028
0
ARC
8
BLACK
10
208.3811000000000035
20
-78.7001999999999953
40
0.5002
50
0.82143334
51
90.00000000
0
ARC
8
BLACK
10
208.3812999999999818
20
-91.7000000000000028
40
0.4999499999999999
50
-90.00572958
51
-0.00000000
0
LINE
8
BLACK
6
CONTINUOUS
10
195.3812499999999943
20
-78.2000000000000028
11
193.
21
-78.2000000000000028
0
LINE
8
BLACK
6
CONTINUOUS
10
196.
20
-78.2000000000000028
11
195.3812499999999943
21
-78.2000000000000028
0
LINE
8
BLACK
6
CONTINUOUS
10
206.
20
-78.2000000000000028
11
203.
21
-78.2000000000000028
0
LINE
8
BLACK
6
CONTINUOUS
10
202.5
20
-92.2000000000000028
11
206.
21
-92.2000000000000028
0
LINE
8
BLACK
6
CONTINUOUS
10
195.3812499999999943
20
-92.2000000000000028
11
196.5
21
-92.2000000000000028
0
LINE
8
BLACK
6
CONTINUOUS
10
193.
20
-92.2000000000000028
11
195.3812499999999943
21
-92.2000000000000028
0
ARC
8
BLACK
10
193.
20
-78.7000000000000028
40
0.5
50
90.00000000
51
180.00000000
0
ARC
8
BLACK
10
193.
20
-91.7000000000000028
40
0.5
50
-180.00000000
51
-90.00000000
0
LINE
8
BLACK
6
CONTINUOUS
10
155.3432499999999834
20
-91.7000000000000028
11
155.3432499999999834
21
-77.6930289999999957
0
LINE
8
BLACK
6
CONTINUOUS
10
148.3432499999999834
20
-77.7000000000000028
11
148.3432499999999834
21
-78.2000000000000028
0
LINE
8
BLACK
6
CONTINUOUS
10
148.8499999999999943
20
-92.2000000000000028
11
154.8432499999999834
21
-92.2000000000000028
0
LINE
8
BLACK
6
CONTINUOUS
10
154.843199999999996
20
-77.2000000000000028
11
148.8432499999999834
21
-77.2000000000000028
0
ARC
8
BLACK
10
154.8432999999999993
20
-91.7000000000000028
40
0.4999499999999999
50
-90.00572958
51
-0.00000000
0
ARC
8
BLACK
10
148.843199999999996
20
-77.7000000000000028
40
0.4999499999999999
50
89.99427042
51
180.00000000
0
ARC
8
BLACK
10
154.8430999999999926
20
-77.7001999999999953
40
0.5002000099960014
50
0.82143334
51
89.98854543
0
LINE
8
BLACK
6
CONTINUOUS
10
172.2192499999999882
20
-77.7000000000000028
11
172.2192499999999882
21
-91.7068999999999903
0
LINE
8
BLACK
6
CONTINUOUS
10
172.719300000000004
20
-92.2000000000000028
11
177.4437499999999943
21
-92.2000000000000028
0
LINE
8
BLACK
6
CONTINUOUS
10
177.4437499999999943
20
-77.2000000000000028
11
172.7192499999999882
21
-77.2000000000000028
0
ARC
8
BLACK
10
172.7193999999999789
20
-91.6997999999999962
40
0.5002000099960014
50
-179.18669857
51
-90.01145457
0
ARC
8
BLACK
10
172.7192000000000007
20
-77.7000000000000028
40
0.4999499999999999
50
89.99427042
51
180.00000000
0
LINE
8
BLACK
6
CONTINUOUS
10
156.78125
20
-78.7000000000000028
11
156.78125
21
-91.7068999999999903
0
LINE
8
BLACK
6
CONTINUOUS
10
170.78125
20
-91.7000000000000028
11
170.78125
21
-78.6930289999999957
0
LINE
8
BLACK
6
CONTINUOUS
10
170.2810999999999808
20
-78.2000000000000028
11
157.28125
21
-78.2000000000000028
0
LINE
8
BLACK
6
CONTINUOUS
10
157.2813999999999908
20
-92.2000000000000028
11
170.28125
21
-92.2000000000000028
0
ARC
8
BLACK
10
157.2811999999999841
20
-78.7000000000000028
40
0.4999499999999999
50
89.99427042
51
180.00000000
0
ARC
8
BLACK
10
170.2810999999999808
20
-78.7001999999999953
40
0.5002
50
0.82143334
51
90.00000000
0
ARC
8
BLACK
10
170.2812999999999874
20
-91.7000000000000028
40
0.4999499999999999
50
-90.00572958
51
-0.00000000
0
ARC
8
BLACK
10
157.2813999999999908
20
-91.6997999999999962
40
0.5002
50
-179.18669857
51
-90.00000000
0
LINE
8
BLACK
6
CONTINUOUS
10
107.7182499999999976
20
-91.7000000000000028
11
107.7182499999999976
21
-77.6930289999999957
0
LINE
8
BLACK
6
CONTINUOUS
10
100.7182499999999976
20
-77.7000000000000028
11
100.7182499999999976
21
-91.7068999999999903
0
LINE
8
BLACK
6
CONTINUOUS
10
101.2183999999999884
20
-92.2000000000000028
11
107.2182499999999976
21
-92.2000000000000028
0
LINE
8
BLACK
6
CONTINUOUS
10
107.2180999999999926
20
-77.2000000000000028
11
101.2182499999999976
21
-77.2000000000000028
0
ARC
8
BLACK
10
107.2182999999999993
20
-91.7000000000000028
40
0.4999499999999999
50
-90.00572958
51
-0.00000000
0
ARC
8
BLACK
10
101.2183999999999884
20
-91.6997999999999962
40
0.5002
50
-179.18669857
51
-90.00000000
0
ARC
8
BLACK
10
101.218199999999996
20
-77.7000000000000028
40
0.4999499999999999
50
89.99427042
51
180.00000000
0
ARC
8
BLACK
10
107.2180999999999926
20
-77.7001999999999953
40
0.5002
50
0.82143334
51
90.00000000
0
LINE
8
BLACK
6
CONTINUOUS
10
131.5942499999999882
20
-78.2000000000000028
11
131.5942499999999882
21
-77.6930289999999957
0
LINE
8
BLACK
6
CONTINUOUS
10
124.5942499999999882
20
-77.7000000000000028
11
124.5942499999999882
21
-78.2000000000000028
0
LINE
8
BLACK
6
CONTINUOUS
10
131.0942000000000007
20
-77.2000000000000028
11
125.0942499999999882
21
-77.2000000000000028
0
ARC
8
BLACK
10
125.0942000000000007
20
-77.7000000000000028
40
0.4999499999999999
50
89.99427042
51
180.00000000
0
ARC
8
BLACK
10
131.0940999999999974
20
-77.7001999999999953
40
0.5002000099960014
50
0.82143334
51
89.98854543
0
LINE
8
BLACK
6
CONTINUOUS
10
109.15625
20
-78.7000000000000028
11
109.15625
21
-91.7068999999999903
0
LINE
8
BLACK
6
CONTINUOUS
10
122.6561999999999983
20
-78.2000000000000028
11
109.65625
21
-78.2000000000000028
0
ARC
8
BLACK
10
109.6561999999999983
20
-78.7000000000000028
40
0.4999499999999999
50
89.99427042
51
180.00000000
0
ARC
8
BLACK
10
109.6563999999999908
20
-91.6997999999999962
40
0.5002
50
-179.18669857
51
-90.00000000
0
LINE
8
BLACK
6
CONTINUOUS
10
92.2000000000000028
20
-91.7000000000000028
11
92.2000000000000028
21
-78.7000000000000028
0
LINE
8
BLACK
6
CONTINUOUS
10
91.7000000000000028
20
-78.2000000000000028
11
88.7000000000000028
21
-78.2000000000000028
0
LINE
8
BLACK
6
CONTINUOUS
10
88.2000000000000028
20
-92.2000000000000028
11
91.7000000000000028
21
-92.2000000000000028
0
ARC
8
BLACK
10
91.7000000000000028
20
-78.7000000000000028
40
0.5
50
0.00000000
51
90.00000000
0
ARC
8
BLACK
10
91.7000000000000028
20
-91.7000000000000028
40
0.5
50
-90.00000000
51
-0.00000000
0
LINE
8
BLACK
6
CONTINUOUS
10
88.7000000000000028
20
-78.2000000000000028
11
88.7000000000000028
21
-77.7000000000000028
0
LINE
8
BLACK
6
CONTINUOUS
10
83.4437499999999943
20
-92.2000000000000028
11
88.2000000000000028
21
-92.2000000000000028
0
LINE
8
BLACK
6
CONTINUOUS
10
88.2000000000000028
20
-77.2000000000000028
11
83.4437499999999943
21
-77.2000000000000028
0
ARC
8
BLACK
10
88.2000000000000028
20
-77.7000000000000028
40
0.5
50
0.00000000
51
90.00000000
0
LINE
8
BLACK
6
CONTINUOUS
10
203.
20
-78.2000000000000028
11
203.
21
-77.7000000000000028
0
LINE
8
BLACK
6
CONTINUOUS
10
196.
20
-77.7000000000000028
11
196.
21
-78.2000000000000028
0
LINE
8
BLACK
6
CONTINUOUS
10
196.5
20
-92.2000000000000028
11
202.5
21
-92.2000000000000028
0
LINE
8
BLACK
6
CONTINUOUS
10
202.5
20
-77.2000000000000028
11
196.5
21
-77.2000000000000028
0
ARC
8
BLACK
10
196.5
20
-77.7000000000000028
40
0.5
50
90.00000000
51
180.00000000
0
ARC
8
BLACK
10
202.5
20
-77.7000000000000028
40
0.5
50
0.00000000
51
90.00000000
0
LINE
8
BLACK
6
CONTINUOUS
10
148.3432499999999834
20
-78.2000000000000028
11
136.9437499999999943
21
-78.2000000000000028
0
LINE
8
BLACK
6
CONTINUOUS
10
148.8432499999999834
20
-92.2000000000000028
11
148.8499999999999943
21
-92.2000000000000028
0
LINE
8
BLACK
6
CONTINUOUS
10
136.9437499999999943
20
-92.2000000000000028
11
148.8432499999999834
21
-92.2000000000000028
0
LINE
8
BLACK
6
CONTINUOUS
10
76.9437499999999943
20
-77.7000000000000028
11
76.9437499999999943
21
-91.7068999999999903
0
LINE
8
BLACK
6
CONTINUOUS
10
82.2000000000000028
20
-92.2000000000000028
11
83.4437499999999943
21
-92.2000000000000028
0
LINE
8
BLACK
6
CONTINUOUS
10
78.7000000000000028
20
-92.2000000000000028
11
82.2000000000000028
21
-92.2000000000000028
0
LINE
8
BLACK
6
CONTINUOUS
10
77.443799999999996
20
-92.2000000000000028
11
78.7000000000000028
21
-92.2000000000000028
0
LINE
8
BLACK
6
CONTINUOUS
10
82.2000000000000028
20
-77.2000000000000028
11
77.4437499999999943
21
-77.2000000000000028
0
LINE
8
BLACK
6
CONTINUOUS
10
83.4437499999999943
20
-77.2000000000000028
11
82.2000000000000028
21
-77.2000000000000028
0
ARC
8
BLACK
10
77.4438999999999993
20
-91.6997999999999962
40
0.5002000099960014
50
-179.18669857
51
-90.01145457
0
ARC
8
BLACK
10
77.4436999999999927
20
-77.7000000000000028
40
0.4999499999999999
50
89.99427042
51
180.00000000
0
LINE
8
BLACK
6
CONTINUOUS
10
183.9437499999999943
20
-91.7000000000000028
11
183.9437499999999943
21
-88.2000000000000028
0
LINE
8
BLACK
6
CONTINUOUS
10
178.7192499999999882
20
-92.2000000000000028
11
183.4437499999999943
21
-92.2000000000000028
0
LINE
8
BLACK
6
CONTINUOUS
10
177.4437499999999943
20
-92.2000000000000028
11
178.7192499999999882
21
-92.2000000000000028
0
LINE
8
BLACK
6
CONTINUOUS
10
178.7192499999999882
20
-77.2000000000000028
11
177.4437499999999943
21
-77.2000000000000028
0
LINE
8
BLACK
6
CONTINUOUS
10
183.4436000000000035
20
-77.2000000000000028
11
178.7192499999999882
21
-77.2000000000000028
0
ARC
8
BLACK
10
183.4437999999999818
20
-91.7000000000000028
40
0.4999499999999999
50
-90.00572958
51
-0.00000000
0
LINE
8
BLACK
6
CONTINUOUS
10
124.5942499999999882
20
-78.2000000000000028
11
122.6563999999999908
21
-78.2000000000000028
0
LINE
8
BLACK
6
CONTINUOUS
10
135.8499999999999943
20
-78.2000000000000028
11
131.5942499999999882
21
-78.2000000000000028
0
LINE
8
BLACK
6
CONTINUOUS
10
136.9437499999999943
20
-78.2000000000000028
11
135.8499999999999943
21
-78.2000000000000028
0
LINE
8
BLACK
6
CONTINUOUS
10
135.8499999999999943
20
-92.2000000000000028
11
136.9437499999999943
21
-92.2000000000000028
0
LINE
8
BLACK
6
CONTINUOUS
10
131.0942499999999882
20
-92.2000000000000028
11
135.8499999999999943
21
-92.2000000000000028
0
LINE
8
BLACK
6
CONTINUOUS
10
125.0942499999999882
20
-92.2000000000000028
11
131.0942499999999882
21
-92.2000000000000028
0
LINE
8
BLACK
6
CONTINUOUS
10
52.0062499999999943
20
-78.7000000000000028
11
52.0062499999999943
21
-91.7068999999999903
0
LINE
8
BLACK
6
CONTINUOUS
10
54.8874999999999957
20
-78.2000000000000028
11
52.5062499999999943
21
-78.2000000000000028
0
LINE
8
BLACK
6
CONTINUOUS
10
52.5063999999999993
20
-92.2000000000000028
11
54.8874999999999957
21
-92.2000000000000028
0
ARC
8
BLACK
10
52.5061999999999998
20
-78.7000000000000028
40
0.4999499999999999
50
89.99427042
51
180.00000000
0
ARC
8
BLACK
10
52.5063999999999993
20
-91.6997999999999962
40
0.5002
50
-179.18669857
51
-90.00000000
0
LINE
8
BLACK
6
CONTINUOUS
10
68.3875000000000028
20
-91.7000000000000028
11
68.3875000000000028
21
-78.7000000000000028
0
LINE
8
BLACK
6
CONTINUOUS
10
65.5062499999999943
20
-78.2000000000000028
11
54.8874999999999957
21
-78.2000000000000028
0
LINE
8
BLACK
6
CONTINUOUS
10
67.8875000000000028
20
-78.2000000000000028
11
65.5062499999999943
21
-78.2000000000000028
0
LINE
8
BLACK
6
CONTINUOUS
10
65.5062499999999943
20
-92.2000000000000028
11
67.8875000000000028
21
-92.2000000000000028
0
LINE
8
BLACK
6
CONTINUOUS
10
54.8874999999999957
20
-92.2000000000000028
11
65.5062499999999943
21
-92.2000000000000028
0
ARC
8
BLACK
10
67.8875000000000028
20
-78.7000000000000028
40
0.5
50
0.00000000
51
90.00000000
0
ARC
8
BLACK
10
67.8875000000000028
20
-91.7000000000000028
40
0.5
50
-90.00000000
51
-0.00000000
0
LINE
8
BLACK
6
CONTINUOUS
10
44.5749999999999957
20
-91.7000000000000028
11
44.5749999999999957
21
-78.7000000000000028
0
LINE
8
BLACK
6
CONTINUOUS
10
44.0749999999999957
20
-78.2000000000000028
11
41.6937500000000014
21
-78.2000000000000028
0
LINE
8
BLACK
6
CONTINUOUS
10
41.6937500000000014
20
-92.2000000000000028
11
44.0749999999999957
21
-92.2000000000000028
0
ARC
8
BLACK
10
44.0749999999999957
20
-78.7000000000000028
40
0.5
50
0.00000000
51
90.00000000
0
ARC
8
BLACK
10
44.0749999999999957
20
-91.7000000000000028
40
0.5
50
-90.00000000
51
-0.00000000
0
LINE
8
BLACK
6
CONTINUOUS
10
28.1937499999999979
20
-78.7000000000000028
11
28.1937499999999979
21
-91.7068999999999903
0
LINE
8
BLACK
6
CONTINUOUS
10
31.0749999999999993
20
-78.2000000000000028
11
28.6937499999999979
21
-78.2000000000000028
0
LINE
8
BLACK
6
CONTINUOUS
10
41.6937500000000014
20
-78.2000000000000028
11
31.0749999999999993
21
-78.2000000000000028
0
LINE
8
BLACK
6
CONTINUOUS
10
31.0749999999999993
20
-92.2000000000000028
11
41.6937500000000014
21
-92.2000000000000028
0
LINE
8
BLACK
6
CONTINUOUS
10
28.6938999999999993
20
-92.2000000000000028
11
31.0749999999999993
21
-92.2000000000000028
0
ARC
8
BLACK
10
28.6936999999999998
20
-78.7000000000000028
40
0.4999499999999999
50
89.99427042
51
180.00000000
0
ARC
8
BLACK
10
28.6938999999999993
20
-91.6997999999999962
40
0.5002
50
-179.18669857
51
-90.00000000
0
LINE
8
BLACK
6
CONTINUOUS
10
4.3812499999999996
20
-78.7000000000000028
11
4.3812499999999996
21
-91.7000000000000028
0
LINE
8
BLACK
6
CONTINUOUS
10
7.2624999999999993
20
-78.2000000000000028
11
4.8812499999999996
21
-78.2000000000000028
0
LINE
8
BLACK
6
CONTINUOUS
10
4.8812499999999996
20
-92.2000000000000028
11
7.2624999999999993
21
-92.2000000000000028
0
ARC
8
BLACK
10
4.8812499999999996
20
-78.7000000000000028
40
0.5
50
90.00000000
51
180.00000000
0
ARC
8
BLACK
10
4.8812499999999996
20
-91.7000000000000028
40
0.5
50
-180.00000000
51
-90.00000000
0
LINE
8
BLACK
6
CONTINUOUS
10
20.7624999999999993
20
-91.7000000000000028
11
20.7624999999999993
21
-78.7000000000000028
0
LINE
8
BLACK
6
CONTINUOUS
10
17.8812499999999979
20
-78.2000000000000028
11
7.2624999999999993
21
-78.2000000000000028
0
LINE
8
BLACK
6
CONTINUOUS
10
20.2624999999999993
20
-78.2000000000000028
11
17.8812499999999979
21
-78.2000000000000028
0
LINE
8
BLACK
6
CONTINUOUS
10
17.8812499999999979
20
-92.2000000000000028
11
20.2624999999999993
21
-92.2000000000000028
0
LINE
8
BLACK
6
CONTINUOUS
10
7.2624999999999993
20
-92.2000000000000028
11
17.8812499999999979
21
-92.2000000000000028
0
ARC
8
BLACK
10
20.2624999999999993
20
-78.7000000000000028
40
0.5
50
0.00000000
51
90.00000000
0
ARC
8
BLACK
10
20.2624999999999993
20
-91.7000000000000028
40
0.5
50
-90.00000000
51
-0.00000000
0
LINE
8
BLACK
6
CONTINUOUS
10
274.4692499999999882
20
-73.1499999999999915
11
282.1999999999999886
21
-73.1499999999999915
0
ARC
8
BLACK
10
282.1999999999999886
20
-72.6499999999999915
40
0.5
50
-90.00000000
51
-0.00000000
0
LINE
8
BLACK
6
CONTINUOUS
10
267.4692499999999882
20
-59.6499999999999986
11
267.4692499999999882
21
-73.6568999999999932
0
LINE
8
BLACK
6
CONTINUOUS
10
274.4692499999999882
20
-73.6499999999999915
11
274.4692499999999882
21
-73.1499999999999915
0
LINE
8
BLACK
6
CONTINUOUS
10
269.1999999999999886
20
-59.1499999999999986
11
267.9692499999999882
21
-59.1499999999999986
0
LINE
8
BLACK
6
CONTINUOUS
10
273.9692499999999882
20
-59.1499999999999986
11
269.1999999999999886
21
-59.1499999999999986
0
LINE
8
BLACK
6
CONTINUOUS
10
267.9694000000000074
20
-74.1499999999999915
11
273.9692499999999882
21
-74.1499999999999915
0
ARC
8
BLACK
10
267.9692000000000007
20
-59.6499999999999986
40
0.4999499999999999
50
89.99427042
51
180.00000000
0
ARC
8
BLACK
10
273.9692999999999756
20
-73.6499999999999915
40
0.4999499999999999
50
-90.00572958
51
-0.00000000
0
ARC
8
BLACK
10
267.9694000000000074
20
-73.649799999999999
40
0.5002
50
-179.18669857
51
-90.00000000
0
LINE
8
BLACK
6
CONTINUOUS
10
243.5932499999999834
20
-73.1499999999999915
11
243.5932499999999834
21
-73.6568999999999932
0
LINE
8
BLACK
6
CONTINUOUS
10
250.5932499999999834
20
-73.6499999999999915
11
250.5932499999999834
21
-73.1499999999999915
0
LINE
8
BLACK
6
CONTINUOUS
10
244.0934000000000026
20
-74.1499999999999915
11
250.0932499999999834
21
-74.1499999999999915
0
ARC
8
BLACK
10
250.0932999999999993
20
-73.6499999999999915
40
0.4999499999999999
50
-90.00572958
51
-0.00000000
0
ARC
8
BLACK
10
244.0934000000000026
20
-73.649799999999999
40
0.5002
50
-179.18669857
51
-90.00000000
0
LINE
8
BLACK
6
CONTINUOUS
10
266.03125
20
-72.6499999999999915
11
266.03125
21
-59.6430289999999985
0
LINE
8
BLACK
6
CONTINUOUS
10
265.5310999999999808
20
-59.1499999999999986
11
256.0062499999999659
21
-59.1499999999999986
0
LINE
8
BLACK
6
CONTINUOUS
10
256.0062499999999659
20
-73.1499999999999915
11
265.53125
21
-73.1499999999999915
0
ARC
8
BLACK
10
265.5310999999999808
20
-59.6501999999999981
40
0.5002
50
0.82143334
51
90.00000000
0
ARC
8
BLACK
10
265.5312999999999874
20
-72.6499999999999915
40
0.4999499999999999
50
-90.00572958
51
-0.00000000
0
LINE
8
BLACK
6
CONTINUOUS
10
242.5062499999999943
20
-59.6499999999999986
11
242.5062499999999943
21
-72.6568999999999932
0
LINE
8
BLACK
6
CONTINUOUS
10
244.0932499999999834
20
-59.1499999999999986
11
243.0062499999999943
21
-59.1499999999999986
0
LINE
8
BLACK
6
CONTINUOUS
10
250.0932499999999834
20
-59.1499999999999986
11
244.0932499999999834
21
-59.1499999999999986
0
LINE
8
BLACK
6
CONTINUOUS
10
252.53125
20
-59.1499999999999986
11
250.0932499999999834
21
-59.1499999999999986
0
LINE
8
BLACK
6
CONTINUOUS
10
256.0062499999999659
20
-59.1499999999999986
11
252.53125
21
-59.1499999999999986
0
LINE
8
BLACK
6
CONTINUOUS
10
250.5932499999999834
20
-73.1499999999999915
11
252.53125
21
-73.1499999999999915
0
LINE
8
BLACK
6
CONTINUOUS
10
252.53125
20
-73.1499999999999915
11
256.0062499999999659
21
-73.1499999999999915
0
LINE
8
BLACK
6
CONTINUOUS
10
243.0063999999999851
20
-73.1499999999999915
11
243.5932499999999834
21
-73.1499999999999915
0
ARC
8
BLACK
10
243.0061999999999784
20
-59.6499999999999986
40
0.4999499999999999
50
89.99427042
51
180.00000000
0
ARC
8
BLACK
10
243.0063999999999851
20
-72.649799999999999
40
0.5002
50
-179.18669857
51
-90.00000000
0
LINE
8
BLACK
6
CONTINUOUS
10
216.3125
20
-59.6499999999999986
11
216.3125
21
-72.6499999999999915
0
LINE
8
BLACK
6
CONTINUOUS
10
230.3125
20
-72.6499999999999915
11
230.3125
21
-59.6499999999999986
0
LINE
8
BLACK
6
CONTINUOUS
10
229.8125
20
-59.1499999999999986
11
216.8125
21
-59.1499999999999986
0
LINE
8
BLACK
6
CONTINUOUS
10
216.8125
20
-73.1499999999999915
11
229.8125
21
-73.1499999999999915
0
ARC
8
BLACK
10
216.8125
20
-59.6499999999999986
40
0.5
50
90.00000000
51
180.00000000
0
ARC
8
BLACK
10
229.8125
20
-59.6499999999999986
40
0.5
50
0.00000000
51
90.00000000
0
ARC
8
BLACK
10
229.8125
20
-72.6499999999999915
40
0.5
50
-90.00000000
51
-0.00000000
0
ARC
8
BLACK
10
216.8125
20
-72.6499999999999915
40
0.5
50
-180.00000000
51
-90.00000000
0
LINE
8
BLACK
6
CONTINUOUS
10
197.2624999999999886
20
-59.6499999999999986
11
197.2624999999999886
21
-72.6499999999999915
0
LINE
8
BLACK
6
CONTINUOUS
10
211.2624999999999886
20
-72.6499999999999915
11
211.2624999999999886
21
-59.6499999999999986
0
LINE
8
BLACK
6
CONTINUOUS
10
210.7624999999999886
20
-59.1499999999999986
11
197.7624999999999886
21
-59.1499999999999986
0
LINE
8
BLACK
6
CONTINUOUS
10
197.7624999999999886
20
-73.1499999999999915
11
210.7624999999999886
21
-73.1499999999999915
0
ARC
8
BLACK
10
197.7624999999999886
20
-59.6499999999999986
40
0.5
50
90.00000000
51
180.00000000
0
ARC
8
BLACK
10
210.7624999999999886
20
-59.6499999999999986
40
0.5
50
0.00000000
51
90.00000000
0
ARC
8
BLACK
10
210.7624999999999886
20
-72.6499999999999915
40
0.5
50
-90.00000000
51
-0.00000000
0
ARC
8
BLACK
10
197.7624999999999886
20
-72.6499999999999915
40
0.5
50
-180.00000000
51
-90.00000000
0
LINE
8
BLACK
6
CONTINUOUS
10
178.2125000000000057
20
-59.6499999999999986
11
178.2125000000000057
21
-72.6499999999999915
0
LINE
8
BLACK
6
CONTINUOUS
10
192.2124999999999773
20
-72.6499999999999915
11
192.2124999999999773
21
-59.6499999999999986
0
LINE
8
BLACK
6
CONTINUOUS
10
191.7124999999999773
20
-59.1499999999999986
11
178.7125000000000057
21
-59.1499999999999986
0
LINE
8
BLACK
6
CONTINUOUS
10
178.7125000000000057
20
-73.1499999999999915
11
191.7124999999999773
21
-73.1499999999999915
0
ARC
8
BLACK
10
178.7125000000000057
20
-59.6499999999999986
40
0.5
50
90.00000000
51
180.00000000
0
ARC
8
BLACK
10
191.7124999999999773
20
-59.6499999999999986
40
0.5
50
0.00000000
51
90.00000000
0
ARC
8
BLACK
10
191.7124999999999773
20
-72.6499999999999915
40
0.5
50
-90.00000000
51
-0.00000000
0
ARC
8
BLACK
10
178.7125000000000057
20
-72.6499999999999915
40
0.5
50
-180.00000000
51
-90.00000000
0
LINE
8
BLACK
6
CONTINUOUS
10
159.1624999999999943
20
-59.6499999999999986
11
159.1624999999999943
21
-72.6499999999999915
0
LINE
8
BLACK
6
CONTINUOUS
10
173.1624999999999943
20
-72.6499999999999915
11
173.1624999999999943
21
-59.6499999999999986
0
LINE
8
BLACK
6
CONTINUOUS
10
172.6624999999999943
20
-59.1499999999999986
11
159.6624999999999943
21
-59.1499999999999986
0
LINE
8
BLACK
6
CONTINUOUS
10
159.6624999999999943
20
-73.1499999999999915
11
172.6624999999999943
21
-73.1499999999999915
0
ARC
8
BLACK
10
159.6624999999999943
20
-59.6499999999999986
40
0.5
50
90.00000000
51
180.00000000
0
ARC
8
BLACK
10
172.6624999999999943
20
-59.6499999999999986
40
0.5
50
0.00000000
51
90.00000000
0
ARC
8
BLACK
10
172.6624999999999943
20
-72.6499999999999915
40
0.5
50
-90.00000000
51
-0.00000000
0
ARC
8
BLACK
10
159.6624999999999943
20
-72.6499999999999915
40
0.5
50
-180.00000000
51
-90.00000000
0
LINE
8
BLACK
6
CONTINUOUS
10
140.1124999999999829
20
-59.6499999999999986
11
140.1124999999999829
21
-72.6499999999999915
0
LINE
8
BLACK
6
CONTINUOUS
10
154.1124999999999829
20
-72.6499999999999915
11
154.1124999999999829
21
-59.6499999999999986
0
LINE
8
BLACK
6
CONTINUOUS
10
153.6124999999999829
20
-59.1499999999999986
11
140.6124999999999829
21
-59.1499999999999986
0
LINE
8
BLACK
6
CONTINUOUS
10
140.6124999999999829
20
-73.1499999999999915
11
153.6124999999999829
21
-73.1499999999999915
0
ARC
8
BLACK
10
140.6124999999999829
20
-59.6499999999999986
40
0.5
50
90.00000000
51
180.00000000
0
ARC
8
BLACK
10
153.6124999999999829
20
-59.6499999999999986
40
0.5
50
0.00000000
51
90.00000000
0
ARC
8
BLACK
10
153.6124999999999829
20
-72.6499999999999915
40
0.5
50
-90.00000000
51
-0.00000000
0
ARC
8
BLACK
10
140.6124999999999829
20
-72.6499999999999915
40
0.5
50
-180.00000000
51
-90.00000000
0
LINE
8
BLACK
6
CONTINUOUS
10
121.0625
20
-59.6499999999999986
11
121.0625
21
-72.6499999999999915
0
LINE
8
BLACK
6
CONTINUOUS
10
135.0625
20
-72.6499999999999915
11
135.0625
21
-59.6499999999999986
0
LINE
8
BLACK
6
CONTINUOUS
10
134.5625
20
-59.1499999999999986
11
121.5625
21
-59.1499999999999986
0
LINE
8
BLACK
6
CONTINUOUS
10
121.5625
20
-73.1499999999999915
11
134.5625
21
-73.1499999999999915
0
ARC
8
BLACK
10
121.5625
20
-59.6499999999999986
40
0.5
50
90.00000000
51
180.00000000
0
ARC
8
BLACK
10
134.5625
20
-59.6499999999999986
40
0.5
50
0.00000000
51
90.00000000
0
ARC
8
BLACK
10
134.5625
20
-72.6499999999999915
40
0.5
50
-90.00000000
51
-0.00000000
0
ARC
8
BLACK
10
121.5625
20
-72.6499999999999915
40
0.5
50
-180.00000000
51
-90.00000000
0
LINE
8
BLACK
6
CONTINUOUS
10
102.0124999999999886
20
-59.6499999999999986
11
102.0124999999999886
21
-72.6499999999999915
0
LINE
8
BLACK
6
CONTINUOUS
10
116.0124999999999886
20
-72.6499999999999915
11
116.0124999999999886
21
-59.6499999999999986
0
LINE
8
BLACK
6
CONTINUOUS
10
115.5124999999999886
20
-59.1499999999999986
11
102.5124999999999886
21
-59.1499999999999986
0
LINE
8
BLACK
6
CONTINUOUS
10
102.5124999999999886
20
-73.1499999999999915
11
115.5124999999999886
21
-73.1499999999999915
0
ARC
8
BLACK
10
102.5124999999999886
20
-59.6499999999999986
40
0.5
50
90.00000000
51
180.00000000
0
ARC
8
BLACK
10
115.5124999999999886
20
-59.6499999999999986
40
0.5
50
0.00000000
51
90.00000000
0
ARC
8
BLACK
10
115.5124999999999886
20
-72.6499999999999915
40
0.5
50
-90.00000000
51
-0.00000000
0
ARC
8
BLACK
10
102.5124999999999886
20
-72.6499999999999915
40
0.5
50
-180.00000000
51
-90.00000000
0
LINE
8
BLACK
6
CONTINUOUS
10
82.9624999999999915
20
-59.6499999999999986
11
82.9624999999999915
21
-72.6499999999999915
0
LINE
8
BLACK
6
CONTINUOUS
10
96.9624999999999915
20
-72.6499999999999915
11
96.9624999999999915
21
-59.6499999999999986
0
LINE
8
BLACK
6
CONTINUOUS
10
96.4624999999999915
20
-59.1499999999999986
11
83.4624999999999915
21
-59.1499999999999986
0
LINE
8
BLACK
6
CONTINUOUS
10
83.4624999999999915
20
-73.1499999999999915
11
96.4624999999999915
21
-73.1499999999999915
0
ARC
8
BLACK
10
83.4624999999999915
20
-59.6499999999999986
40
0.5
50
90.00000000
51
180.00000000
0
ARC
8
BLACK
10
96.4624999999999915
20
-59.6499999999999986
40
0.5
50
0.00000000
51
90.00000000
0
ARC
8
BLACK
10
96.4624999999999915
20
-72.6499999999999915
40
0.5
50
-90.00000000
51
-0.00000000
0
ARC
8
BLACK
10
83.4624999999999915
20
-72.6499999999999915
40
0.5
50
-180.00000000
51
-90.00000000
0
LINE
8
BLACK
6
CONTINUOUS
10
63.9124999999999943
20
-59.6499999999999986
11
63.9124999999999943
21
-72.6499999999999915
0
LINE
8
BLACK
6
CONTINUOUS
10
77.9124999999999943
20
-72.6499999999999915
11
77.9124999999999943
21
-59.6499999999999986
0
LINE
8
BLACK
6
CONTINUOUS
10
77.4124999999999943
20
-59.1499999999999986
11
64.4124999999999943
21
-59.1499999999999986
0
LINE
8
BLACK
6
CONTINUOUS
10
64.4124999999999943
20
-73.1499999999999915
11
77.4124999999999943
21
-73.1499999999999915
0
ARC
8
BLACK
10
64.4124999999999943
20
-59.6499999999999986
40
0.5
50
90.00000000
51
180.00000000
0
ARC
8
BLACK
10
77.4124999999999943
20
-59.6499999999999986
40
0.5
50
0.00000000
51
90.00000000
0
ARC
8
BLACK
10
77.4124999999999943
20
-72.6499999999999915
40
0.5
50
-90.00000000
51
-0.00000000
0
ARC
8
BLACK
10
64.4124999999999943
20
-72.6499999999999915
40
0.5
50
-180.00000000
51
-90.00000000
0
LINE
8
BLACK
6
CONTINUOUS
10
44.8624999999999972
20
-59.6499999999999986
11
44.8624999999999972
21
-72.6499999999999915
0
LINE
8
BLACK
6
CONTINUOUS
10
58.8624999999999972
20
-72.6499999999999915
11
58.8624999999999972
21
-59.6499999999999986
0
LINE
8
BLACK
6
CONTINUOUS
10
58.3624999999999972
20
-59.1499999999999986
11
45.3624999999999972
21
-59.1499999999999986
0
LINE
8
BLACK
6
CONTINUOUS
10
45.3624999999999972
20
-73.1499999999999915
11
58.3624999999999972
21
-73.1499999999999915
0
ARC
8
BLACK
10
45.3624999999999972
20
-59.6499999999999986
40
0.5
50
90.00000000
51
180.00000000
0
ARC
8
BLACK
10
58.3624999999999972
20
-59.6499999999999986
40
0.5
50
0.00000000
51
90.00000000
0
ARC
8
BLACK
10
58.3624999999999972
20
-72.6499999999999915
40
0.5
50
-90.00000000
51
-0.00000000
0
ARC
8
BLACK
10
45.3624999999999972
20
-72.6499999999999915
40
0.5
50
-180.00000000
51
-90.00000000
0
LINE
8
BLACK
6
CONTINUOUS
10
29.3442499999999988
20
-59.6499999999999986
11
29.3442499999999988
21
-73.6568999999999932
0
LINE
8
BLACK
6
CONTINUOUS
10
36.3442499999999953
20
-73.6499999999999915
11
36.3442499999999953
21
-59.6430289999999985
0
LINE
8
BLACK
6
CONTINUOUS
10
35.8442000000000007
20
-59.1499999999999986
11
29.8442499999999988
21
-59.1499999999999986
0
LINE
8
BLACK
6
CONTINUOUS
10
29.8444000000000003
20
-74.1499999999999915
11
35.8442499999999953
21
-74.1499999999999915
0
ARC
8
BLACK
10
29.8441999999999972
20
-59.6499999999999986
40
0.4999499999999999
50
89.99427042
51
180.00000000
0
ARC
8
BLACK
10
35.8440999999999974
20
-59.6501999999999981
40
0.5002000099960014
50
0.82143334
51
89.98854543
0
ARC
8
BLACK
10
35.8442999999999969
20
-73.6499999999999915
40
0.4999499999999999
50
-90.00572958
51
-0.00000000
0
ARC
8
BLACK
10
29.8444000000000003
20
-73.649799999999999
40
0.5002
50
-179.18669857
51
-90.00000000
0
LINE
8
BLACK
6
CONTINUOUS
10
5.4682499999999994
20
-59.6499999999999986
11
5.4682499999999994
21
-73.6499999999999915
0
LINE
8
BLACK
6
CONTINUOUS
10
12.4682499999999994
20
-73.650030000000001
11
12.4682499999999994
21
-59.6430289999999985
0
LINE
8
BLACK
6
CONTINUOUS
10
11.9680999999999997
20
-59.1499999999999986
11
5.9682499999999994
21
-59.1499999999999986
0
LINE
8
BLACK
6
CONTINUOUS
10
5.9682499999999994
20
-74.1499999999999915
11
11.96828
21
-74.1499999999999915
0
ARC
8
BLACK
10
5.9682499999999994
20
-59.6499999999999986
40
0.5
50
90.00000000
51
180.00000000
0
ARC
8
BLACK
10
11.9680999999999997
20
-59.6501999999999981
40
0.5002
50
0.82143334
51
90.00000000
0
ARC
8
BLACK
10
11.96828
20
-73.650030000000001
40
0.49997
50
-90.00000000
51
-0.00000000
0
ARC
8
BLACK
10
5.9682499999999994
20
-73.6499999999999915
40
0.5
50
-180.00000000
51
-90.00000000
0
LINE
8
BLACK
6
CONTINUOUS
10
13.90625
20
-59.6499999999999986
11
13.90625
21
-72.6568999999999932
0
LINE
8
BLACK
6
CONTINUOUS
10
27.90625
20
-72.6499999999999915
11
27.90625
21
-59.6430289999999985
0
LINE
8
BLACK
6
CONTINUOUS
10
27.4061999999999983
20
-59.1499999999999986
11
14.40625
21
-59.1499999999999986
0
LINE
8
BLACK
6
CONTINUOUS
10
14.4063999999999997
20
-73.1499999999999915
11
27.40625
21
-73.1499999999999915
0
ARC
8
BLACK
10
14.4062000000000001
20
-59.6499999999999986
40
0.4999499999999999
50
89.99427042
51
180.00000000
0
ARC
8
BLACK
10
27.4060999999999986
20
-59.6501999999999981
40
0.5002000099960014
50
0.82143334
51
89.98854543
0
ARC
8
BLACK
10
27.4062999999999981
20
-72.6499999999999915
40
0.4999499999999999
50
-90.00572958
51
-0.00000000
0
ARC
8
BLACK
10
14.4063999999999997
20
-72.649799999999999
40
0.5002
50
-179.18669857
51
-90.00000000
0
LINE
8
BLACK
6
CONTINUOUS
10
272.2317499999999768
20
-40.6000000000000014
11
272.2317499999999768
21
-54.606899999999996
0
LINE
8
BLACK
6
CONTINUOUS
10
279.2317499999999768
20
-54.5999999999999943
11
279.2317499999999768
21
-40.5930290000000014
0
LINE
8
BLACK
6
CONTINUOUS
10
278.7316999999999894
20
-40.1000000000000014
11
272.7317499999999768
21
-40.1000000000000014
0
LINE
8
BLACK
6
CONTINUOUS
10
272.7317999999999643
20
-55.0999999999999943
11
278.7317499999999768
21
-55.0999999999999943
0
ARC
8
BLACK
10
272.7316999999999894
20
-40.6000000000000014
40
0.4999499999999999
50
89.99427042
51
180.00000000
0
ARC
8
BLACK
10
278.7316000000000145
20
-40.600200000000001
40
0.5002000099960014
50
0.82143334
51
89.98854543
0
ARC
8
BLACK
10
278.7317999999999643
20
-54.5999999999999943
40
0.4999499999999999
50
-90.00572958
51
-0.00000000
0
ARC
8
BLACK
10
272.731899999999996
20
-54.5997999999999948
40
0.5002000099960014
50
-179.18669857
51
-90.01145457
0
LINE
8
BLACK
6
CONTINUOUS
10
248.3557500000000005
20
-40.6000000000000014
11
248.3557500000000005
21
-54.606899999999996
0
LINE
8
BLACK
6
CONTINUOUS
10
255.3557500000000005
20
-54.5999999999999943
11
255.3557500000000005
21
-40.5930290000000014
0
LINE
8
BLACK
6
CONTINUOUS
10
254.8556999999999846
20
-40.1000000000000014
11
248.8557500000000005
21
-40.1000000000000014
0
LINE
8
BLACK
6
CONTINUOUS
10
248.8558999999999912
20
-55.0999999999999943
11
254.8557500000000005
21
-55.0999999999999943
0
ARC
8
BLACK
10
248.8556999999999846
20
-40.6000000000000014
40
0.4999499999999999
50
89.99427042
51
180.00000000
0
ARC
8
BLACK
10
254.8555999999999813
20
-40.600200000000001
40
0.5002000099960014
50
0.82143334
51
89.98854543
0
ARC
8
BLACK
10
254.8557999999999879
20
-54.5999999999999943
40
0.4999499999999999
50
-90.00572958
51
-0.00000000
0
ARC
8
BLACK
10
248.8558999999999912
20
-54.5997999999999948
40
0.5002
50
-179.18669857
51
-90.00000000
0
LINE
8
BLACK
6
CONTINUOUS
10
256.7937499999999886
20
-40.6000000000000014
11
256.7937499999999886
21
-53.606899999999996
0
LINE
8
BLACK
6
CONTINUOUS
10
270.7937499999999886
20
-53.5999999999999943
11
270.7937499999999886
21
-40.5930290000000014
0
LINE
8
BLACK
6
CONTINUOUS
10
270.2937000000000012
20
-40.1000000000000014
11
257.2937499999999886
21
-40.1000000000000014
0
LINE
8
BLACK
6
CONTINUOUS
10
257.2937999999999761
20
-54.0999999999999943
11
270.2937499999999886
21
-54.0999999999999943
0
ARC
8
BLACK
10
257.2937000000000012
20
-40.6000000000000014
40
0.4999499999999999
50
89.99427042
51
180.00000000
0
ARC
8
BLACK
10
270.2935999999999694
20
-40.600200000000001
40
0.5002000099960014
50
0.82143334
51
89.98854543
0
ARC
8
BLACK
10
270.2937999999999761
20
-53.5999999999999943
40
0.4999499999999999
50
-90.00572958
51
-0.00000000
0
ARC
8
BLACK
10
257.2939000000000078
20
-53.5997999999999948
40
0.5002000099960014
50
-179.18669857
51
-90.01145457
0
LINE
8
BLACK
6
CONTINUOUS
10
225.8374999999999773
20
-40.6000000000000014
11
225.8374999999999773
21
-53.5999999999999943
0
LINE
8
BLACK
6
CONTINUOUS
10
239.8374999999999773
20
-53.5999999999999943
11
239.8374999999999773
21
-40.6000000000000014
0
LINE
8
BLACK
6
CONTINUOUS
10
239.3374999999999773
20
-40.1000000000000014
11
226.3374999999999773
21
-40.1000000000000014
0
LINE
8
BLACK
6
CONTINUOUS
10
226.3374999999999773
20
-54.0999999999999943
11
239.3374999999999773
21
-54.0999999999999943
0
ARC
8
BLACK
10
226.3374999999999773
20
-40.6000000000000014
40
0.5
50
90.00000000
51
180.00000000
0
ARC
8
BLACK
10
239.3374999999999773
20
-40.6000000000000014
40
0.5
50
0.00000000
51
90.00000000
0
ARC
8
BLACK
10
239.3374999999999773
20
-53.5999999999999943
40
0.5
50
-90.00000000
51
-0.00000000
0
ARC
8
BLACK
10
226.3374999999999773
20
-53.5999999999999943
40
0.5
50
-180.00000000
51
-90.00000000
0
LINE
8
BLACK
6
CONTINUOUS
10
206.7874999999999943
20
-40.6000000000000014
11
206.7874999999999943
21
-53.5999999999999943
0
LINE
8
BLACK
6
CONTINUOUS
10
220.7874999999999943
20
-53.5999999999999943
11
220.7874999999999943
21
-40.6000000000000014
0
LINE
8
BLACK
6
CONTINUOUS
10
220.2874999999999943
20
-40.1000000000000014
11
207.2874999999999943
21
-40.1000000000000014
0
LINE
8
BLACK
6
CONTINUOUS
10
207.2874999999999943
20
-54.0999999999999943
11
220.2874999999999943
21
-54.0999999999999943
0
ARC
8
BLACK
10
207.2874999999999943
20
-40.6000000000000014
40
0.5
50
90.00000000
51
180.00000000
0
ARC
8
BLACK
10
220.2874999999999943
20
-40.6000000000000014
40
0.5
50
0.00000000
51
90.00000000
0
ARC
8
BLACK
10
220.2874999999999943
20
-53.5999999999999943
40
0.5
50
-90.00000000
51
-0.00000000
0
ARC
8
BLACK
10
207.2874999999999943
20
-53.5999999999999943
40
0.5
50
-180.00000000
51
-90.00000000
0
LINE
8
BLACK
6
CONTINUOUS
10
187.7374999999999829
20
-40.6000000000000014
11
187.7374999999999829
21
-53.5999999999999943
0
LINE
8
BLACK
6
CONTINUOUS
10
201.7374999999999829
20
-53.5999999999999943
11
201.7374999999999829
21
-40.6000000000000014
0
LINE
8
BLACK
6
CONTINUOUS
10
201.2374999999999829
20
-40.1000000000000014
11
188.2374999999999829
21
-40.1000000000000014
0
LINE
8
BLACK
6
CONTINUOUS
10
188.2374999999999829
20
-54.0999999999999943
11
201.2374999999999829
21
-54.0999999999999943
0
ARC
8
BLACK
10
188.2374999999999829
20
-40.6000000000000014
40
0.5
50
90.00000000
51
180.00000000
0
ARC
8
BLACK
10
201.2374999999999829
20
-40.6000000000000014
40
0.5
50
0.00000000
51
90.00000000
0
ARC
8
BLACK
10
201.2374999999999829
20
-53.5999999999999943
40
0.5
50
-90.00000000
51
-0.00000000
0
ARC
8
BLACK
10
188.2374999999999829
20
-53.5999999999999943
40
0.5
50
-180.00000000
51
-90.00000000
0
LINE
8
BLACK
6
CONTINUOUS
10
168.6875
20
-40.6000000000000014
11
168.6875
21
-53.5999999999999943
0
LINE
8
BLACK
6
CONTINUOUS
10
182.6875
20
-53.5999999999999943
11
182.6875
21
-40.6000000000000014
0
LINE
8
BLACK
6
CONTINUOUS
10
182.1875
20
-40.1000000000000014
11
169.1875
21
-40.1000000000000014
0
LINE
8
BLACK
6
CONTINUOUS
10
169.1875
20
-54.0999999999999943
11
182.1875
21
-54.0999999999999943
0
ARC
8
BLACK
10
169.1875
20
-40.6000000000000014
40
0.5
50
90.00000000
51
180.00000000
0
ARC
8
BLACK
10
182.1875
20
-40.6000000000000014
40
0.5
50
0.00000000
51
90.00000000
0
ARC
8
BLACK
10
182.1875
20
-53.5999999999999943
40
0.5
50
-90.00000000
51
-0.00000000
0
ARC
8
BLACK
10
169.1875
20
-53.5999999999999943
40
0.5
50
-180.00000000
51
-90.00000000
0
LINE
8
BLACK
6
CONTINUOUS
10
149.6374999999999886
20
-40.6000000000000014
11
149.6374999999999886
21
-53.5999999999999943
0
LINE
8
BLACK
6
CONTINUOUS
10
163.6374999999999886
20
-53.5999999999999943
11
163.6374999999999886
21
-40.6000000000000014
0
LINE
8
BLACK
6
CONTINUOUS
10
163.1374999999999886
20
-40.1000000000000014
11
150.1374999999999886
21
-40.1000000000000014
0
LINE
8
BLACK
6
CONTINUOUS
10
150.1374999999999886
20
-54.0999999999999943
11
163.1374999999999886
21
-54.0999999999999943
0
ARC
8
BLACK
10
150.1374999999999886
20
-40.6000000000000014
40
0.5
50
90.00000000
51
180.00000000
0
ARC
8
BLACK
10
163.1374999999999886
20
-40.6000000000000014
40
0.5
50
0.00000000
51
90.00000000
0
ARC
8
BLACK
10
163.1374999999999886
20
-53.5999999999999943
40
0.5
50
-90.00000000
51
-0.00000000
0
ARC
8
BLACK
10
150.1374999999999886
20
-53.5999999999999943
40
0.5
50
-180.00000000
51
-90.00000000
0
LINE
8
BLACK
6
CONTINUOUS
10
130.5875000000000057
20
-40.6000000000000014
11
130.5875000000000057
21
-44.1000000000000014
0
LINE
8
BLACK
6
CONTINUOUS
10
144.5875000000000057
20
-53.5999999999999943
11
144.5875000000000057
21
-40.6000000000000014
0
LINE
8
BLACK
6
CONTINUOUS
10
144.0875000000000057
20
-40.1000000000000014
11
131.0875000000000057
21
-40.1000000000000014
0
LINE
8
BLACK
6
CONTINUOUS
10
131.0875000000000057
20
-54.0999999999999943
11
144.0875000000000057
21
-54.0999999999999943
0
ARC
8
BLACK
10
131.0875000000000057
20
-40.6000000000000014
40
0.5
50
90.00000000
51
180.00000000
0
ARC
8
BLACK
10
144.0875000000000057
20
-40.6000000000000014
40
0.5
50
0.00000000
51
90.00000000
0
ARC
8
BLACK
10
144.0875000000000057
20
-53.5999999999999943
40
0.5
50
-90.00000000
51
-0.00000000
0
ARC
8
BLACK
10
131.0875000000000057
20
-53.5999999999999943
40
0.5
50
-180.00000000
51
-90.00000000
0
LINE
8
BLACK
6
CONTINUOUS
10
111.5374999999999943
20
-40.6000000000000014
11
111.5374999999999943
21
-53.5999999999999943
0
LINE
8
BLACK
6
CONTINUOUS
10
125.5374999999999943
20
-44.1000000000000014
11
125.5374999999999943
21
-40.6000000000000014
0
LINE
8
BLACK
6
CONTINUOUS
10
125.0374999999999943
20
-40.1000000000000014
11
112.0374999999999943
21
-40.1000000000000014
0
LINE
8
BLACK
6
CONTINUOUS
10
112.0374999999999943
20
-54.0999999999999943
11
125.0374999999999943
21
-54.0999999999999943
0
ARC
8
BLACK
10
112.0374999999999943
20
-40.6000000000000014
40
0.5
50
90.00000000
51
180.00000000
0
ARC
8
BLACK
10
125.0374999999999943
20
-40.6000000000000014
40
0.5
50
0.00000000
51
90.00000000
0
ARC
8
BLACK
10
125.0374999999999943
20
-53.5999999999999943
40
0.5
50
-90.00000000
51
-0.00000000
0
ARC
8
BLACK
10
112.0374999999999943
20
-53.5999999999999943
40
0.5
50
-180.00000000
51
-90.00000000
0
LINE
8
BLACK
6
CONTINUOUS
10
92.4874999999999972
20
-40.6000000000000014
11
92.4874999999999972
21
-53.5999999999999943
0
LINE
8
BLACK
6
CONTINUOUS
10
106.4874999999999972
20
-53.5999999999999943
11
106.4874999999999972
21
-40.6000000000000014
0
LINE
8
BLACK
6
CONTINUOUS
10
105.9874999999999972
20
-40.1000000000000014
11
92.9874999999999972
21
-40.1000000000000014
0
LINE
8
BLACK
6
CONTINUOUS
10
92.9874999999999972
20
-54.0999999999999943
11
105.9874999999999972
21
-54.0999999999999943
0
ARC
8
BLACK
10
92.9874999999999972
20
-40.6000000000000014
40
0.5
50
90.00000000
51
180.00000000
0
ARC
8
BLACK
10
105.9874999999999972
20
-40.6000000000000014
40
0.5
50
0.00000000
51
90.00000000
0
ARC
8
BLACK
10
105.9874999999999972
20
-53.5999999999999943
40
0.5
50
-90.00000000
51
-0.00000000
0
ARC
8
BLACK
10
92.9874999999999972
20
-53.5999999999999943
40
0.5
50
-180.00000000
51
-90.00000000
0
LINE
8
BLACK
6
CONTINUOUS
10
73.4375
20
-40.6000000000000014
11
73.4375
21
-53.5999999999999943
0
LINE
8
BLACK
6
CONTINUOUS
10
87.4375
20
-53.5999999999999943
11
87.4375
21
-40.6000000000000014
0
LINE
8
BLACK
6
CONTINUOUS
10
86.9375
20
-40.1000000000000014
11
73.9375
21
-40.1000000000000014
0
LINE
8
BLACK
6
CONTINUOUS
10
73.9375
20
-54.0999999999999943
11
86.9375
21
-54.0999999999999943
0
ARC
8
BLACK
10
73.9375
20
-40.6000000000000014
40
0.5
50
90.00000000
51
180.00000000
0
ARC
8
BLACK
10
86.9375
20
-40.6000000000000014
40
0.5
50
0.00000000
51
90.00000000
0
ARC
8
BLACK
10
86.9375
20
-53.5999999999999943
40
0.5
50
-90.00000000
51
-0.00000000
0
ARC
8
BLACK
10
73.9375
20
-53.5999999999999943
40
0.5
50
-180.00000000
51
-90.00000000
0
LINE
8
BLACK
6
CONTINUOUS
10
54.3874999999999957
20
-40.6000000000000014
11
54.3874999999999957
21
-53.5999999999999943
0
LINE
8
BLACK
6
CONTINUOUS
10
68.3875000000000028
20
-53.5999999999999943
11
68.3875000000000028
21
-40.6000000000000014
0
LINE
8
BLACK
6
CONTINUOUS
10
67.8875000000000028
20
-40.1000000000000014
11
54.8874999999999957
21
-40.1000000000000014
0
LINE
8
BLACK
6
CONTINUOUS
10
54.8874999999999957
20
-54.0999999999999943
11
67.8875000000000028
21
-54.0999999999999943
0
ARC
8
BLACK
10
54.8874999999999957
20
-40.6000000000000014
40
0.5
50
90.00000000
51
180.00000000
0
ARC
8
BLACK
10
67.8875000000000028
20
-40.6000000000000014
40
0.5
50
0.00000000
51
90.00000000
0
ARC
8
BLACK
10
67.8875000000000028
20
-53.5999999999999943
40
0.5
50
-90.00000000
51
-0.00000000
0
ARC
8
BLACK
10
54.8874999999999957
20
-53.5999999999999943
40
0.5
50
-180.00000000
51
-90.00000000
0
LINE
8
BLACK
6
CONTINUOUS
10
35.3374999999999986
20
-40.6000000000000014
11
35.3374999999999986
21
-53.5999999999999943
0
LINE
8
BLACK
6
CONTINUOUS
10
49.3374999999999986
20
-53.5999999999999943
11
49.3374999999999986
21
-40.6000000000000014
0
LINE
8
BLACK
6
CONTINUOUS
10
48.8374999999999986
20
-40.1000000000000014
11
35.8374999999999986
21
-40.1000000000000014
0
LINE
8
BLACK
6
CONTINUOUS
10
35.8374999999999986
20
-54.0999999999999943
11
48.8374999999999986
21
-54.0999999999999943
0
ARC
8
BLACK
10
35.8374999999999986
20
-40.6000000000000014
40
0.5
50
90.00000000
51
180.00000000
0
ARC
8
BLACK
10
48.8374999999999986
20
-40.6000000000000014
40
0.5
50
0.00000000
51
90.00000000
0
ARC
8
BLACK
10
48.8374999999999986
20
-53.5999999999999943
40
0.5
50
-90.00000000
51
-0.00000000
0
ARC
8
BLACK
10
35.8374999999999986
20
-53.5999999999999943
40
0.5
50
-180.00000000
51
-90.00000000
0
LINE
8
BLACK
6
CONTINUOUS
10
9.1437499999999989
20
-40.599969999999999
11
9.1437499999999989
21
-53.606899999999996
0
LINE
8
BLACK
6
CONTINUOUS
10
23.1437500000000007
20
-53.5999999999999943
11
23.1437500000000007
21
-40.5930290000000014
0
LINE
8
BLACK
6
CONTINUOUS
10
22.6436999999999991
20
-40.1000000000000014
11
9.6437200000000001
21
-40.1000000000000014
0
LINE
8
BLACK
6
CONTINUOUS
10
9.6437999999999988
20
-54.0999999999999943
11
22.6437500000000007
21
-54.0999999999999943
0
ARC
8
BLACK
10
9.6437200000000001
20
-40.599969999999999
40
0.49997
50
90.00000000
51
180.00000000
0
ARC
8
BLACK
10
22.6435999999999993
20
-40.600200000000001
40
0.5002000099960014
50
0.82143334
51
89.98854543
0
ARC
8
BLACK
10
22.6437999999999988
20
-53.5999999999999943
40
0.4999499999999999
50
-90.00572958
51
-0.00000000
0
ARC
8
BLACK
10
9.6439000000000004
20
-53.5997999999999948
40
0.5002000099960014
50
-179.18669857
51
-90.01145457
0
LINE
8
BLACK
6
CONTINUOUS
10
263.9375
20
-31.0499999999999972
11
263.9375
21
-34.5499999999999972
0
LINE
8
BLACK
6
CONTINUOUS
10
277.9375
20
-34.5499999999999972
11
277.9375
21
-21.5500000000000007
0
LINE
8
BLACK
6
CONTINUOUS
10
277.4375
20
-21.0500000000000007
11
264.4375
21
-21.0500000000000007
0
LINE
8
BLACK
6
CONTINUOUS
10
264.4375
20
-35.0499999999999972
11
277.4375
21
-35.0499999999999972
0
ARC
8
BLACK
10
264.4375
20
-21.5500000000000007
40
0.5
50
90.00000000
51
180.00000000
0
ARC
8
BLACK
10
277.4375
20
-21.5500000000000007
40
0.5
50
0.00000000
51
90.00000000
0
ARC
8
BLACK
10
277.4375
20
-34.5499999999999972
40
0.5
50
-90.00000000
51
-0.00000000
0
ARC
8
BLACK
10
264.4375
20
-34.5499999999999972
40
0.5
50
-180.00000000
51
-90.00000000
0
LINE
8
BLACK
6
CONTINUOUS
10
240.125
20
-21.5500000000000007
11
240.125
21
-34.5499999999999972
0
LINE
8
BLACK
6
CONTINUOUS
10
254.125
20
-25.0499999999999972
11
254.125
21
-21.5500000000000007
0
LINE
8
BLACK
6
CONTINUOUS
10
253.625
20
-21.0500000000000007
11
240.625
21
-21.0500000000000007
0
LINE
8
BLACK
6
CONTINUOUS
10
240.625
20
-35.0499999999999972
11
253.625
21
-35.0499999999999972
0
ARC
8
BLACK
10
240.625
20
-21.5500000000000007
40
0.5
50
90.00000000
51
180.00000000
0
ARC
8
BLACK
10
253.625
20
-21.5500000000000007
40
0.5
50
0.00000000
51
90.00000000
0
ARC
8
BLACK
10
253.625
20
-34.5499999999999972
40
0.5
50
-90.00000000
51
-0.00000000
0
ARC
8
BLACK
10
240.625
20
-34.5499999999999972
40
0.5
50
-180.00000000
51
-90.00000000
0
LINE
8
BLACK
6
CONTINUOUS
10
221.0749999999999886
20
-21.5500000000000007
11
221.0749999999999886
21
-34.5499999999999972
0
LINE
8
BLACK
6
CONTINUOUS
10
235.0749999999999886
20
-34.5499999999999972
11
235.0749999999999886
21
-21.5500000000000007
0
LINE
8
BLACK
6
CONTINUOUS
10
234.5749999999999886
20
-21.0500000000000007
11
221.5749999999999886
21
-21.0500000000000007
0
LINE
8
BLACK
6
CONTINUOUS
10
221.5749999999999886
20
-35.0499999999999972
11
234.5749999999999886
21
-35.0499999999999972
0
ARC
8
BLACK
10
221.5749999999999886
20
-21.5500000000000007
40
0.5
50
90.00000000
51
180.00000000
0
ARC
8
BLACK
10
234.5749999999999886
20
-21.5500000000000007
40
0.5
50
0.00000000
51
90.00000000
0
ARC
8
BLACK
10
234.5749999999999886
20
-34.5499999999999972
40
0.5
50
-90.00000000
51
-0.00000000
0
ARC
8
BLACK
10
221.5749999999999886
20
-34.5499999999999972
40
0.5
50
-180.00000000
51
-90.00000000
0
LINE
8
BLACK
6
CONTINUOUS
10
202.0249999999999773
20
-21.5500000000000007
11
202.0249999999999773
21
-34.5499999999999972
0
LINE
8
BLACK
6
CONTINUOUS
10
216.0249999999999773
20
-34.5499999999999972
11
216.0249999999999773
21
-21.5500000000000007
0
LINE
8
BLACK
6
CONTINUOUS
10
215.5249999999999773
20
-21.0500000000000007
11
202.5249999999999773
21
-21.0500000000000007
0
LINE
8
BLACK
6
CONTINUOUS
10
202.5249999999999773
20
-35.0499999999999972
11
215.5249999999999773
21
-35.0499999999999972
0
ARC
8
BLACK
10
202.5249999999999773
20
-21.5500000000000007
40
0.5
50
90.00000000
51
180.00000000
0
ARC
8
BLACK
10
215.5249999999999773
20
-21.5500000000000007
40
0.5
50
0.00000000
51
90.00000000
0
ARC
8
BLACK
10
215.5249999999999773
20
-34.5499999999999972
40
0.5
50
-90.00000000
51
-0.00000000
0
ARC
8
BLACK
10
202.5249999999999773
20
-34.5499999999999972
40
0.5
50
-180.00000000
51
-90.00000000
0
LINE
8
BLACK
6
CONTINUOUS
10
182.9749999999999943
20
-21.5500000000000007
11
182.9749999999999943
21
-34.5499999999999972
0
LINE
8
BLACK
6
CONTINUOUS
10
196.9749999999999943
20
-34.5499999999999972
11
196.9749999999999943
21
-21.5500000000000007
0
LINE
8
BLACK
6
CONTINUOUS
10
196.4749999999999943
20
-21.0500000000000007
11
183.4749999999999943
21
-21.0500000000000007
0
LINE
8
BLACK
6
CONTINUOUS
10
183.4749999999999943
20
-35.0499999999999972
11
196.4749999999999943
21
-35.0499999999999972
0
ARC
8
BLACK
10
183.4749999999999943
20
-21.5500000000000007
40
0.5
50
90.00000000
51
180.00000000
0
ARC
8
BLACK
10
196.4749999999999943
20
-21.5500000000000007
40
0.5
50
0.00000000
51
90.00000000
0
ARC
8
BLACK
10
196.4749999999999943
20
-34.5499999999999972
40
0.5
50
-90.00000000
51
-0.00000000
0
ARC
8
BLACK
10
183.4749999999999943
20
-34.5499999999999972
40
0.5
50
-180.00000000
51
-90.00000000
0
LINE
8
BLACK
6
CONTINUOUS
10
163.9249999999999829
20
-21.5500000000000007
11
163.9249999999999829
21
-34.5499999999999972
0
LINE
8
BLACK
6
CONTINUOUS
10
177.9249999999999829
20
-34.5499999999999972
11
177.9249999999999829
21
-21.5500000000000007
0
LINE
8
BLACK
6
CONTINUOUS
10
177.4249999999999829
20
-21.0500000000000007
11
164.4249999999999829
21
-21.0500000000000007
0
LINE
8
BLACK
6
CONTINUOUS
10
164.4249999999999829
20
-35.0499999999999972
11
177.4249999999999829
21
-35.0499999999999972
0
ARC
8
BLACK
10
164.4249999999999829
20
-21.5500000000000007
40
0.5
50
90.00000000
51
180.00000000
0
ARC
8
BLACK
10
177.4249999999999829
20
-21.5500000000000007
40
0.5
50
0.00000000
51
90.00000000
0
ARC
8
BLACK
10
177.4249999999999829
20
-34.5499999999999972
40
0.5
50
-90.00000000
51
-0.00000000
0
ARC
8
BLACK
10
164.4249999999999829
20
-34.5499999999999972
40
0.5
50
-180.00000000
51
-90.00000000
0
LINE
8
BLACK
6
CONTINUOUS
10
144.875
20
-21.5500000000000007
11
144.875
21
-34.5499999999999972
0
LINE
8
BLACK
6
CONTINUOUS
10
158.875
20
-34.5499999999999972
11
158.875
21
-21.5500000000000007
0
LINE
8
BLACK
6
CONTINUOUS
10
158.375
20
-21.0500000000000007
11
145.375
21
-21.0500000000000007
0
LINE
8
BLACK
6
CONTINUOUS
10
145.375
20
-35.0499999999999972
11
158.375
21
-35.0499999999999972
0
ARC
8
BLACK
10
145.375
20
-21.5500000000000007
40
0.5
50
90.00000000
51
180.00000000
0
ARC
8
BLACK
10
158.375
20
-21.5500000000000007
40
0.5
50
0.00000000
51
90.00000000
0
ARC
8
BLACK
10
158.375
20
-34.5499999999999972
40
0.5
50
-90.00000000
51
-0.00000000
0
ARC
8
BLACK
10
145.375
20
-34.5499999999999972
40
0.5
50
-180.00000000
51
-90.00000000
0
LINE
8
BLACK
6
CONTINUOUS
10
125.8249999999999886
20
-21.5500000000000007
11
125.8249999999999886
21
-34.5499999999999972
0
LINE
8
BLACK
6
CONTINUOUS
10
139.8249999999999886
20
-34.5499999999999972
11
139.8249999999999886
21
-21.5500000000000007
0
LINE
8
BLACK
6
CONTINUOUS
10
139.3249999999999886
20
-21.0500000000000007
11
126.3249999999999886
21
-21.0500000000000007
0
LINE
8
BLACK
6
CONTINUOUS
10
126.3249999999999886
20
-35.0499999999999972
11
139.3249999999999886
21
-35.0499999999999972
0
ARC
8
BLACK
10
126.3249999999999886
20
-21.5500000000000007
40
0.5
50
90.00000000
51
180.00000000
0
ARC
8
BLACK
10
139.3249999999999886
20
-21.5500000000000007
40
0.5
50
0.00000000
51
90.00000000
0
ARC
8
BLACK
10
139.3249999999999886
20
-34.5499999999999972
40
0.5
50
-90.00000000
51
-0.00000000
0
ARC
8
BLACK
10
126.3249999999999886
20
-34.5499999999999972
40
0.5
50
-180.00000000
51
-90.00000000
0
LINE
8
BLACK
6
CONTINUOUS
10
106.7749999999999915
20
-21.5500000000000007
11
106.7749999999999915
21
-34.5499999999999972
0
LINE
8
BLACK
6
CONTINUOUS
10
120.7749999999999915
20
-34.5499999999999972
11
120.7749999999999915
21
-21.5500000000000007
0
LINE
8
BLACK
6
CONTINUOUS
10
120.2749999999999915
20
-21.0500000000000007
11
107.2749999999999915
21
-21.0500000000000007
0
LINE
8
BLACK
6
CONTINUOUS
10
107.2749999999999915
20
-35.0499999999999972
11
120.2749999999999915
21
-35.0499999999999972
0
ARC
8
BLACK
10
107.2749999999999915
20
-21.5500000000000007
40
0.5
50
90.00000000
51
180.00000000
0
ARC
8
BLACK
10
120.2749999999999915
20
-21.5500000000000007
40
0.5
50
0.00000000
51
90.00000000
0
ARC
8
BLACK
10
120.2749999999999915
20
-34.5499999999999972
40
0.5
50
-90.00000000
51
-0.00000000
0
ARC
8
BLACK
10
107.2749999999999915
20
-34.5499999999999972
40
0.5
50
-180.00000000
51
-90.00000000
0
LINE
8
BLACK
6
CONTINUOUS
10
87.7249999999999943
20
-21.5500000000000007
11
87.7249999999999943
21
-34.5499999999999972
0
LINE
8
BLACK
6
CONTINUOUS
10
101.7249999999999943
20
-34.5499999999999972
11
101.7249999999999943
21
-21.5500000000000007
0
LINE
8
BLACK
6
CONTINUOUS
10
101.2249999999999943
20
-21.0500000000000007
11
88.2249999999999943
21
-21.0500000000000007
0
LINE
8
BLACK
6
CONTINUOUS
10
88.2249999999999943
20
-35.0499999999999972
11
101.2249999999999943
21
-35.0499999999999972
0
ARC
8
BLACK
10
88.2249999999999943
20
-21.5500000000000007
40
0.5
50
90.00000000
51
180.00000000
0
ARC
8
BLACK
10
101.2249999999999943
20
-21.5500000000000007
40
0.5
50
0.00000000
51
90.00000000
0
ARC
8
BLACK
10
101.2249999999999943
20
-34.5499999999999972
40
0.5
50
-90.00000000
51
-0.00000000
0
ARC
8
BLACK
10
88.2249999999999943
20
-34.5499999999999972
40
0.5
50
-180.00000000
51
-90.00000000
0
LINE
8
BLACK
6
CONTINUOUS
10
68.6749999999999972
20
-21.5500000000000007
11
68.6749999999999972
21
-34.5499999999999972
0
LINE
8
BLACK
6
CONTINUOUS
10
82.6749999999999972
20
-34.5499999999999972
11
82.6749999999999972
21
-21.5500000000000007
0
LINE
8
BLACK
6
CONTINUOUS
10
82.1749999999999972
20
-21.0500000000000007
11
69.1749999999999972
21
-21.0500000000000007
0
LINE
8
BLACK
6
CONTINUOUS
10
69.1749999999999972
20
-35.0499999999999972
11
82.1749999999999972
21
-35.0499999999999972
0
ARC
8
BLACK
10
69.1749999999999972
20
-21.5500000000000007
40
0.5
50
90.00000000
51
180.00000000
0
ARC
8
BLACK
10
82.1749999999999972
20
-21.5500000000000007
40
0.5
50
0.00000000
51
90.00000000
0
ARC
8
BLACK
10
82.1749999999999972
20
-34.5499999999999972
40
0.5
50
-90.00000000
51
-0.00000000
0
ARC
8
BLACK
10
69.1749999999999972
20
-34.5499999999999972
40
0.5
50
-180.00000000
51
-90.00000000
0
LINE
8
BLACK
6
CONTINUOUS
10
49.625
20
-21.5500000000000007
11
49.625
21
-34.5499999999999972
0
LINE
8
BLACK
6
CONTINUOUS
10
63.625
20
-34.5499999999999972
11
63.625
21
-21.5500000000000007
0
LINE
8
BLACK
6
CONTINUOUS
10
63.125
20
-21.0500000000000007
11
50.125
21
-21.0500000000000007
0
LINE
8
BLACK
6
CONTINUOUS
10
50.125
20
-35.0499999999999972
11
63.125
21
-35.0499999999999972
0
ARC
8
BLACK
10
50.125
20
-21.5500000000000007
40
0.5
50
90.00000000
51
180.00000000
0
ARC
8
BLACK
10
63.125
20
-21.5500000000000007
40
0.5
50
0.00000000
51
90.00000000
0
ARC
8
BLACK
10
63.125
20
-34.5499999999999972
40
0.5
50
-90.00000000
51
-0.00000000
0
ARC
8
BLACK
10
50.125
20
-34.5499999999999972
40
0.5
50
-180.00000000
51
-90.00000000
0
LINE
8
BLACK
6
CONTINUOUS
10
44.5749999999999957
20
-34.5499999999999972
11
44.5749999999999957
21
-21.5500000000000007
0
LINE
8
BLACK
6
CONTINUOUS
10
44.0749999999999957
20
-21.0500000000000007
11
31.0749999999999993
21
-21.0500000000000007
0
LINE
8
BLACK
6
CONTINUOUS
10
31.0749999999999993
20
-35.0499999999999972
11
44.0749999999999957
21
-35.0499999999999972
0
ARC
8
BLACK
10
31.0749999999999993
20
-21.5500000000000007
40
0.5
50
90.00000000
51
180.00000000
0
ARC
8
BLACK
10
44.0749999999999957
20
-21.5500000000000007
40
0.5
50
0.00000000
51
90.00000000
0
ARC
8
BLACK
10
44.0749999999999957
20
-34.5499999999999972
40
0.5
50
-90.00000000
51
-0.00000000
0
ARC
8
BLACK
10
31.0749999999999993
20
-34.5499999999999972
40
0.5
50
-180.00000000
51
-90.00000000
0
LINE
8
BLACK
6
CONTINUOUS
10
6.7624999999999993
20
-21.5500000000000007
11
6.7624999999999993
21
-34.5499999999999972
0
LINE
8
BLACK
6
CONTINUOUS
10
20.2624999999999993
20
-21.0500000000000007
11
7.2624999999999993
21
-21.0500000000000007
0
LINE
8
BLACK
6
CONTINUOUS
10
7.2624999999999993
20
-35.0499999999999972
11
20.2624999999999993
21
-35.0499999999999972
0
ARC
8
BLACK
10
7.2624999999999993
20
-21.5500000000000007
40
0.5
50
90.00000000
51
180.00000000
0
ARC
8
BLACK
10
20.2624999999999993
20
-21.5500000000000007
40
0.5
50
0.00000000
51
90.00000000
0
ARC
8
BLACK
10
20.2624999999999993
20
-34.5499999999999972
40
0.5
50
-90.00000000
51
-0.00000000
0
ARC
8
BLACK
10
7.2624999999999993
20
-34.5499999999999972
40
0.5
50
-180.00000000
51
-90.00000000
0
LINE
8
BLACK
6
CONTINUOUS
10
282.6999999999999886
20
-15.5
11
282.6999999999999886
21
-2.5
0
LINE
8
BLACK
6
CONTINUOUS
10
275.1129999999999995
20
-2.
11
272.6750000000000114
21
-2.
0
LINE
8
BLACK
6
CONTINUOUS
10
282.1999999999999886
20
-2.
11
281.1129999999999995
21
-2.
0
LINE
8
BLACK
6
CONTINUOUS
10
281.6129999999999995
20
-16.
11
282.1999999999999886
21
-16.
0
LINE
8
BLACK
6
CONTINUOUS
10
272.6750000000000114
20
-16.
11
274.6129999999999995
21
-16.
0
ARC
8
BLACK
10
282.1999999999999886
20
-2.5
40
0.5
50
0.00000000
51
90.00000000
0
ARC
8
BLACK
10
282.1999999999999886
20
-15.5
40
0.5
50
-90.00000000
51
-0.00000000
0
LINE
8
BLACK
6
CONTINUOUS
10
249.6499999999999773
20
-2.5
11
249.6499999999999773
21
-15.5
0
LINE
8
BLACK
6
CONTINUOUS
10
251.2369999999999948
20
-2.
11
250.1499999999999773
21
-2.
0
LINE
8
BLACK
6
CONTINUOUS
10
259.6750000000000114
20
-2.
11
257.2369999999999663
21
-2.
0
LINE
8
BLACK
6
CONTINUOUS
10
257.7369999999999663
20
-16.
11
259.6750000000000114
21
-16.
0
LINE
8
BLACK
6
CONTINUOUS
10
250.1499999999999773
20
-16.
11
250.7369999999999948
21
-16.
0
ARC
8
BLACK
10
250.1499999999999773
20
-2.5
40
0.5
50
90.00000000
51
180.00000000
0
ARC
8
BLACK
10
250.1499999999999773
20
-15.5
40
0.5
50
-180.00000000
51
-90.00000000
0
LINE
8
BLACK
6
CONTINUOUS
10
274.6129999999999995
20
-16.
11
274.6129999999999995
21
-16.5
0
LINE
8
BLACK
6
CONTINUOUS
10
281.6129999999999995
20
-16.5
11
281.6129999999999995
21
-16.
0
LINE
8
BLACK
6
CONTINUOUS
10
281.1129999999999995
20
-2.
11
275.1129999999999995
21
-2.
0
LINE
8
BLACK
6
CONTINUOUS
10
275.1129999999999995
20
-17.
11
281.1129999999999995
21
-17.
0
ARC
8
BLACK
10
281.1129999999999995
20
-16.5
40
0.5
50
-90.00000000
51
-0.00000000
0
ARC
8
BLACK
10
275.1129999999999995
20
-16.5
40
0.5
50
-180.00000000
51
-90.00000000
0
LINE
8
BLACK
6
CONTINUOUS
10
250.7369999999999948
20
-16.
11
250.7369999999999948
21
-16.5
0
LINE
8
BLACK
6
CONTINUOUS
10
257.7369999999999663
20
-16.5
11
257.7369999999999663
21
-16.
0
LINE
8
BLACK
6
CONTINUOUS
10
257.2369999999999663
20
-2.
11
251.2369999999999948
21
-2.
0
LINE
8
BLACK
6
CONTINUOUS
10
251.2369999999999948
20
-17.
11
257.2369999999999663
21
-17.
0
ARC
8
BLACK
10
257.2369999999999663
20
-16.5
40
0.5
50
-90.00000000
51
-0.00000000
0
ARC
8
BLACK
10
251.2369999999999948
20
-16.5
40
0.5
50
-180.00000000
51
-90.00000000
0
LINE
8
BLACK
6
CONTINUOUS
10
263.1499999999999773
20
-2.
11
259.6750000000000114
21
-2.
0
LINE
8
BLACK
6
CONTINUOUS
10
269.1999999999999886
20
-2.
11
263.1499999999999773
21
-2.
0
LINE
8
BLACK
6
CONTINUOUS
10
272.6750000000000114
20
-2.
11
269.1999999999999886
21
-2.
0
LINE
8
BLACK
6
CONTINUOUS
10
269.1999999999999886
20
-16.
11
272.6750000000000114
21
-16.
0
LINE
8
BLACK
6
CONTINUOUS
10
263.1499999999999773
20
-16.
11
269.1999999999999886
21
-16.
0
LINE
8
BLACK
6
CONTINUOUS
10
259.6750000000000114
20
-16.
11
263.1499999999999773
21
-16.
0
LINE
8
BLACK
6
CONTINUOUS
10
230.5999999999999943
20
-2.5
11
230.5999999999999943
21
-15.5
0
LINE
8
BLACK
6
CONTINUOUS
10
244.5999999999999943
20
-15.5
11
244.5999999999999943
21
-2.5
0
LINE
8
BLACK
6
CONTINUOUS
10
244.0999999999999943
20
-2.
11
231.0999999999999943
21
-2.
0
LINE
8
BLACK
6
CONTINUOUS
10
231.0999999999999943
20
-16.
11
244.0999999999999943
21
-16.
0
ARC
8
BLACK
10
231.0999999999999943
20
-2.5
40
0.5
50
90.00000000
51
180.00000000
0
ARC
8
BLACK
10
244.0999999999999943
20
-2.5
40
0.5
50
0.00000000
51
90.00000000
0
ARC
8
BLACK
10
244.0999999999999943
20
-15.5
40
0.5
50
-90.00000000
51
-0.00000000
0
ARC
8
BLACK
10
231.0999999999999943
20
-15.5
40
0.5
50
-180.00000000
51
-90.00000000
0
LINE
8
BLACK
6
CONTINUOUS
10
211.5499999999999829
20
-2.5
11
211.5499999999999829
21
-15.5
0
LINE
8
BLACK
6
CONTINUOUS
10
225.5499999999999829
20
-15.5
11
225.5499999999999829
21
-2.5
0
LINE
8
BLACK
6
CONTINUOUS
10
225.0499999999999829
20
-2.
11
212.0499999999999829
21
-2.
0
LINE
8
BLACK
6
CONTINUOUS
10
212.0499999999999829
20
-16.
11
225.0499999999999829
21
-16.
0
ARC
8
BLACK
10
212.0499999999999829
20
-2.5
40
0.5
50
90.00000000
51
180.00000000
0
ARC
8
BLACK
10
225.0499999999999829
20
-2.5
40
0.5
50
0.00000000
51
90.00000000
0
ARC
8
BLACK
10
225.0499999999999829
20
-15.5
40
0.5
50
-90.00000000
51
-0.00000000
0
ARC
8
BLACK
10
212.0499999999999829
20
-15.5
40
0.5
50
-180.00000000
51
-90.00000000
0
LINE
8
BLACK
6
CONTINUOUS
10
192.5
20
-2.5
11
192.5
21
-15.5
0
LINE
8
BLACK
6
CONTINUOUS
10
206.5
20
-15.5
11
206.5
21
-2.5
0
LINE
8
BLACK
6
CONTINUOUS
10
206.
20
-2.
11
193.
21
-2.
0
LINE
8
BLACK
6
CONTINUOUS
10
193.
20
-16.
11
206.
21
-16.
0
ARC
8
BLACK
10
193.
20
-2.5
40
0.5
50
90.00000000
51
180.00000000
0
ARC
8
BLACK
10
206.
20
-2.5
40
0.5
50
0.00000000
51
90.00000000
0
ARC
8
BLACK
10
206.
20
-15.5
40
0.5
50
-90.00000000
51
-0.00000000
0
ARC
8
BLACK
10
193.
20
-15.5
40
0.5
50
-180.00000000
51
-90.00000000
0
LINE
8
BLACK
6
CONTINUOUS
10
173.4499999999999886
20
-2.5
11
173.4499999999999886
21
-15.5
0
LINE
8
BLACK
6
CONTINUOUS
10
187.4499999999999886
20
-15.5
11
187.4499999999999886
21
-2.5
0
LINE
8
BLACK
6
CONTINUOUS
10
186.9499999999999886
20
-2.
11
173.9499999999999886
21
-2.
0
LINE
8
BLACK
6
CONTINUOUS
10
173.9499999999999886
20
-16.
11
186.9499999999999886
21
-16.
0
ARC
8
BLACK
10
173.9499999999999886
20
-2.5
40
0.5
50
90.00000000
51
180.00000000
0
ARC
8
BLACK
10
186.9499999999999886
20
-2.5
40
0.5
50
0.00000000
51
90.00000000
0
ARC
8
BLACK
10
186.9499999999999886
20
-15.5
40
0.5
50
-90.00000000
51
-0.00000000
0
ARC
8
BLACK
10
173.9499999999999886
20
-15.5
40
0.5
50
-180.00000000
51
-90.00000000
0
LINE
8
BLACK
6
CONTINUOUS
10
154.4000000000000057
20
-2.5
11
154.4000000000000057
21
-15.5
0
LINE
8
BLACK
6
CONTINUOUS
10
168.4000000000000057
20
-15.5
11
168.4000000000000057
21
-2.5
0
LINE
8
BLACK
6
CONTINUOUS
10
167.9000000000000057
20
-2.
11
154.9000000000000057
21
-2.
0
LINE
8
BLACK
6
CONTINUOUS
10
154.9000000000000057
20
-16.
11
167.9000000000000057
21
-16.
0
ARC
8
BLACK
10
154.9000000000000057
20
-2.5
40
0.5
50
90.00000000
51
180.00000000
0
ARC
8
BLACK
10
167.9000000000000057
20
-2.5
40
0.5
50
0.00000000
51
90.00000000
0
ARC
8
BLACK
10
167.9000000000000057
20
-15.5
40
0.5
50
-90.00000000
51
-0.00000000
0
ARC
8
BLACK
10
154.9000000000000057
20
-15.5
40
0.5
50
-180.00000000
51
-90.00000000
0
LINE
8
BLACK
6
CONTINUOUS
10
135.3499999999999943
20
-2.5
11
135.3499999999999943
21
-15.5
0
LINE
8
BLACK
6
CONTINUOUS
10
149.3499999999999943
20
-15.5
11
149.3499999999999943
21
-2.5
0
LINE
8
BLACK
6
CONTINUOUS
10
148.8499999999999943
20
-2.
11
135.8499999999999943
21
-2.
0
LINE
8
BLACK
6
CONTINUOUS
10
135.8499999999999943
20
-16.
11
148.8499999999999943
21
-16.
0
ARC
8
BLACK
10
135.8499999999999943
20
-2.5
40
0.5
50
90.00000000
51
180.00000000
0
ARC
8
BLACK
10
148.8499999999999943
20
-2.5
40
0.5
50
0.00000000
51
90.00000000
0
ARC
8
BLACK
10
148.8499999999999943
20
-15.5
40
0.5
50
-90.00000000
51
-0.00000000
0
ARC
8
BLACK
10
135.8499999999999943
20
-15.5
40
0.5
50
-180.00000000
51
-90.00000000
0
LINE
8
BLACK
6
CONTINUOUS
10
116.2999999999999972
20
-2.5
11
116.2999999999999972
21
-15.5
0
LINE
8
BLACK
6
CONTINUOUS
10
130.2999999999999829
20
-15.5
11
130.2999999999999829
21
-2.5
0
LINE
8
BLACK
6
CONTINUOUS
10
129.7999999999999829
20
-2.
11
116.7999999999999972
21
-2.
0
LINE
8
BLACK
6
CONTINUOUS
10
116.7999999999999972
20
-16.
11
129.7999999999999829
21
-16.
0
ARC
8
BLACK
10
116.7999999999999972
20
-2.5
40
0.5
50
90.00000000
51
180.00000000
0
ARC
8
BLACK
10
129.7999999999999829
20
-2.5
40
0.5
50
0.00000000
51
90.00000000
0
ARC
8
BLACK
10
129.7999999999999829
20
-15.5
40
0.5
50
-90.00000000
51
-0.00000000
0
ARC
8
BLACK
10
116.7999999999999972
20
-15.5
40
0.5
50
-180.00000000
51
-90.00000000
0
LINE
8
BLACK
6
CONTINUOUS
10
97.25
20
-2.5
11
97.25
21
-15.5
0
LINE
8
BLACK
6
CONTINUOUS
10
111.25
20
-15.5
11
111.25
21
-2.5
0
LINE
8
BLACK
6
CONTINUOUS
10
110.75
20
-2.
11
97.75
21
-2.
0
LINE
8
BLACK
6
CONTINUOUS
10
97.75
20
-16.
11
110.75
21
-16.
0
ARC
8
BLACK
10
97.75
20
-2.5
40
0.5
50
90.00000000
51
180.00000000
0
ARC
8
BLACK
10
110.75
20
-2.5
40
0.5
50
0.00000000
51
90.00000000
0
ARC
8
BLACK
10
110.75
20
-15.5
40
0.5
50
-90.00000000
51
-0.00000000
0
ARC
8
BLACK
10
97.75
20
-15.5
40
0.5
50
-180.00000000
51
-90.00000000
0
LINE
8
BLACK
6
CONTINUOUS
10
78.2000000000000028
20
-2.5
11
78.2000000000000028
21
-15.5
0
LINE
8
BLACK
6
CONTINUOUS
10
92.2000000000000028
20
-15.5
11
92.2000000000000028
21
-2.5
0
LINE
8
BLACK
6
CONTINUOUS
10
91.7000000000000028
20
-2.
11
78.7000000000000028
21
-2.
0
LINE
8
BLACK
6
CONTINUOUS
10
78.7000000000000028
20
-16.
11
91.7000000000000028
21
-16.
0
ARC
8
BLACK
10
78.7000000000000028
20
-2.5
40
0.5
50
90.00000000
51
180.00000000
0
ARC
8
BLACK
10
91.7000000000000028
20
-2.5
40
0.5
50
0.00000000
51
90.00000000
0
ARC
8
BLACK
10
91.7000000000000028
20
-15.5
40
0.5
50
-90.00000000
51
-0.00000000
0
ARC
8
BLACK
10
78.7000000000000028
20
-15.5
40
0.5
50
-180.00000000
51
-90.00000000
0
LINE
8
BLACK
6
CONTINUOUS
10
59.1499999999999986
20
-2.5
11
59.1499999999999986
21
-15.5
0
LINE
8
BLACK
6
CONTINUOUS
10
73.1499999999999915
20
-15.5
11
73.1499999999999915
21
-2.5
0
LINE
8
BLACK
6
CONTINUOUS
10
72.6499999999999915
20
-2.
11
59.6499999999999986
21
-2.
0
LINE
8
BLACK
6
CONTINUOUS
10
59.6499999999999986
20
-16.
11
72.6499999999999915
21
-16.
0
ARC
8
BLACK
10
59.6499999999999986
20
-2.5
40
0.5
50
90.00000000
51
180.00000000
0
ARC
8
BLACK
10
72.6499999999999915
20
-2.5
40
0.5
50
0.00000000
51
90.00000000
0
ARC
8
BLACK
10
72.6499999999999915
20
-15.5
40
0.5
50
-90.00000000
51
-0.00000000
0
ARC
8
BLACK
10
59.6499999999999986
20
-15.5
40
0.5
50
-180.00000000
51
-90.00000000
0
LINE
8
BLACK
6
CONTINUOUS
10
40.1000000000000014
20
-2.5
11
40.1000000000000014
21
-15.5
0
LINE
8
BLACK
6
CONTINUOUS
10
54.0999999999999943
20
-15.5
11
54.0999999999999943
21
-2.5
0
LINE
8
BLACK
6
CONTINUOUS
10
53.5999999999999943
20
-2.
11
40.6000000000000014
21
-2.
0
LINE
8
BLACK
6
CONTINUOUS
10
40.6000000000000014
20
-16.
11
53.5999999999999943
21
-16.
0
ARC
8
BLACK
10
40.6000000000000014
20
-2.5
40
0.5
50
90.00000000
51
180.00000000
0
ARC
8
BLACK
10
53.5999999999999943
20
-2.5
40
0.5
50
0.00000000
51
90.00000000
0
ARC
8
BLACK
10
53.5999999999999943
20
-15.5
40
0.5
50
-90.00000000
51
-0.00000000
0
ARC
8
BLACK
10
40.6000000000000014
20
-15.5
40
0.5
50
-180.00000000
51
-90.00000000
0
LINE
8
BLACK
6
CONTINUOUS
10
21.0500000000000007
20
-2.5
11
21.0500000000000007
21
-15.5
0
LINE
8
BLACK
6
CONTINUOUS
10
35.0499999999999972
20
-15.5
11
35.0499999999999972
21
-2.5
0
LINE
8
BLACK
6
CONTINUOUS
10
34.5499999999999972
20
-2.
11
21.5500000000000007
21
-2.
0
LINE
8
BLACK
6
CONTINUOUS
10
21.5500000000000007
20
-16.
11
34.5499999999999972
21
-16.
0
ARC
8
BLACK
10
21.5500000000000007
20
-2.5
40
0.5
50
90.00000000
51
180.00000000
0
ARC
8
BLACK
10
34.5499999999999972
20
-2.5
40
0.5
50
0.00000000
51
90.00000000
0
ARC
8
BLACK
10
34.5499999999999972
20
-15.5
40
0.5
50
-90.00000000
51
-0.00000000
0
ARC
8
BLACK
10
21.5500000000000007
20
-15.5
40
0.5
50
-180.00000000
51
-90.00000000
0
LINE
8
BLACK
6
CONTINUOUS
10
2.
20
-2.5
11
2.
21
-15.5
0
LINE
8
BLACK
6
CONTINUOUS
10
16.
20
-15.5
11
16.
21
-2.5
0
LINE
8
BLACK
6
CONTINUOUS
10
15.5
20
-2.
11
2.5
21
-2.
0
LINE
8
BLACK
6
CONTINUOUS
10
2.5
20
-16.
11
15.5
21
-16.
0
ARC
8
BLACK
10
2.5
20
-2.5
40
0.5
50
90.00000000
51
180.00000000
0
ARC
8
BLACK
10
15.5
20
-2.5
40
0.5
50
0.00000000
51
90.00000000
0
ARC
8
BLACK
10
15.5
20
-15.5
40
0.5
50
-90.00000000
51
-0.00000000
0
ARC
8
BLACK
10
2.5
20
-15.5
40
0.5
50
-180.00000000
51
-90.00000000
0
ARC
8
BLACK
10
2.75
20
-56.625
40
2.5
50
-90.00000000
51
90.00000000
0
LINE
8
BLACK
6
CONTINUOUS
10
273.1499999999999773
20
-1.25
11
275.1499999999999773
21
-1.25
0
LINE
8
BLACK
6
CONTINUOUS
10
256.1499999999999773
20
-1.25
11
258.1499999999999773
21
-1.25
0
LINE
8
BLACK
6
CONTINUOUS
10
26.5499999999999972
20
-1.25
11
28.5499999999999972
21
-1.25
0
LINE
8
BLACK
6
CONTINUOUS
10
9.5499999999999989
20
-1.25
11
11.5499999999999989
21
-1.25
0
LINE
8
BLACK
6
CONTINUOUS
10
255.1499999999999773
20
0.
11
29.5499999999999972
21
0.
0
ARC
8
BLACK
10
26.5499999999999972
20
-0.75
40
0.5
50
-180.00000000
51
-90.00000000
0
LINE
8
BLACK
6
CONTINUOUS
10
255.6499999999999773
20
-0.75
11
255.6499999999999773
21
-0.5
0
ARC
8
BLACK
10
2.
20
-2.
40
2.
50
90.00000000
51
180.00000000
0
ARC
8
BLACK
10
275.1499999999999773
20
-0.75
40
0.5
50
-90.00000000
51
-0.00000000
0
ARC
8
BLACK
10
272.1499999999999773
20
-0.75
40
0.5
50
0.00000000
51
90.00000000
0
LINE
8
BLACK
6
CONTINUOUS
10
282.6999999999999886
20
0.
11
276.1499999999999773
21
0.
0
ARC
8
BLACK
10
259.1499999999999773
20
-0.75
40
0.5
50
90.00000000
51
180.00000000
0
LINE
8
BLACK
6
CONTINUOUS
10
2.
20
-94.2000000000000028
11
282.6999999999999886
21
-94.2000000000000028
0
LINE
8
BLACK
6
CONTINUOUS
10
275.6499999999999773
20
-0.5
11
275.6499999999999773
21
-0.75
0
ARC
8
BLACK
10
255.1499999999999773
20
-0.5
40
0.5
50
0.00000000
51
90.00000000
0
ARC
8
BLACK
10
12.5499999999999989
20
-0.75
40
0.5
50
90.00000000
51
180.00000000
0
ARC
8
BLACK
10
25.5499999999999972
20
-0.75
40
0.5
50
0.00000000
51
90.00000000
0
ARC
8
BLACK
10
11.5499999999999989
20
-0.75
40
0.5
50
-90.00000000
51
-0.00000000
0
LINE
8
BLACK
6
CONTINUOUS
10
284.6999999999999886
20
-2.
11
284.6999999999999886
21
-54.125
0
LINE
8
BLACK
6
CONTINUOUS
10
9.0499999999999989
20
-0.5
11
9.0499999999999989
21
-0.75
0
ARC
8
BLACK
10
2.
20
-92.2000000000000028
40
2.
50
-180.00000000
51
-90.00000000
0
LINE
8
BLACK
6
CONTINUOUS
10
2.
20
0.
11
8.5499999999999989
21
0.
0
ARC
8
BLACK
10
9.5499999999999989
20
-0.75
40
0.5
50
-180.00000000
51
-90.00000000
0
ARC
8
BLACK
10
28.5499999999999972
20
-0.75
40
0.5
50
-90.00000000
51
-0.00000000
0
LINE
8
BLACK
6
CONTINUOUS
10
12.5499999999999989
20
-0.25
11
25.5499999999999972
21
-0.25
0
ARC
8
BLACK
10
273.1499999999999773
20
-0.75
40
0.5
50
-180.00000000
51
-90.00000000
0
ARC
8
BLACK
10
8.5499999999999989
20
-0.5
40
0.5
50
0.00000000
51
90.00000000
0
ARC
8
BLACK
10
29.5499999999999972
20
-0.5
40
0.5
50
90.00000000
51
180.00000000
0
LINE
8
BLACK
6
CONTINUOUS
10
272.1499999999999773
20
-0.25
11
259.1499999999999773
21
-0.25
0
LINE
8
BLACK
6
CONTINUOUS
10
0.
20
-92.2000000000000028
11
0.
21
-59.125
0
LINE
8
BLACK
6
CONTINUOUS
10
0.
20
-2.
11
0.
21
-54.125
0
LINE
8
BLACK
6
CONTINUOUS
10
0.
20
-59.125
11
2.75
21
-59.125
0
ARC
8
BLACK
10
276.1499999999999773
20
-0.5
40
0.5
50
90.00000000
51
180.00000000
0
ARC
8
BLACK
10
256.1499999999999773
20
-0.75
40
0.5
50
-180.00000000
51
-90.00000000
0
LINE
8
BLACK
6
CONTINUOUS
10
29.0499999999999972
20
-0.75
11
29.0499999999999972
21
-0.5
0
ARC
8
BLACK
10
258.1499999999999773
20
-0.75
40
0.5
50
-90.00000000
51
-0.00000000
0
ARC
8
BLACK
10
282.6999999999999886
20
-92.2000000000000028
40
2.
50
-90.00000000
51
-0.00000000
0
ARC
8
BLACK
10
282.6999999999999886
20
-2.
40
2.
50
0.00000000
51
90.00000000
0
LINE
8
BLACK
6
CONTINUOUS
10
2.75
20
-54.125
11
0.
21
-54.125
0
LINE
8
BLACK
6
CONTINUOUS
10
284.6999999999999886
20
-54.125
11
281.9499999999999886
21
-54.125
0
LINE
8
BLACK
6
CONTINUOUS
10
284.6999999999999886
20
-92.2000000000000028
11
284.6999999999999886
21
-59.125
0
LINE
8
BLACK
6
CONTINUOUS
10
20.7624999999999993
20
-25.0499999999999972
11
20.7624999999999993
21
-21.5500000000000007
  0
ENDSEC
  0
EOF
